<?xml version="1.0" standalone="no"?>
<!DOCTYPE svg PUBLIC "-//W3C//DTD SVG 20010904//EN"
 "http://www.w3.org/TR/2001/REC-SVG-20010904/DTD/svg10.dtd">
<svg version="1.0" xmlns="http://www.w3.org/2000/svg"
 width="736.000000pt" height="1104.000000pt" viewBox="0 0 736.000000 1104.000000"
 preserveAspectRatio="xMidYMid meet">

<g transform="translate(0.000000,1104.000000) scale(0.100000,-0.100000)"
fill="#000000" stroke="none">
<path d="M0 5876 l0 -5164 38 2 c20 2 51 4 67 5 23 1 27 3 15 11 -18 12 -16
12 92 14 49 0 88 -2 88 -6 0 -4 7 -5 15 -2 8 4 21 1 29 -5 9 -8 20 -8 37 -1
23 10 23 10 -3 5 -15 -3 -29 -1 -32 4 -3 5 14 11 38 12 29 3 42 0 39 -7 -3 -7
11 -11 36 -11 22 0 39 3 36 6 -2 4 6 8 18 9 47 5 82 2 85 -8 6 -17 27 -11 52
15 l23 25 -34 1 -34 1 29 8 c16 5 33 7 37 4 4 -2 10 0 13 5 3 5 -10 12 -29 15
-53 10 -52 26 2 26 35 0 44 -3 33 -10 -11 -7 -5 -10 25 -11 22 0 54 -2 70 -5
17 -2 55 -2 85 2 43 5 50 8 36 16 -12 7 -21 7 -29 -1 -12 -12 -46 -14 -71 -5
-15 6 -15 8 1 20 14 11 15 13 3 14 -28 0 -91 21 -86 28 5 8 43 8 114 -2 53 -8
82 2 82 27 0 7 -4 7 -12 -1 -7 -7 -23 -12 -38 -12 -20 0 -22 2 -10 10 12 8 12
10 -5 11 -11 0 -14 3 -7 6 7 3 19 0 26 -6 9 -8 18 -7 32 4 25 19 35 19 28 0
-4 -8 -2 -15 4 -15 5 0 12 6 15 14 4 10 20 14 49 13 24 0 50 3 57 8 10 5 12 4
7 -3 -4 -7 -1 -12 9 -12 9 0 14 3 12 8 -3 4 2 14 11 22 14 13 15 12 9 -3 -5
-13 -1 -17 18 -17 16 0 25 -6 25 -16 0 -8 -4 -12 -10 -9 -5 3 -19 1 -31 -6
-13 -7 -24 -7 -28 -2 -9 15 -52 8 -62 -10 -5 -9 -16 -23 -24 -31 -23 -23 -18
-26 19 -11 18 8 36 12 38 9 5 -4 13 -6 86 -20 24 -5 30 -10 23 -17 -8 -8 -14
-8 -23 1 -15 15 -84 16 -94 1 -3 -6 0 -15 7 -20 12 -7 11 -9 -1 -9 -8 0 -26
-3 -40 -7 l-25 -6 25 21 25 21 -50 -16 c-73 -22 -102 -35 -87 -40 6 -3 12 -9
12 -15 0 -7 -19 -9 -54 -5 -29 3 -58 2 -62 -3 -5 -4 -25 -11 -44 -15 -26 -4
-31 -3 -20 4 24 17 2 13 -24 -4 -15 -10 -57 -16 -129 -19 -66 -2 -113 -8 -122
-16 -13 -11 -14 -10 -9 4 5 13 2 16 -17 12 -44 -8 -80 -26 -74 -36 6 -9 -10
-14 -42 -13 -7 1 -10 -3 -8 -8 7 -10 66 -3 74 10 4 6 16 4 31 -5 l25 -14 -26
6 c-15 3 -30 1 -33 -5 -4 -6 -17 -11 -29 -11 -18 0 -19 -2 -7 -10 13 -9 13
-10 0 -11 -8 -1 -21 -1 -28 0 -15 2 -42 -23 -42 -38 0 -6 5 -11 10 -11 6 0 10
7 10 15 0 9 9 15 21 15 11 0 32 9 46 20 14 11 31 20 37 20 6 0 3 -5 -8 -11
-15 -9 -16 -13 -5 -20 10 -6 7 -9 -11 -9 -19 0 -22 -2 -10 -9 8 -6 18 -7 22
-5 4 3 8 0 8 -5 0 -6 4 -11 10 -11 5 0 7 6 4 13 -7 20 39 41 63 29 12 -7 24
-7 37 0 11 6 21 7 25 1 7 -10 43 -9 60 1 6 4 11 2 11 -5 0 -8 4 -8 12 -2 7 6
40 9 73 8 81 -4 83 -4 62 -16 -10 -6 -25 -8 -33 -5 -8 3 -13 2 -10 -3 3 -5
-17 -13 -44 -18 -39 -8 -50 -7 -54 4 -3 7 -13 13 -23 12 -16 0 -16 -1 1 -8 11
-4 15 -10 10 -13 -9 -5 -125 -12 -177 -10 -15 1 -25 -3 -22 -8 4 -6 1 -10 -4
-10 -6 0 -11 7 -11 15 0 19 -9 19 -50 -1 -18 -9 -54 -16 -81 -15 -39 0 -49 -3
-49 -16 0 -8 8 -22 17 -29 10 -7 13 -14 6 -14 -6 0 -15 5 -18 10 -3 6 -11 10
-16 10 -6 0 -8 -4 -4 -9 8 -14 -67 -33 -79 -21 -6 6 -15 10 -21 10 -5 0 -3 -5
5 -10 13 -9 12 -13 -8 -28 -22 -17 -22 -18 37 -20 33 -1 63 3 66 8 4 7 -8 9
-34 5 -24 -3 -41 -1 -41 5 0 11 5 12 70 14 44 1 46 0 45 -28 -1 -33 -24 -47
-65 -40 -14 2 -19 1 -12 -2 6 -3 10 -10 6 -15 -8 -14 -24 -11 -24 5 0 24 -20
29 -39 12 -10 -9 -35 -20 -55 -23 -21 -3 -36 -11 -36 -19 0 -8 5 -14 10 -14 6
0 10 5 10 10 0 6 7 10 15 10 13 0 13 -3 3 -20 -7 -11 -19 -20 -26 -20 -10 0
-13 -21 -11 -94 2 -73 6 -93 16 -89 7 3 13 0 13 -6 0 -6 -7 -11 -15 -11 -12 0
-15 -13 -15 -55 l0 -55 260 0 c192 1 259 4 257 12 -1 7 7 13 18 15 15 3 16 2
7 -5 -11 -7 -11 -10 2 -15 9 -4 16 -1 16 6 0 7 10 13 23 14 12 0 16 -1 10 -4
-24 -9 -13 -19 23 -21 20 -2 43 3 52 10 9 7 13 9 10 3 -4 -6 17 -10 54 -11 45
0 54 2 37 8 -19 7 -21 11 -9 18 12 8 10 10 -10 11 -20 1 -18 3 10 9 32 7 33 7
7 9 -16 0 -26 5 -23 9 3 4 21 6 40 4 20 -2 33 -8 31 -13 -3 -4 15 -2 40 6 37
11 46 11 42 1 -4 -10 9 -13 46 -13 195 -1 475 -11 490 -18 9 -4 17 -10 17 -14
0 -4 26 -7 58 -8 31 0 94 -3 139 -5 68 -4 81 -2 72 9 -9 10 -7 13 10 13 11 0
20 -6 19 -12 -4 -18 358 -24 378 -7 10 8 14 8 14 0 0 -17 867 -16 873 2 3 9 7
9 19 -1 12 -10 117 -12 482 -12 256 1 466 5 466 10 0 4 16 18 34 30 23 14 33
26 29 36 -4 12 3 14 35 13 23 -2 45 0 48 4 4 4 -2 7 -14 7 -26 0 -27 7 -5 32
9 10 11 18 6 18 -6 0 -13 -7 -17 -15 -3 -8 -13 -15 -21 -15 -9 0 -13 5 -10 11
9 14 -27 40 -41 28 -10 -8 -47 -3 -158 21 -28 5 -58 8 -68 4 -11 -3 -18 0 -18
7 0 10 -3 10 -12 1 -7 -7 -20 -12 -30 -12 -10 0 -18 -4 -18 -10 0 -5 -11 -10
-25 -10 -14 0 -25 5 -25 10 0 6 8 10 19 10 10 0 32 7 47 15 16 8 37 15 48 15
10 0 44 11 75 24 60 26 202 53 220 42 6 -4 11 -5 11 -2 0 3 -16 13 -35 22 -19
9 -33 19 -31 23 1 3 -5 14 -16 24 -10 9 -18 12 -18 6 0 -6 -5 -9 -12 -7 -15 5
-18 51 -4 60 6 4 -1 8 -16 8 -24 0 -42 18 -20 21 4 0 29 2 56 5 27 2 53 8 56
15 4 6 17 8 28 5 11 -4 23 -2 26 3 4 5 -3 12 -14 16 -16 5 -18 10 -10 25 6 11
17 17 25 14 8 -4 15 -1 15 5 0 6 8 11 19 11 21 0 93 29 73 30 -7 0 -11 4 -8 9
3 5 15 7 26 4 11 -3 20 -1 20 4 0 12 -50 37 -67 34 -7 -1 -13 2 -13 8 0 5 -17
8 -37 6 -21 -2 -54 -1 -73 2 l-35 6 30 10 c17 5 42 8 57 8 15 -1 29 3 33 9 3
5 11 10 16 10 6 0 7 -5 4 -11 -7 -10 120 -3 138 8 4 2 7 0 7 -6 0 -6 10 -4 25
3 14 7 37 11 50 8 25 -4 25 -5 8 -24 -16 -18 -16 -19 3 -11 10 4 28 15 38 25
21 19 56 24 56 8 0 -16 18 -11 39 11 17 18 19 19 18 3 -2 -13 5 -17 23 -17 72
1 91 4 85 13 -9 15 7 12 29 -5 11 -8 25 -15 30 -15 6 0 4 5 -4 11 -11 7 -7 9
20 8 19 0 37 0 40 1 3 2 16 4 30 5 13 1 25 6 27 11 2 5 31 8 66 6 49 -3 66 0
77 12 12 15 15 15 32 -1 16 -14 23 -15 39 -5 11 7 25 10 31 6 6 -4 16 0 22 8
6 8 26 20 45 26 28 10 32 9 27 -3 -4 -12 3 -15 34 -15 23 0 40 5 40 11 0 6 9
9 20 6 11 -3 18 -1 14 4 -3 5 7 9 23 9 19 0 24 3 14 9 -9 6 -10 10 -2 16 7 4
18 1 26 -5 18 -15 49 -5 42 14 -3 8 1 17 9 20 24 9 27 7 15 -8 -9 -10 -8 -16
3 -25 12 -10 15 -7 14 19 -1 17 -5 33 -10 36 -4 3 -5 10 -2 16 4 6 10 5 15 -3
6 -9 12 -10 17 -4 4 6 16 10 28 11 15 0 20 -5 17 -17 -3 -10 -11 -15 -19 -12
-8 3 -14 0 -14 -7 0 -6 -4 -8 -10 -5 -5 3 -10 1 -10 -5 0 -15 89 -4 120 15 20
12 50 14 50 2 0 -5 6 -4 14 2 10 9 16 9 21 1 4 -7 11 -7 18 -2 18 13 97 15 97
2 0 -8 6 -8 20 0 15 8 20 8 20 -1 0 -8 4 -8 13 -2 17 14 67 22 67 11 0 -5 -11
-13 -25 -18 -34 -13 -31 -20 8 -20 23 0 28 3 17 10 -12 8 -12 10 3 16 9 3 14
10 11 15 -3 5 -1 9 4 9 17 0 22 -13 9 -28 -10 -13 -9 -14 11 -3 12 6 22 16 22
21 0 6 8 10 18 10 14 0 15 -2 2 -10 -8 -5 -13 -10 -10 -10 3 -1 41 -3 84 -6
44 -2 82 -7 85 -9 2 -3 11 1 19 8 13 9 14 9 8 0 -4 -8 -2 -13 6 -14 7 -1 -5
-5 -27 -10 -21 -5 -42 -14 -46 -20 -4 -7 -13 -7 -28 3 -18 11 -23 11 -30 0 -4
-8 -12 -13 -17 -12 -5 1 -9 -3 -10 -10 -2 -6 -1 -7 2 -3 2 5 21 8 41 7 21 -1
46 4 57 12 25 17 50 19 40 2 -4 -7 6 -3 22 8 19 14 37 19 54 14 17 -4 21 -8
12 -14 -6 -4 -17 -4 -23 0 -8 4 -8 0 0 -15 14 -25 33 -28 29 -4 -2 10 2 17 8
16 7 -1 10 6 7 16 -3 10 0 22 6 26 6 3 11 3 10 -2 -3 -19 2 -34 10 -29 11 7
23 -22 16 -35 -4 -5 1 -6 9 -3 13 5 13 10 4 27 -6 12 -15 25 -20 28 -5 3 -2
12 7 19 13 11 15 10 9 -4 -4 -11 -1 -16 10 -16 9 0 16 -8 16 -17 0 -13 3 -14
12 -5 8 8 8 15 -3 29 -13 16 -12 17 4 4 14 -11 20 -11 32 -1 10 9 15 9 15 1 0
-6 -4 -11 -9 -11 -5 0 -12 -7 -15 -16 -5 -12 -1 -14 17 -9 19 5 20 4 4 -5 -9
-6 -21 -9 -26 -6 -5 3 -20 -3 -35 -15 -14 -11 -35 -22 -47 -24 -20 -4 -20 -3
-5 20 9 14 12 25 7 25 -14 0 -42 -30 -36 -40 2 -4 -10 -7 -28 -7 -18 1 -39 -3
-46 -8 -10 -6 -12 -4 -6 6 7 11 6 12 -6 3 -8 -7 -62 -13 -129 -14 -63 -2 -124
-3 -135 -3 -11 -1 -23 -6 -27 -11 -5 -7 -11 -7 -20 2 -9 9 -9 12 0 12 6 0 9 7
6 15 -4 8 -13 15 -21 15 -8 0 -11 -5 -8 -10 3 -6 1 -10 -6 -10 -6 0 -9 8 -6
20 3 10 2 19 -2 18 -3 -1 -16 1 -28 6 -13 4 -30 3 -40 -3 -14 -8 -11 -10 20
-16 46 -9 49 -25 5 -25 -18 0 -42 -7 -52 -15 -11 -8 -28 -12 -38 -9 -11 3 -24
1 -31 -4 -7 -5 -19 -10 -27 -10 -8 0 -30 -3 -47 -6 -18 -3 -35 0 -39 5 -4 6
-11 6 -20 -2 -7 -6 -12 -15 -9 -19 3 -5 -3 -6 -14 -3 -10 3 -22 0 -25 -6 -5
-7 -1 -8 10 -4 12 5 15 3 9 -6 -5 -9 -19 -11 -39 -7 -22 4 -27 3 -16 -4 13 -8
12 -10 -2 -10 -10 0 -18 -5 -18 -10 0 -7 6 -7 18 -2 9 6 38 9 64 8 33 -1 44 2
37 10 -10 13 7 23 54 31 18 3 26 0 25 -8 -3 -13 61 -19 69 -7 2 5 9 8 15 8 6
0 6 -6 -2 -15 -7 -9 -19 -14 -26 -11 -7 3 -16 1 -19 -3 -3 -5 2 -12 11 -15 10
-4 25 3 39 18 22 24 25 25 54 10 36 -18 40 -39 11 -54 -14 -7 -20 -7 -20 0 0
5 -8 10 -17 9 -12 0 -13 -2 -5 -6 10 -4 10 -8 1 -19 -15 -19 1 -19 46 0 29 13
35 20 35 45 0 31 14 42 23 19 3 -10 9 -10 24 -2 15 10 19 8 19 -6 0 -10 -6
-16 -13 -13 -6 3 -20 0 -29 -5 -13 -7 -3 -9 36 -7 l55 3 -34 -15 c-19 -8 -45
-23 -58 -33 -22 -17 -22 -18 -3 -23 11 -3 18 -1 14 4 -3 5 2 9 11 9 10 0 13
-5 9 -12 -4 -6 -3 -8 4 -5 5 4 8 17 5 30 -4 17 -3 19 6 7 9 -13 12 -12 24 4
10 13 20 16 36 11 17 -5 20 -10 12 -18 -9 -9 -14 -8 -21 3 -8 13 -11 12 -24
-5 -20 -26 -20 -35 -1 -35 9 0 15 -6 13 -12 -2 -7 2 -14 7 -16 6 -1 11 6 13
17 4 22 35 36 54 25 7 -4 4 2 -6 14 -20 23 -9 31 13 9 9 -7 11 -7 8 -1 -4 7 0
14 8 18 8 3 12 12 9 21 -5 11 1 15 22 14 l29 -1 -25 -8 c-14 -4 -19 -8 -11 -9
11 -1 10 -5 -5 -17 -18 -14 -18 -15 6 -8 14 3 32 13 41 20 9 8 24 12 33 8 13
-5 14 -9 4 -21 -11 -14 -7 -15 32 -9 34 5 41 4 28 -4 -10 -6 -38 -11 -63 -12
-24 0 -42 -5 -39 -9 3 -5 8 -7 12 -5 4 2 13 -2 20 -10 11 -12 9 -14 -7 -14
-11 0 -23 5 -26 10 -3 6 -11 10 -16 10 -6 0 -8 -4 -4 -9 8 -14 -14 -24 -28
-13 -14 12 -64 4 -74 -11 -4 -6 0 -8 10 -4 31 12 17 -4 -15 -18 -19 -8 -26
-14 -15 -15 10 0 17 -8 17 -20 0 -19 1 -19 20 -3 19 16 19 18 3 25 -14 5 -12
7 9 7 15 1 30 6 34 13 5 8 1 9 -12 4 -15 -6 -16 -5 -7 5 9 9 16 9 26 1 9 -8
24 -9 48 -2 18 6 42 7 52 4 15 -5 17 -2 11 21 -6 25 -4 26 22 23 21 -2 29 -8
29 -22 0 -23 20 -32 31 -14 12 18 14 38 4 38 -17 0 -3 44 20 59 22 15 24 15
17 -1 -7 -21 3 -23 22 -5 10 9 15 9 18 0 2 -7 12 -9 21 -6 9 3 4 -4 -13 -16
-21 -15 -25 -21 -13 -21 11 0 15 -5 12 -15 -4 -11 -2 -13 9 -9 9 3 13 13 10
25 -5 17 -3 18 21 9 26 -10 26 -9 26 28 0 4 -6 7 -13 8 -6 0 -25 6 -40 12 -16
7 -32 12 -37 12 -4 0 -11 7 -14 16 -5 13 -1 14 27 8 17 -5 44 -7 60 -6 15 1
42 3 60 4 17 2 38 10 45 18 10 13 12 9 7 -22 -3 -22 -1 -38 5 -38 6 0 10 4 10
10 0 5 7 6 17 3 11 -4 14 -3 9 5 -13 22 38 43 100 40 47 -2 59 0 59 12 0 16
-4 16 -45 6 -14 -3 -19 -3 -12 0 25 11 1 22 -38 17 -27 -4 -40 -2 -40 6 0 7 6
11 13 10 28 -3 57 2 57 10 0 5 -10 7 -22 5 -13 -2 -18 -2 -11 2 7 3 9 12 6 20
-3 8 -2 14 2 14 12 0 55 -50 55 -63 0 -7 4 -6 10 3 6 9 5 17 -3 23 -9 7 -9 10
1 14 6 2 12 9 12 15 0 6 -7 4 -17 -3 -14 -12 -16 -12 -11 1 6 20 38 26 38 7 0
-8 7 -17 15 -21 18 -6 19 -1 5 25 -8 14 -7 19 2 19 7 1 0 7 -17 15 -27 12 -28
13 -5 10 14 -2 34 -4 45 -4 17 -1 17 -3 5 -11 -13 -9 -13 -10 0 -11 10 0 8 -3
-5 -9 -18 -8 -18 -9 -2 -9 11 -1 15 -6 11 -12 -4 -8 1 -9 16 -4 15 5 20 4 16
-4 -5 -7 3 -11 23 -11 16 0 31 5 33 12 6 17 28 0 28 -23 0 -10 5 -19 11 -19 6
0 8 7 5 16 -5 14 -1 16 34 10 24 -4 40 -2 40 4 0 5 10 10 23 10 20 -1 21 -2 5
-14 -14 -10 -15 -15 -5 -26 10 -10 8 -10 -10 -1 -23 12 -50 15 -40 4 10 -9
-25 -32 -48 -32 -20 0 -20 1 -1 8 16 6 10 10 -30 21 -27 7 -53 14 -59 14 -11
1 -35 -58 -35 -88 0 -18 -2 -18 -25 4 l-25 23 -24 -22 c-15 -14 -26 -19 -31
-12 -3 6 0 11 7 12 7 0 3 4 -9 9 -23 9 -63 3 -63 -11 0 -5 -6 -6 -14 -3 -9 3
-15 -6 -20 -27 -6 -32 -31 -69 -47 -69 -17 0 -13 36 6 48 20 12 20 13 0 10
-13 -3 -23 4 -30 21 -6 14 -20 25 -32 26 -12 1 -20 -2 -17 -6 2 -4 -2 -9 -8
-12 -7 -2 -10 -8 -6 -12 4 -4 14 -3 21 4 12 9 18 6 32 -15 16 -25 16 -26 -2
-22 -10 2 -17 9 -16 16 2 6 -4 9 -12 6 -21 -8 -19 -11 14 -28 32 -17 49 -46
26 -46 -8 0 -12 6 -9 13 3 10 -5 12 -31 9 -24 -3 -35 -9 -35 -20 0 -12 3 -13
12 -4 7 7 18 12 26 12 12 0 12 -3 2 -15 -7 -8 -24 -15 -39 -15 -44 0 -61 -3
-61 -12 0 -5 -6 -3 -14 4 -8 7 -12 21 -10 30 1 10 -1 18 -7 18 -5 0 -9 -5 -9
-11 0 -6 -7 -8 -16 -5 -12 5 -15 2 -10 -10 3 -8 6 -19 6 -22 0 -4 5 0 11 8 9
13 10 13 6 0 -3 -10 -15 -14 -33 -13 -28 2 -28 1 -9 -13 19 -15 19 -15 -7 -9
-31 8 -37 -2 -12 -20 15 -10 15 -13 0 -27 -21 -22 -20 -31 2 -19 9 5 26 12 37
16 16 5 17 8 5 15 -17 11 -6 24 28 35 13 4 22 2 22 -4 0 -6 -8 -11 -17 -11
-15 0 -16 -2 -3 -10 9 -6 19 -5 29 3 11 10 13 9 9 -3 -3 -9 -15 -14 -29 -13
-19 2 -21 1 -8 -7 19 -11 60 -2 57 14 -3 12 3 16 23 16 18 0 -10 -29 -44 -47
-22 -11 -32 -12 -37 -3 -5 8 -11 8 -21 -3 -9 -8 -31 -13 -57 -12 -23 1 -42 -2
-42 -8 0 -5 -12 -7 -27 -4 -15 3 -36 1 -46 -4 -9 -6 -17 -6 -16 -2 4 22 -3 25
-17 7 -15 -19 -16 -19 -10 1 5 17 4 18 -6 5 -18 -21 -71 -38 -101 -33 -14 3
-28 0 -32 -6 -4 -8 1 -10 17 -8 12 2 17 2 11 0 -7 -3 -13 -13 -13 -24 0 -21
-20 -27 -20 -6 -1 6 -10 1 -20 -12 -16 -18 -23 -21 -34 -12 -9 7 -17 8 -20 3
-3 -6 1 -13 10 -16 9 -3 12 -11 8 -18 -5 -8 -2 -9 10 -5 10 4 20 7 22 7 3 0 3
4 0 8 -2 4 -1 14 5 22 7 13 9 12 9 -2 0 -26 9 -22 43 17 16 19 35 35 41 35 6
0 4 -5 -4 -11 -11 -8 -12 -12 -2 -16 6 -2 12 -9 12 -15 0 -6 -6 -5 -15 2 -9 7
-19 9 -23 5 -4 -4 -1 -10 6 -12 10 -4 10 -8 1 -19 -10 -12 -8 -13 12 -7 44 15
74 9 71 -12 -3 -15 -1 -17 10 -9 18 14 50 26 44 16 -2 -4 -1 -14 3 -21 7 -11
13 -11 32 0 36 20 56 20 74 3 12 -12 19 -13 30 -4 15 12 46 10 57 -4 3 -5 14
-1 24 8 11 12 19 14 24 6 4 -6 14 -8 22 -5 9 4 19 1 23 -5 5 -8 11 -8 21 1 8
6 17 9 21 5 11 -10 -13 -28 -40 -29 -14 -1 -23 -7 -20 -14 3 -8 11 -8 29 2 14
7 34 11 45 8 28 -8 23 -12 -12 -11 -17 1 -35 -5 -39 -12 -5 -8 -28 -14 -54
-15 -25 0 -49 -5 -53 -9 -4 -5 4 -6 20 -4 31 6 33 0 12 -28 -13 -17 -14 -17
-15 -1 0 22 -16 22 -24 0 -8 -19 0 -28 32 -38 18 -5 22 -2 22 14 0 12 4 21 10
21 5 0 7 6 4 14 -3 8 3 16 15 19 18 4 20 2 15 -19 l-6 -24 46 26 c51 28 60 39
21 24 -14 -5 -25 -7 -25 -5 0 3 11 10 24 15 27 10 66 3 66 -12 0 -5 -9 -6 -21
-3 -18 6 -20 4 -14 -14 4 -12 2 -21 -4 -21 -6 0 -11 5 -11 11 0 6 -5 7 -12 2
-7 -4 -16 -8 -20 -9 -21 -4 -21 -7 2 -14 20 -7 15 -9 -22 -7 -26 0 -51 -3 -55
-7 -4 -4 -3 -7 2 -6 24 5 35 -1 35 -21 0 -15 -5 -19 -16 -15 -9 4 -13 2 -8 -5
4 -7 -1 -9 -12 -7 -11 2 -18 9 -17 15 3 14 -42 23 -59 12 -9 -6 -4 -9 15 -9
15 0 27 -5 27 -10 0 -13 -41 -30 -54 -22 -5 3 -6 0 -1 -7 4 -8 17 -10 31 -7
30 8 31 -2 2 -13 -17 -7 -7 -9 39 -9 40 0 68 5 80 15 17 14 17 14 -2 8 -15 -5
-17 -3 -8 6 14 14 36 2 29 -17 -9 -24 80 -15 106 11 17 16 29 20 48 14 25 -7
25 -7 2 -8 -28 -1 -64 -31 -37 -31 9 0 25 5 36 10 10 6 19 7 19 2 0 -14 54
-12 62 2 6 8 8 7 8 -1 0 -22 35 -14 60 12 13 14 28 25 34 25 6 0 3 -5 -7 -11
-26 -15 -21 -39 8 -39 14 0 25 6 25 13 0 9 2 9 8 -1 12 -18 238 -13 234 6 -3
16 25 27 41 15 6 -5 25 -10 42 -11 16 -1 34 -7 39 -12 6 -6 63 -10 129 -10
l118 0 -2 92 c-2 97 -6 107 -49 109 -14 0 -19 3 -12 6 6 2 10 9 6 14 -3 5 2 9
11 9 8 0 18 -7 21 -15 10 -25 21 -17 22 15 0 20 -4 30 -14 30 -8 0 -14 7 -14
16 0 10 6 14 15 10 13 -5 15 15 15 140 0 103 -3 143 -11 138 -8 -5 -8 -1 0 14
14 26 14 65 1 57 -6 -3 -10 -2 -10 4 0 5 4 13 10 16 6 4 10 1772 10 5196 l0
5189 -3680 0 -3680 0 0 -5164z m3773 4610 c48 -15 87 -31 87 -36 0 -4 -35 4
-77 18 -69 23 -94 26 -218 26 -125 0 -149 -3 -221 -27 -44 -15 -117 -49 -162
-76 -79 -47 -142 -76 -142 -65 0 21 149 111 235 144 157 58 345 64 498 16z
m-883 -327 c-12 -22 -43 -67 -69 -100 -27 -33 -70 -99 -97 -147 -38 -67 -50
-82 -52 -64 -4 27 34 113 79 179 29 43 147 173 156 173 2 0 -6 -18 -17 -41z
m-254 -462 c-31 -118 -40 -247 -29 -384 6 -70 9 -130 7 -132 -2 -2 -9 9 -16
25 -9 20 -13 85 -13 204 0 151 4 187 24 265 13 50 26 95 29 100 14 21 12 -24
-2 -78z m58 -779 c-3 -5 -1 -8 5 -8 12 0 46 -108 37 -117 -3 -4 -6 -1 -6 5 0
6 -11 35 -24 64 -13 29 -27 64 -31 78 -7 24 -7 24 8 5 8 -11 13 -23 11 -27z
m217 -861 c-10 -9 -11 -8 -5 6 3 10 9 15 12 12 3 -3 0 -11 -7 -18z m-357 -119
c-7 -27 -33 -58 -46 -58 -5 0 0 12 11 26 12 15 21 33 21 40 0 8 5 14 11 14 6
0 8 -9 3 -22z m965 -615 c-2 -140 -4 -180 -9 -138 -4 33 -8 119 -9 191 -1 115
2 144 16 144 2 0 2 -89 2 -197z m-1114 57 c-33 -33 -62 -55 -64 -49 -2 7 -10
-3 -17 -21 -8 -18 -17 -31 -20 -27 -14 14 75 147 99 147 6 0 -6 -18 -28 -40
-56 -57 -38 -59 21 -1 71 69 79 62 9 -9z m75 -14 c-14 -38 13 -40 76 -5 63 36
78 33 40 -8 l-26 -28 42 -6 c24 -3 32 -7 19 -7 -13 -1 -21 -5 -18 -9 8 -8 -15
-47 -51 -85 l-25 -27 48 3 c47 4 89 25 50 27 -16 0 -17 2 -5 7 8 4 26 14 40
24 14 9 43 16 65 16 22 -1 78 11 126 26 47 14 96 26 110 26 23 0 65 -19 44
-20 -5 0 1 -7 15 -15 19 -10 28 -11 39 -2 12 10 13 6 9 -21 -4 -29 -2 -32 16
-26 19 5 -55 -55 -100 -82 -10 -6 -14 -15 -10 -23 6 -8 11 -9 20 -2 7 6 15 8
18 5 8 -8 88 17 88 28 0 4 7 8 15 8 9 0 30 7 46 16 17 8 38 13 47 11 13 -3 9
-7 -13 -17 -29 -14 -29 -14 40 -20 61 -4 77 -10 121 -42 65 -48 80 -65 56 -65
-17 0 -42 20 -42 34 0 8 -61 53 -73 53 -9 0 4 -32 22 -54 19 -22 115 -66 145
-66 19 -1 20 -1 3 -11 -13 -8 -22 -7 -33 2 -19 16 -146 18 -151 3 -4 -13 -97
-8 -101 6 -2 5 -10 6 -18 3 -11 -4 -12 -8 -4 -13 8 -5 1 -12 -19 -21 -17 -8
-31 -16 -30 -19 1 -12 86 -66 97 -62 7 2 10 8 6 13 -3 5 0 9 6 9 8 0 8 6 0 20
-15 28 -2 25 58 -15 28 -20 62 -39 75 -44 48 -18 169 -103 160 -112 -10 -10
-93 21 -93 34 0 5 6 5 13 1 8 -5 8 -2 -2 9 -15 18 -26 23 -16 7 11 -17 -9 -11
-49 16 -28 19 -37 22 -33 11 5 -12 -2 -18 -29 -23 -19 -3 -37 -10 -40 -15 -10
-17 -23 -9 -39 22 -9 17 -19 29 -22 26 -9 -10 6 -42 34 -72 l28 -30 -33 -29
c-19 -17 -30 -22 -26 -12 4 9 1 16 -6 16 -9 0 -7 7 5 20 10 11 15 23 12 27 -4
3 -7 1 -7 -6 0 -9 -9 -11 -30 -6 -20 4 -30 3 -30 -5 0 -6 -4 -9 -9 -6 -5 3
-12 -1 -15 -10 -4 -9 6 -30 24 -52 16 -20 30 -41 30 -45 0 -5 -9 1 -20 14 -20
24 -20 24 -35 4 -9 -11 -18 -19 -20 -17 -3 1 -21 -4 -40 -13 -24 -9 -39 -24
-46 -45 -12 -34 -29 -31 -29 4 0 13 -8 34 -19 47 l-18 23 -12 -22 c-7 -12 -9
-27 -6 -33 4 -6 -6 -28 -21 -50 -21 -31 -25 -42 -15 -48 10 -6 9 -10 -4 -15
-26 -10 -37 -7 -28 7 4 6 13 39 19 72 7 33 19 96 28 140 8 44 15 101 16 128 0
26 4 47 9 47 11 0 36 88 27 97 -4 4 -21 2 -38 -5 -25 -9 -34 -9 -40 1 -5 8 -8
7 -8 -5 0 -10 -4 -18 -9 -18 -5 0 -11 -11 -13 -25 -3 -13 -2 -22 2 -20 5 3 10
-2 14 -10 7 -18 -18 -20 -31 -2 -5 6 -10 28 -12 47 -4 47 -7 48 -21 3 -15 -45
-35 -71 -25 -33 3 14 7 35 8 47 0 12 5 19 11 16 5 -4 7 3 4 15 -7 26 32 62 66
62 15 0 17 -3 8 -8 -17 -11 -4 -45 14 -38 8 3 14 0 14 -6 0 -7 4 -7 13 1 8 6
17 8 20 4 9 -8 67 53 67 71 0 8 6 17 13 19 7 4 6 6 -4 6 -9 1 -22 -6 -29 -14
-7 -8 -17 -15 -22 -15 -6 0 -6 6 1 14 15 17 0 28 -26 20 -16 -5 -17 -5 -1 6 9
6 15 17 12 24 -3 8 -1 17 5 21 7 4 8 0 4 -12 -6 -15 -5 -16 9 -3 19 18 5 30
-26 22 -20 -5 -20 -4 3 15 19 15 21 22 11 28 -8 5 -11 4 -6 -3 10 -16 -11 -25
-31 -13 -14 8 -15 10 -3 11 13 0 13 1 0 10 -18 11 -89 10 -96 -2 -3 -4 3 -8
13 -9 14 0 15 -2 3 -6 -31 -11 -42 -26 -28 -34 10 -7 10 -9 -2 -9 -8 0 -21 4
-29 9 -11 7 -9 11 9 21 17 9 19 14 10 23 -10 9 -14 9 -17 -1 -3 -7 -14 -22
-25 -32 -19 -17 -19 -20 -4 -35 23 -24 21 -48 -4 -40 -15 5 -18 3 -14 -8 3 -8
1 -18 -5 -22 -6 -3 -11 -14 -11 -25 0 -13 5 -17 20 -13 21 6 28 23 9 23 -6 0
-1 11 12 24 15 16 26 21 30 14 4 -6 0 -18 -8 -26 -14 -14 -13 -17 3 -29 15
-11 13 -17 -6 -15 -3 0 -7 -9 -7 -20 -2 -24 -2 -24 -33 -33 l-25 -7 22 16 c14
11 20 23 16 33 -6 14 -9 13 -24 -5 -17 -21 -17 -21 -23 16 -11 75 -12 108 -3
129 6 12 14 20 18 17 5 -3 6 2 3 11 -4 8 -1 22 6 30 50 60 -116 -25 -177 -91
-17 -19 -34 -34 -39 -34 -4 0 -14 -7 -23 -15 -32 -30 -118 -93 -150 -110 -41
-21 -51 -14 -14 10 15 10 38 26 49 37 21 19 21 21 6 60 -12 31 -13 44 -4 58 6
10 16 45 21 77 11 64 35 129 59 156 20 23 23 22 12 -7z m280 -1 c-7 -8 -17
-15 -22 -15 -6 0 -5 7 2 15 7 8 17 15 22 15 6 0 5 -7 -2 -15z m345 -95 c3 -5
1 -10 -4 -10 -6 0 -11 5 -11 10 0 6 2 10 4 10 3 0 8 -4 11 -10z m65 -69 c-8
-5 -26 -11 -40 -15 -21 -5 -20 -3 5 9 32 15 60 20 35 6z m327 -78 c-2 -16 -4
-3 -4 27 0 30 2 43 4 28 2 -16 2 -40 0 -55z m-707 42 c7 -9 19 -14 27 -11 8 3
11 1 8 -4 -10 -16 -30 -12 -50 10 -10 11 -13 20 -8 20 6 0 16 -7 23 -15z m310
10 c0 -9 -62 -36 -68 -30 -3 3 4 8 16 12 12 3 19 9 16 14 -3 5 4 9 15 9 12 0
21 -2 21 -5z m-135 -95 c3 -5 1 -10 -4 -10 -6 0 -11 5 -11 10 0 6 2 10 4 10 3
0 8 -4 11 -10z m-574 -33 c-1 -12 -15 -9 -19 4 -3 6 1 10 8 8 6 -3 11 -8 11
-12z m-71 -107 c0 -5 -5 -10 -11 -10 -5 0 -7 5 -4 10 3 6 8 10 11 10 2 0 4 -4
4 -10z m160 -60 c0 -5 -8 -10 -17 -10 -15 0 -16 2 -3 10 19 12 20 12 20 0z
m320 0 c0 -5 -2 -10 -4 -10 -3 0 -8 5 -11 10 -3 6 -1 10 4 10 6 0 11 -4 11
-10z m-21 -27 c0 -10 -4 -27 -9 -38 -7 -16 -9 -13 -9 18 -1 20 4 37 9 37 6 0
10 -8 9 -17z m-62 -75 c-3 -7 -5 -2 -5 12 0 14 2 19 5 13 2 -7 2 -19 0 -25z
m-357 -42 c0 -2 -8 -10 -17 -17 -16 -13 -17 -12 -4 4 13 16 21 21 21 13z m892
-28 c-7 -7 -12 -8 -12 -2 0 14 12 26 19 19 2 -3 -1 -11 -7 -17z m-142 -134
c-22 -26 -49 -36 -68 -25 -14 9 -12 10 14 11 19 0 34 6 38 15 3 8 11 15 17 15
8 0 8 -5 -1 -16z m-160 -133 c0 -11 -59 -33 -71 -25 -18 11 -8 23 24 27 17 2
35 5 40 5 4 1 7 -2 7 -7z m791 -313 c95 -49 127 -84 110 -117 -9 -17 -9 -26 4
-43 19 -28 19 -38 0 -38 -8 0 -15 6 -15 13 0 39 -91 63 -127 34 -31 -26 -43
-39 -52 -54 -8 -14 -12 -14 -43 5 -35 22 -35 22 -53 2 -15 -16 -18 -42 -21
-147 -2 -69 0 -131 5 -137 16 -21 19 -57 9 -93 -7 -27 -7 -48 3 -77 14 -47 22
-91 21 -123 0 -13 4 -23 9 -23 17 0 9 -29 -16 -54 -31 -31 -34 -51 -5 -36 12
6 17 17 14 28 -5 14 -4 15 5 2 12 -17 15 -43 3 -36 -4 2 -19 -4 -32 -15 -23
-17 -23 -19 -5 -19 15 0 17 -2 6 -9 -10 -7 -8 -12 10 -25 l24 -16 -18 -51
c-21 -58 -16 -71 16 -43 44 39 55 45 61 35 8 -12 -60 -90 -89 -102 -15 -6 -7
-8 30 -9 28 0 99 0 158 -1 59 0 126 2 147 6 33 6 39 4 35 -8 -4 -8 3 -29 13
-48 11 -19 25 -52 32 -74 17 -54 25 -61 44 -34 13 19 16 20 16 7 0 -10 -9 -22
-20 -28 -17 -9 -20 -21 -19 -83 0 -40 5 -94 10 -122 15 -72 18 -109 9 -120
-11 -14 -32 -105 -32 -135 0 -14 5 -48 9 -75 10 -55 3 -109 -11 -87 -4 7 -5
19 -2 27 3 8 1 15 -5 15 -23 0 -52 130 -62 277 -2 24 -1 41 2 38 2 -3 13 2 23
11 15 14 16 20 5 32 -10 13 -9 15 6 9 23 -8 23 16 0 39 -25 25 -45 66 -39 81
3 8 -2 13 -14 13 -17 0 -18 -6 -13 -73 4 -48 1 -81 -6 -96 -9 -16 -9 -26 -2
-35 6 -7 8 -16 4 -20 -8 -8 -13 -31 -15 -63 0 -13 -6 -23 -12 -24 -6 0 -19 -2
-29 -4 -18 -3 -22 7 -32 75 -3 19 -9 55 -14 80 -25 131 -25 125 4 138 15 7 25
15 22 18 -8 9 44 64 60 64 8 0 11 5 8 10 -3 6 -1 10 5 10 7 0 9 9 5 23 -5 16
-4 18 4 7 8 -12 13 -12 30 4 25 23 26 33 5 75 -28 57 -35 54 -175 -77 -67 -62
-64 -44 -62 -357 2 -173 4 -208 22 -255 11 -30 16 -56 12 -58 -4 -1 -4 -26 0
-55 4 -29 10 -101 13 -161 4 -59 9 -112 12 -117 2 -5 7 -39 9 -76 9 -140 16
-193 30 -227 17 -41 20 -92 5 -101 -7 -4 -10 -47 -8 -111 2 -85 6 -104 18
-104 12 0 12 -2 1 -9 -8 -5 -14 -31 -15 -75 0 -36 -5 -66 -10 -65 -16 2 -30
-33 -16 -41 10 -6 10 -14 -1 -39 -15 -34 -24 -38 -36 -18 -19 32 -41 26 -57
-17 -9 -23 -16 -47 -16 -54 0 -7 -6 -12 -13 -10 -7 2 -12 -1 -12 -7 0 -5 6 -9
13 -9 16 2 15 -6 -3 -20 -10 -8 -12 -15 -5 -26 8 -11 12 -12 18 -3 8 13 34 2
31 -13 -4 -22 2 -33 16 -28 21 8 20 -49 0 -66 -9 -7 -14 -19 -11 -27 3 -8 2
-11 -3 -8 -5 3 -12 1 -15 -4 -4 -5 2 -12 11 -14 10 -3 -4 -5 -32 -6 -27 -1
-113 -6 -189 -10 -136 -8 -441 0 -452 12 -3 3 -13 77 -21 164 -24 246 -6 699
42 1043 52 368 53 402 22 473 -14 31 -30 57 -36 57 -5 0 -19 -16 -31 -35 -19
-31 -21 -42 -13 -107 4 -40 7 -122 7 -183 -1 -97 -5 -120 -33 -194 -36 -96
-50 -197 -57 -391 -3 -74 -11 -173 -19 -220 -8 -47 -15 -116 -15 -155 0 -42
-6 -81 -15 -99 -8 -15 -15 -46 -15 -67 0 -21 -4 -40 -8 -43 -4 -2 -9 -19 -10
-38 -2 -18 -9 -43 -18 -55 -8 -13 -10 -23 -5 -23 6 0 8 -10 6 -22 -3 -12 0
-27 6 -35 7 -7 8 -13 3 -13 -5 0 0 -8 11 -16 18 -14 16 -15 -35 -8 -30 3 -66
13 -78 21 -21 13 -23 19 -16 51 5 21 9 246 9 502 l1 465 56 310 c31 171 64
370 73 443 17 148 38 212 94 299 41 63 134 140 230 188 64 32 83 50 100 90 11
30 5 59 -35 160 -6 16 -5 18 7 9 8 -5 27 -16 42 -22 23 -10 27 -10 21 0 -4 7
7 -3 25 -22 28 -32 32 -33 44 -18 12 15 15 15 37 -2 14 -10 27 -17 31 -14 3 2
9 -20 12 -49 4 -28 11 -53 17 -55 6 -2 8 -8 4 -13 -3 -5 -1 -9 4 -9 5 0 13 25
17 56 4 36 14 63 27 76 l21 21 -5 -27 c-5 -23 -3 -24 10 -14 13 11 15 10 8
-12 -3 -14 -9 -47 -13 -73 -4 -32 -9 -44 -14 -35 -6 9 -9 6 -9 -9 0 -17 6 -23
21 -23 16 0 20 5 16 19 -3 13 0 18 8 15 16 -7 26 19 14 37 -5 8 -9 35 -9 62 0
26 -4 47 -9 47 -5 0 -7 28 -5 63 4 66 0 67 -11 3 -5 -29 -9 -36 -16 -25 -6 10
-9 10 -9 2 0 -7 -7 -13 -15 -13 -8 0 -15 5 -15 10 0 6 -29 10 -68 10 -40 0
-73 5 -80 12 -10 10 -17 10 -33 0 -17 -11 -25 -10 -55 9 -39 24 -106 108 -124
154 -23 61 -24 194 -2 282 54 215 192 432 305 484 33 14 66 19 148 19 105 0
107 0 190 -42z m180 -184 c14 -17 9 -17 -25 -4 -14 5 -26 14 -26 19 0 13 37 2
51 -15z m-71 -1609 c0 -8 -2 -15 -4 -15 -2 0 -6 7 -10 15 -3 8 -1 15 4 15 6 0
10 -7 10 -15z m-3 -137 c-3 -8 -6 -5 -6 6 -1 11 2 17 5 13 3 -3 4 -12 1 -19z
m-87 -226 c0 -15 9 -81 21 -147 30 -175 32 -198 10 -125 -21 69 -52 312 -39
304 5 -3 8 -17 8 -32z m5 -1301 c17 -7 17 -8 -8 -13 -19 -4 -27 -1 -27 8 0 15
6 16 35 5z m-741 -108 c2 -32 7 -106 11 -164 4 -61 4 -109 -1 -112 -5 -3 -8
13 -6 36 3 42 3 42 -13 17 l-16 -25 6 30 c12 51 13 117 6 195 -8 70 -6 98 6
87 2 -3 6 -31 7 -64z m9 -308 c12 -6 23 -19 25 -30 3 -16 1 -17 -7 -5 -6 8
-18 15 -28 15 -13 0 -19 9 -20 30 -1 17 0 23 3 15 3 -9 15 -20 27 -25z m27
-100 c0 -2 -16 -22 -35 -45 -39 -47 -45 -39 -15 20 14 27 25 38 35 34 8 -4 15
-7 15 -9z m-82 -150 c-5 -22 -13 -62 -17 -90 -5 -36 -10 -45 -15 -33 -8 17 6
94 26 147 13 37 18 20 6 -24z m0 -367 c2 -101 1 -181 -1 -178 -3 3 -10 43 -16
89 -6 47 -18 95 -26 108 -9 13 -12 23 -7 23 4 0 8 16 8 36 0 32 -1 34 -14 17
-12 -16 -13 -16 -8 9 5 31 36 77 51 78 6 0 11 -70 13 -182z m42 157 c0 -16 -6
-25 -15 -25 -15 0 -21 31 -8 43 13 14 23 6 23 -18z m17 -7 c-3 -7 -5 -2 -5 12
0 14 2 19 5 13 2 -7 2 -19 0 -25z m570 -205 c-2 -21 -4 -4 -4 37 0 41 2 58 4
38 2 -21 2 -55 0 -75z m-3040 -349 c-3 -3 -12 -4 -19 -1 -8 3 -5 6 6 6 11 1
17 -2 13 -5z m333 -44 c11 -8 7 -9 -15 -4 -37 8 -45 14 -19 14 10 0 26 -5 34
-10z m5823 -14 c3 -8 0 -17 -8 -19 -11 -5 -13 6 -6 31 2 6 9 0 14 -12z m-5345
-41 c3 -3 -21 -5 -54 -5 -33 0 -54 4 -46 8 12 8 92 6 100 -3z m1657 -22 c-6
-40 -10 -49 -18 -36 -5 9 11 73 19 73 3 0 3 -17 -1 -37z m-1895 18 c0 -5 9
-13 20 -16 11 -4 17 -11 14 -17 -4 -7 -9 -6 -14 3 -7 10 -12 10 -26 -2 -15
-12 -16 -12 -11 6 6 17 2 20 -23 21 -17 1 -30 -3 -30 -7 0 -13 -48 -11 -56 2
-5 8 1 10 20 7 14 -3 26 -1 26 3 0 5 18 9 40 9 22 0 40 -4 40 -9z m5755 -9
c-3 -3 -11 0 -18 7 -9 10 -8 11 6 5 10 -3 15 -9 12 -12z m-5980 -2 c-3 -5 -10
-10 -16 -10 -5 0 -9 5 -9 10 0 6 7 10 16 10 8 0 12 -4 9 -10z m80 0 c3 -5 -2
-10 -11 -10 -10 0 -26 -8 -37 -17 -20 -18 -20 -18 -2 10 18 28 39 35 50 17z
m219 -5 c-4 -8 -11 -15 -16 -15 -6 0 -5 6 2 15 7 8 14 15 16 15 2 0 1 -7 -2
-15z m-337 -1 c-3 -3 -12 -4 -19 -1 -8 3 -5 6 6 6 11 1 17 -2 13 -5z m613 -13
c0 -5 -11 -11 -25 -13 -14 -3 -25 -3 -25 -1 0 3 34 19 48 22 1 1 2 -3 2 -8z
m90 -1 c0 -5 -5 -10 -11 -10 -5 0 -7 5 -4 10 3 6 8 10 11 10 2 0 4 -4 4 -10z
m90 6 c0 -2 -7 -7 -16 -10 -8 -3 -12 -2 -9 4 6 10 25 14 25 6z m4480 -10 c0
-2 -7 -7 -16 -10 -8 -3 -12 -2 -9 4 6 10 25 14 25 6z m-5238 -15 c-9 -5 8 -10
46 -14 32 -4 69 -11 83 -17 20 -9 17 -10 -18 -5 -45 5 -56 -6 -25 -25 14 -9
12 -10 -11 -5 -29 6 -61 -10 -52 -25 3 -4 -11 -8 -31 -8 -20 0 -41 -6 -45 -13
-7 -10 -11 -11 -16 -3 -5 7 -26 10 -50 8 -23 -2 -45 1 -48 6 -3 6 3 10 15 10
12 0 19 4 15 10 -3 5 -11 7 -19 4 -7 -3 -13 2 -13 11 0 18 2 18 28 4 14 -7 24
-7 33 0 7 6 15 9 17 7 2 -2 23 -7 46 -11 43 -6 103 14 103 35 0 14 -47 12 -56
-2 -4 -7 -3 -8 4 -4 7 4 12 3 12 -2 0 -17 -24 -19 -65 -6 -36 12 -37 13 -7 9
17 -2 32 0 32 5 0 6 -7 10 -15 10 -23 0 -18 18 8 23 38 7 42 7 29 -2z m1245 3
c-3 -3 -12 -4 -19 -1 -8 3 -5 6 6 6 11 1 17 -2 13 -5z m-1667 -26 c13 5 13 4
0 -9 -8 -9 -24 -18 -35 -22 -20 -7 -20 -7 -1 8 15 11 16 15 5 15 -8 0 -20 -5
-27 -12 -9 -9 -12 -9 -12 0 0 7 5 12 10 12 6 0 10 7 10 17 0 14 2 15 18 1 9
-9 24 -13 32 -10z m307 16 c-3 -3 -12 -4 -19 -1 -8 3 -5 6 6 6 11 1 17 -2 13
-5z m944 -5 c-20 -8 -22 -12 -11 -22 10 -9 13 -9 17 1 3 6 9 12 14 12 4 0 6
-6 3 -14 -4 -10 2 -12 23 -9 24 4 25 3 10 -7 -9 -6 -35 -12 -57 -12 -22 0 -43
-4 -46 -9 -3 -5 -21 -9 -40 -9 -37 0 -42 -6 -20 -24 23 -17 23 -38 1 -42 -45
-10 -84 -11 -79 -2 3 5 -5 6 -18 3 -52 -12 -158 -13 -158 -1 0 8 -2 8 -8 0 -4
-7 -15 -8 -27 -3 -13 5 -15 8 -5 8 8 1 28 12 44 26 29 25 56 33 56 17 0 -5
-10 -14 -22 -19 -22 -10 -21 -11 9 -10 18 0 31 5 30 10 -1 6 7 13 18 15 11 2
41 19 66 38 53 39 64 42 47 15 -6 -10 -16 -18 -22 -17 -6 2 -8 1 -3 -1 4 -3 5
-9 2 -14 -4 -5 1 -6 9 -3 8 3 17 12 20 20 6 16 56 20 56 4 0 -5 10 -10 23 -9
12 0 16 3 10 6 -7 2 -13 11 -13 19 0 11 4 12 19 4 32 -17 48 -11 23 8 -28 21
-24 26 20 29 30 1 31 1 9 -8z m-1333 -6 c-10 -2 -26 -2 -35 0 -10 3 -2 5 17 5
19 0 27 -2 18 -5z m202 -5 c0 -5 -6 -8 -14 -5 -7 3 -19 0 -25 -6 -8 -8 -11 -8
-11 2 0 7 -5 9 -12 4 -18 -11 -38 -13 -38 -3 0 12 19 17 63 18 20 0 37 -4 37
-10z m86 0 c5 -7 3 -8 -6 -3 -7 4 -16 2 -20 -5 -4 -6 -18 -10 -31 -8 l-24 5
25 11 c33 14 47 14 56 0z m789 2 c-3 -5 -16 -15 -28 -21 -19 -9 -19 -8 3 10
28 23 34 26 25 11z m3460 0 c-3 -5 -10 -10 -16 -10 -5 0 -9 5 -9 10 0 6 7 10
16 10 8 0 12 -4 9 -10z m45 0 c0 -5 -7 -10 -15 -10 -8 0 -15 5 -15 10 0 6 7
10 15 10 8 0 15 -4 15 -10z m26 -7 c-2 -10 2 -22 8 -26 7 -6 6 -7 -4 -4 -14 3
-21 23 -13 40 7 13 11 8 9 -10z m34 13 c0 -3 -4 -8 -10 -11 -5 -3 -10 -1 -10
4 0 6 5 11 10 11 6 0 10 -2 10 -4z m990 -11 c0 -12 -19 -12 -23 0 -4 9 -1 12
9 8 7 -3 14 -7 14 -8z m102 -9 c7 4 8 2 4 -5 -9 -14 -36 3 -36 23 0 6 5 3 11
-7 6 -9 15 -14 21 -11z m98 20 c0 -2 -7 -7 -16 -10 -8 -3 -12 -2 -9 4 6 10 25
14 25 6z m138 -10 c-7 -8 -15 -12 -17 -11 -5 6 10 25 20 25 5 0 4 -6 -3 -14z
m-5043 -6 c-3 -5 -11 -10 -16 -10 -6 0 -7 5 -4 10 3 6 11 10 16 10 6 0 7 -4 4
-10z m95 0 c0 -5 -19 -9 -42 -9 l-43 2 40 7 c22 4 41 8 43 9 1 0 2 -3 2 -9z
m3287 -2 c-9 -6 -8 -8 3 -8 10 0 11 -3 3 -11 -9 -9 -16 -8 -28 5 -19 19 -24
19 -45 6 -13 -9 -13 -11 0 -20 8 -5 29 -10 45 -11 17 0 24 -3 18 -6 -7 -2 -13
-14 -13 -25 0 -11 -8 -22 -20 -25 -26 -7 -26 -23 0 -18 25 5 59 24 43 25 -7 0
-13 8 -13 18 1 16 2 15 15 -2 12 -16 17 -17 30 -6 21 17 19 30 -5 30 -11 0
-20 5 -20 10 0 14 27 13 36 -1 4 -8 9 -7 16 2 7 10 11 11 14 2 3 -7 13 -9 22
-6 14 4 14 3 3 -5 -8 -6 -20 -8 -28 -5 -7 3 -13 0 -13 -7 0 -15 -18 -31 -55
-51 -18 -9 -29 -22 -27 -31 1 -9 -3 -20 -9 -24 -7 -4 -9 -3 -5 4 3 6 -4 20
-16 32 -23 21 -23 22 -4 36 15 10 16 14 5 14 -8 0 -24 7 -35 15 -19 15 -19 15
1 12 11 -1 26 -6 33 -10 6 -5 12 -4 12 2 0 6 -11 13 -25 17 -29 7 -34 41 -7
46 33 7 82 4 69 -4z m63 2 c0 -5 -5 -10 -11 -10 -5 0 -7 5 -4 10 3 6 8 10 11
10 2 0 4 -4 4 -10z m38 -21 c-3 -8 -7 -3 -11 10 -4 17 -3 21 5 13 5 -5 8 -16
6 -23z m257 12 c-3 -6 -11 -11 -17 -11 -6 0 -6 6 2 15 14 17 26 13 15 -4z
m-545 -5 c-7 -7 -13 -7 -20 0 -6 6 -3 10 10 10 13 0 16 -4 10 -10z m32 -6
c-12 -11 -27 -20 -34 -20 -7 0 1 9 17 20 38 25 45 25 17 0z m-1662 5 c0 -2
-10 -9 -22 -15 -22 -11 -22 -10 -4 4 21 17 26 19 26 11z m1989 -18 c-9 -7 -19
-19 -22 -27 -4 -9 -5 -4 -4 10 1 14 8 24 15 23 6 -2 12 2 12 9 0 6 3 8 7 4 5
-4 1 -13 -8 -19z m91 19 c0 -2 -7 -9 -15 -16 -12 -10 -15 -10 -15 4 0 9 7 16
15 16 8 0 15 -2 15 -4z m-4579 -15 c-11 -7 -10 -10 5 -14 16 -4 16 -5 -3 -6
-23 -1 -30 9 -16 22 3 4 11 7 17 7 6 0 5 -4 -3 -9z m144 1 c6 -4 11 -14 13
-22 2 -12 0 -12 -11 1 -7 9 -21 19 -32 22 -20 5 -20 5 0 6 11 0 25 -3 30 -7z
m930 -2 c-3 -5 -11 -10 -16 -10 -6 0 -7 5 -4 10 3 6 11 10 16 10 6 0 7 -4 4
-10z m1354 -26 c-15 -18 -16 -18 -21 11 -4 21 -3 23 14 14 15 -8 17 -13 7 -25z
m1562 13 c-10 -9 -11 -8 -5 6 3 10 9 15 12 12 3 -3 0 -11 -7 -18z m189 -2 c-8
-22 -6 -26 15 -31 14 -3 22 -10 20 -15 -7 -10 -37 0 -47 15 -5 8 -8 7 -8 -1 0
-17 38 -36 57 -29 13 5 14 4 3 -9 -7 -8 -16 -12 -21 -9 -5 3 -9 -2 -9 -10 0
-9 -5 -16 -10 -16 -7 0 -7 6 0 20 8 16 8 20 -4 20 -8 0 -16 5 -18 12 -3 9 -12
9 -37 -2 -29 -11 -34 -11 -49 5 -16 16 -16 17 4 4 18 -10 27 -9 55 7 19 11 34
27 34 35 0 11 13 28 22 29 1 0 -2 -11 -7 -25z m1890 21 c0 -2 -7 -7 -16 -10
-8 -3 -12 -2 -9 4 6 10 25 14 25 6z m-5405 -16 c4 -6 22 -8 43 -5 l37 6 -32
-17 c-18 -9 -30 -20 -27 -25 3 -5 0 -9 -5 -9 -6 0 -11 5 -11 11 0 6 -7 9 -15
5 -8 -3 -15 -1 -15 4 0 6 5 10 10 10 6 0 10 5 10 11 0 6 -9 8 -22 4 -18 -5
-20 -4 -8 4 19 14 27 14 35 1z m2585 6 c0 -3 -4 -8 -10 -11 -5 -3 -10 -1 -10
4 0 6 5 11 10 11 6 0 10 -2 10 -4z m420 0 c0 -3 -4 -8 -10 -11 -5 -3 -10 -1
-10 4 0 6 5 11 10 11 6 0 10 -2 10 -4z m198 -10 c-22 -16 -23 -30 -3 -22 8 3
15 1 15 -3 0 -19 -29 -19 -35 0 -4 10 -11 17 -16 14 -5 -4 -5 -14 1 -26 6 -10
7 -19 3 -20 -4 0 1 -5 12 -10 16 -7 13 -8 -11 -3 -22 3 -33 1 -37 -10 -4 -9 1
-16 11 -19 9 -2 0 -3 -20 -1 -21 2 -38 -1 -38 -6 0 -11 -32 -1 -42 14 -5 8 -8
7 -8 -1 0 -7 8 -17 18 -23 15 -10 14 -10 -5 -5 -17 5 -21 2 -19 -12 2 -10 1
-12 -1 -5 -3 8 -11 11 -18 8 -17 -6 -120 88 -111 103 4 6 12 11 17 11 6 0 7
-4 4 -10 -3 -5 -1 -10 5 -10 6 0 8 -5 4 -12 -5 -8 0 -7 11 2 12 10 20 11 22 4
6 -19 53 -4 53 18 0 10 5 16 10 13 6 -3 10 -2 10 4 0 7 8 7 24 1 13 -5 27 -6
30 -3 3 4 6 1 6 -6 0 -9 -8 -11 -26 -7 -18 5 -24 3 -18 -5 4 -7 3 -9 -3 -6 -6
4 -16 1 -22 -7 -9 -11 -7 -15 8 -19 11 -3 22 1 25 8 3 8 13 12 23 11 19 -4 54
11 64 26 3 5 16 10 29 13 12 2 25 7 28 10 3 3 8 5 11 5 3 0 -2 -7 -11 -14z
m716 -1 c-4 -8 -1 -15 7 -15 7 0 10 -2 7 -5 -3 -3 -13 -3 -22 1 -13 5 -14 9
-5 20 15 18 20 18 13 -1z m86 11 c0 -3 -4 -8 -10 -11 -5 -3 -10 -1 -10 4 0 6
5 11 10 11 6 0 10 -2 10 -4z m1190 -6 c0 -5 -5 -10 -11 -10 -5 0 -7 5 -4 10 3
6 8 10 11 10 2 0 4 -4 4 -10z m-5535 -10 c3 -5 1 -10 -4 -10 -6 0 -11 5 -11
10 0 6 2 10 4 10 3 0 8 -4 11 -10z m2160 -7 c-20 -15 -20 -15 3 -10 12 3 22 1
22 -5 0 -5 4 -7 9 -3 6 3 9 -17 8 -47 -2 -48 -4 -53 -24 -52 -73 2 -93 5 -93
14 0 5 6 7 14 4 7 -3 16 1 19 9 4 11 0 14 -16 11 -12 -2 -17 -2 -10 2 7 3 9
12 6 19 -4 11 -10 12 -25 4 -10 -6 -24 -8 -31 -5 -7 3 -3 8 10 11 14 5 20 12
16 23 -5 11 -2 14 9 10 9 -4 21 -1 27 5 8 8 11 8 11 -2 0 -7 5 -9 10 -6 6 4 8
10 5 15 -3 5 5 11 17 13 13 2 25 5 28 5 3 1 -4 -6 -15 -15z m1085 7 c-20 -13
-33 -13 -25 0 3 6 14 10 23 10 15 0 15 -2 2 -10z m441 -4 c-7 -9 -8 -17 -2
-20 5 -3 11 -1 13 6 3 7 10 8 17 4 9 -6 10 -11 2 -19 -7 -7 -18 -7 -36 3 -23
12 -23 14 -7 26 22 17 27 17 13 0z m894 4 c-3 -5 -12 -10 -18 -10 -7 0 -6 4 3
10 19 12 23 12 15 0z m1755 -6 c0 -2 -7 -4 -15 -4 -8 0 -15 4 -15 10 0 5 7 7
15 4 8 -4 15 -8 15 -10z m-6360 -4 c0 -5 -5 -10 -11 -10 -5 0 -7 5 -4 10 3 6
8 10 11 10 2 0 4 -4 4 -10z m1683 -1 c37 -1 34 -3 -23 -12 -47 -7 -60 -12 -45
-17 11 -4 24 -4 29 1 6 5 16 3 24 -3 10 -9 15 -9 21 1 5 7 11 12 15 12 18 -2
66 13 66 20 0 5 12 9 26 9 19 0 25 -4 21 -14 -4 -10 3 -16 21 -19 15 -2 1 -3
-31 -1 -59 3 -87 -2 -87 -15 0 -4 15 -6 33 -4 26 3 29 2 15 -7 -10 -6 -18 -16
-18 -23 0 -9 2 -9 8 0 10 16 52 12 52 -4 0 -14 26 -18 32 -4 2 4 14 11 28 15
18 5 21 5 10 -3 -12 -8 -12 -11 4 -17 11 -4 21 -2 27 7 5 9 9 10 9 2 0 -6 8
-14 18 -16 12 -3 10 -5 -8 -7 -14 -1 -28 -2 -32 -1 -5 0 -8 -4 -8 -9 0 -6 -12
-10 -26 -10 -16 0 -23 -4 -18 -11 9 -16 -15 -29 -51 -28 l-30 1 33 8 c51 12
49 18 -7 26 -28 3 -48 10 -45 15 3 5 -21 9 -53 9 -32 0 -105 4 -163 10 -58 5
-151 11 -207 12 -57 2 -103 5 -103 8 0 3 -22 3 -50 2 -37 -3 -50 0 -50 10 0
11 -2 11 -9 -1 -7 -10 -13 -11 -30 -2 -11 7 -21 8 -21 3 0 -17 -81 -8 -91 10
-13 23 7 33 27 13 10 -10 20 -12 28 -6 9 7 50 9 66 1 3 -1 25 -1 49 0 29 1 41
-2 37 -9 -8 -13 6 -15 20 -2 5 4 23 11 39 15 23 5 27 4 15 -4 -11 -9 -2 -10
38 -5 28 3 52 2 52 -2 0 -4 28 -6 62 -5 40 3 56 7 47 13 -10 6 -4 9 19 9 22 0
32 -5 32 -15 0 -8 4 -15 10 -15 5 0 7 7 4 15 -5 11 -2 13 10 9 9 -3 28 -3 44
2 l27 7 -30 7 c-28 7 -28 8 -5 9 14 1 32 6 40 11 8 5 21 8 28 5 8 -3 32 -6 55
-6z m1657 6 c0 -2 -10 -9 -22 -15 -22 -11 -22 -10 -4 4 21 17 26 19 26 11z
m291 -8 c-6 -8 -8 -17 -4 -21 4 -4 0 -4 -10 0 -17 6 -17 7 0 20 23 17 28 18
14 1z m144 3 c3 -6 -1 -7 -9 -4 -18 7 -21 14 -7 14 6 0 13 -4 16 -10z m-4400
-10 c-3 -5 -11 -10 -16 -10 -6 0 -7 5 -4 10 3 6 11 10 16 10 6 0 7 -4 4 -10z
m1299 1 c3 -5 -10 -16 -29 -25 -21 -10 -33 -22 -29 -28 5 -8 -6 -9 -36 -5 -29
4 -39 2 -29 -4 7 -5 9 -9 4 -9 -6 0 -17 6 -24 13 -11 10 -12 9 -6 -2 6 -11 4
-13 -11 -6 -10 4 -27 8 -36 9 -29 1 -10 13 24 15 18 2 41 3 51 4 9 1 17 5 17
9 0 4 10 8 23 8 35 0 67 11 61 21 -3 5 -1 9 5 9 5 0 12 -4 15 -9z m1986 -6
c-10 -12 -10 -15 1 -15 11 0 11 -2 -1 -10 -8 -5 -10 -10 -5 -10 6 0 3 -5 -5
-10 -11 -7 -12 -12 -3 -21 9 -9 14 -6 24 9 12 18 14 19 36 5 14 -10 23 -11 23
-4 0 6 5 11 11 11 6 0 8 -7 5 -16 -3 -8 -2 -12 4 -9 14 9 13 35 -2 35 -6 0 -8
3 -5 6 4 4 13 1 22 -6 13 -11 19 -9 38 6 12 11 27 26 34 34 6 8 15 12 19 7 4
-4 2 -7 -4 -7 -7 0 -12 -9 -12 -20 0 -11 -5 -20 -11 -20 -15 0 -43 -30 -35
-37 3 -4 12 2 20 12 11 16 17 17 29 7 14 -12 59 -4 58 11 -3 23 1 29 14 23 10
-4 15 1 15 15 0 11 4 18 8 15 18 -11 0 -64 -25 -75 -24 -11 -25 -13 -8 -25 15
-10 17 -22 12 -57 -3 -24 -1 -62 4 -84 20 -76 22 -97 10 -105 -19 -11 -165 -3
-169 9 -2 6 -8 9 -13 5 -5 -3 -9 2 -9 10 0 9 -4 16 -8 16 -9 0 -45 69 -56 105
-5 19 -1 21 60 23 50 3 64 0 58 -9 -4 -8 -3 -10 5 -5 6 4 8 12 5 18 -5 7 2 9
20 4 20 -5 26 -4 20 5 -5 8 1 10 19 7 20 -4 25 -1 24 14 -1 20 -12 24 -22 8
-4 -6 -11 -7 -17 -4 -6 4 -23 8 -37 9 -14 1 -25 7 -23 14 2 8 -3 9 -16 2 -23
-12 -132 -13 -132 0 0 5 6 9 13 9 20 0 53 27 44 37 -5 4 -14 0 -22 -10 -20
-28 -48 -11 -40 24 4 18 2 29 -4 29 -6 0 -11 4 -11 10 0 5 6 7 14 4 8 -3 17
-1 21 5 3 6 9 11 12 11 3 0 0 -7 -7 -15z m243 9 c3 -4 0 -13 -8 -20 -18 -18
-31 -18 -16 -1 6 8 8 17 4 20 -3 4 -2 7 4 7 5 0 12 -3 16 -6z m462 -4 c-3 -5
-12 -10 -18 -10 -7 0 -6 4 3 10 19 12 23 12 15 0z m471 1 c-3 -5 -15 -11 -26
-14 -17 -4 -19 -3 -9 9 12 15 44 20 35 5z m294 -1 c0 -5 -5 -10 -11 -10 -5 0
-7 5 -4 10 3 6 8 10 11 10 2 0 4 -4 4 -10z m1907 -9 c-1 -16 -4 -17 -15 -9
-10 9 -11 13 0 19 17 11 17 12 15 -10z m73 9 c0 -5 -2 -10 -4 -10 -3 0 -8 5
-11 10 -3 6 -1 10 4 10 6 0 11 -4 11 -10z m35 -8 c-3 -3 -11 0 -18 7 -9 10 -8
11 6 5 10 -3 15 -9 12 -12z m-5585 -2 c0 -5 -4 -10 -10 -10 -5 0 -10 5 -10 10
0 6 5 10 10 10 6 0 10 -4 10 -10z m3100 0 c0 -5 -5 -10 -11 -10 -5 0 -7 5 -4
10 3 6 8 10 11 10 2 0 4 -4 4 -10z m735 0 c3 -5 1 -10 -4 -10 -6 0 -11 5 -11
10 0 6 2 10 4 10 3 0 8 -4 11 -10z m2012 -12 c2 -17 0 -19 -7 -8 -5 8 -6 18
-4 22 8 12 10 10 11 -14z m-5917 8 c0 -2 -7 -7 -16 -10 -8 -3 -12 -2 -9 4 6
10 25 14 25 6z m2305 -6 c-3 -5 -11 -10 -16 -10 -6 0 -7 5 -4 10 3 6 11 10 16
10 6 0 7 -4 4 -10z m905 -10 c0 -5 -4 -12 -10 -15 -5 -3 -10 -4 -10 -1 0 2 -3
12 -6 20 -5 12 -2 15 10 10 9 -3 16 -10 16 -14z m460 16 c0 -3 -4 -8 -10 -11
-5 -3 -10 -1 -10 4 0 6 5 11 10 11 6 0 10 -2 10 -4z m30 -14 c-8 -3 -23 -11
-32 -20 -10 -8 -18 -12 -18 -8 0 13 45 44 54 38 6 -3 3 -8 -4 -10z m90 14 c0
-11 -19 -15 -25 -6 -3 5 1 10 9 10 9 0 16 -2 16 -4z m215 -6 c-3 -5 -12 -10
-18 -10 -7 0 -6 4 3 10 19 12 23 12 15 0z m1470 0 c3 -5 -1 -10 -10 -10 -9 0
-13 5 -10 10 3 6 8 10 10 10 2 0 7 -4 10 -10z m-3675 -35 c0 -24 -5 -35 -15
-35 -15 0 -22 50 -8 63 15 15 23 5 23 -28z m1324 16 c12 -13 14 -21 6 -26 -6
-3 -9 -1 -8 6 2 7 -4 14 -12 15 -28 2 -31 4 -25 14 9 15 20 12 39 -9z m512 12
c-4 -5 -13 -8 -19 -8 -7 -1 -11 -6 -10 -11 1 -6 -11 -8 -30 -5 -32 5 -32 6 -4
9 15 2 27 8 27 13 0 5 10 9 22 9 12 0 18 -3 14 -7z m836 -16 c-3 -13 2 -20 17
-24 20 -5 21 -6 4 -20 -13 -11 -11 -11 9 1 15 9 34 16 43 16 8 0 15 4 15 10 0
6 -9 6 -24 0 -15 -5 -27 -5 -35 3 -14 14 -15 30 -1 22 6 -3 10 -1 10 4 0 6 5
11 10 11 6 0 10 -7 10 -15 0 -17 16 -20 25 -5 5 8 11 7 21 -1 19 -16 84 -21
84 -7 0 6 3 8 7 5 3 -4 11 -3 17 2 7 5 18 2 28 -8 15 -15 14 -16 -15 -19 -18
-1 -49 -4 -70 -6 -23 -3 -35 -1 -32 4 9 14 -8 12 -39 -3 -14 -8 -23 -17 -19
-20 3 -4 -5 -8 -18 -9 -41 -2 -63 2 -70 14 -6 9 -11 9 -22 0 -7 -7 -16 -9 -20
-6 -3 3 -14 1 -26 -5 -13 -7 -22 -8 -26 -1 -10 16 -25 12 -19 -5 4 -9 0 -15
-10 -15 -9 0 -16 7 -16 15 0 11 -7 14 -27 10 l-28 -5 25 11 c14 6 37 11 52 10
16 -1 31 6 37 16 7 12 10 13 11 4 0 -8 6 -11 16 -7 8 3 12 2 9 -4 -12 -20 12
-9 33 14 14 17 17 26 9 29 -7 3 -3 5 9 4 15 -1 20 -6 16 -20z m163 13 c-3 -5
-11 -10 -16 -10 -6 0 -7 5 -4 10 3 6 11 10 16 10 6 0 7 -4 4 -10z m175 0 c0
-5 -5 -10 -11 -10 -5 0 -7 5 -4 10 3 6 8 10 11 10 2 0 4 -4 4 -10z m80 -1 c0
-4 -6 -11 -13 -17 -14 -12 -57 -5 -57 9 0 5 7 5 17 2 9 -4 14 -2 11 3 -4 5 5
9 18 9 13 0 24 -3 24 -6z m478 3 c9 9 15 9 24 0 7 -7 8 -12 3 -13 -6 0 -18 -2
-27 -4 -9 -2 -25 4 -35 12 -17 13 -17 13 3 4 15 -7 24 -7 32 1z m-6491 -8 c-3
-3 -12 -4 -19 -1 -8 3 -5 6 6 6 11 1 17 -2 13 -5z m83 -4 c0 -5 -5 -10 -11
-10 -5 0 -7 5 -4 10 3 6 8 10 11 10 2 0 4 -4 4 -10z m285 0 c-3 -5 -11 -10
-16 -10 -6 0 -7 5 -4 10 3 6 11 10 16 10 6 0 7 -4 4 -10z m275 2 c0 -4 -18 -7
-40 -7 -22 0 -40 3 -40 7 0 5 18 8 40 8 22 0 40 -3 40 -8z m1840 -6 c-6 -6
-18 -5 -32 2 -22 10 -21 10 9 9 19 -1 28 -6 23 -11z m628 -45 c31 -56 40 -91
25 -91 -17 0 -83 76 -83 96 0 27 10 54 19 54 3 0 21 -26 39 -59z m390 34 c-3
-3 -9 2 -12 12 -6 14 -5 15 5 6 7 -7 10 -15 7 -18z m853 12 c-6 -8 -9 -17 -6
-21 3 -3 0 -2 -6 3 -12 10 -4 31 13 31 7 0 7 -4 -1 -13z m1509 3 c0 -5 -2 -10
-4 -10 -3 0 -8 5 -11 10 -3 6 -1 10 4 10 6 0 11 -4 11 -10z m176 -17 c-10 -10
-19 5 -10 18 6 11 8 11 12 0 2 -7 1 -15 -2 -18z m64 16 c0 -3 -11 -6 -25 -6
-14 0 -25 3 -25 6 0 4 11 7 25 7 14 0 25 -3 25 -7z m80 7 c0 -2 -7 -7 -16 -10
-8 -3 -12 -2 -9 4 6 10 25 14 25 6z m70 -11 c0 -1 -15 -2 -32 -2 -26 -1 -29 1
-13 7 17 6 45 3 45 -5z m30 11 c0 -3 -4 -8 -10 -11 -5 -3 -10 -1 -10 4 0 6 5
11 10 11 6 0 10 -2 10 -4z m331 -19 c-10 -9 -11 -8 -5 6 3 10 9 15 12 12 3 -3
0 -11 -7 -18z m-1413 6 c-10 -2 -26 -2 -35 0 -10 3 -2 5 17 5 19 0 27 -2 18
-5z m277 -3 c3 -6 -1 -7 -9 -4 -18 7 -21 14 -7 14 6 0 13 -4 16 -10z m424 -4
c10 -12 8 -13 -8 -9 -12 3 -18 9 -15 14 7 12 10 11 23 -5z m1051 4 c0 -5 -4
-10 -10 -10 -5 0 -10 5 -10 10 0 6 5 10 10 10 6 0 10 -4 10 -10z m-6746 -12
c-3 -4 -16 -8 -29 -8 -13 0 -26 4 -29 8 -2 4 10 8 29 8 19 0 31 -4 29 -8z m96
2 c11 -7 7 -10 -18 -10 -20 0 -31 4 -27 10 8 13 26 13 45 0z m420 0 c-20 -13
-43 -13 -35 0 3 6 16 10 28 10 18 0 19 -2 7 -10z m1940 -6 c16 -3 33 -10 36
-16 5 -8 -3 -9 -25 -5 -18 4 -30 3 -27 -2 6 -9 -43 -35 -51 -27 -2 2 -18 0
-34 -4 -17 -5 -29 -5 -29 0 0 5 22 12 48 16 32 4 49 11 49 20 0 8 -7 14 -16
14 -9 0 -23 5 -31 11 -15 10 -4 9 80 -7z m1637 10 c-3 -3 -12 -4 -19 -1 -8 3
-5 6 6 6 11 1 17 -2 13 -5z m1080 0 c-3 -3 -12 -4 -19 -1 -8 3 -5 6 6 6 11 1
17 -2 13 -5z m40 0 c-3 -3 -12 -4 -19 -1 -8 3 -5 6 6 6 11 1 17 -2 13 -5z
m-4040 -10 c-3 -3 -12 -4 -19 -1 -8 3 -5 6 6 6 11 1 17 -2 13 -5z m3921 -10
c5 3 16 -2 23 -11 13 -15 11 -16 -18 -10 -31 6 -32 6 -16 -12 9 -11 21 -17 28
-15 25 10 10 -23 -17 -39 -16 -9 -26 -12 -23 -7 3 6 -1 10 -9 10 -18 0 -19 2
-10 24 3 9 12 12 22 8 15 -5 15 -4 3 11 -9 11 -22 15 -40 12 -25 -5 -25 -5 -3
5 12 5 25 17 29 26 4 11 8 12 13 4 4 -7 12 -10 18 -6z m-4050 -22 c18 -6 30
-7 27 -2 -4 6 -1 10 4 10 6 0 11 -10 11 -22 0 -13 4 -18 8 -12 4 6 16 14 27
18 16 6 17 9 5 17 -12 9 -12 10 3 5 10 -3 23 -6 28 -6 5 0 4 -9 -3 -20 -7 -11
-17 -18 -23 -16 -6 2 -19 -8 -29 -21 l-19 -25 42 4 c22 2 41 2 41 1 0 -2 -16
-9 -36 -18 -19 -8 -33 -18 -31 -22 3 -5 -30 -9 -74 -11 -66 -2 -77 0 -73 13 5
12 2 12 -25 -1 -23 -11 -35 -13 -48 -4 -13 8 -14 10 -3 9 8 -1 26 3 40 8 30
13 59 43 41 43 -6 0 -11 7 -11 15 0 15 -11 19 -39 16 -7 -2 -10 3 -6 9 3 6 12
10 18 9 12 -2 41 7 67 20 8 5 17 5 20 1 3 -4 20 -12 38 -18z m185 21 c4 -3 2
-12 -3 -19 -14 -16 -50 -6 -43 12 5 14 35 19 46 7z m112 -9 c26 3 53 2 61 -1
17 -6 19 -24 3 -21 -6 2 -14 -3 -16 -10 -3 -8 1 -10 11 -6 11 4 16 0 16 -13 0
-16 5 -19 31 -15 26 4 29 6 15 14 -26 14 -19 31 10 24 17 -5 23 -3 19 4 -3 5
-1 10 4 10 6 0 11 -5 11 -11 0 -5 5 -7 10 -4 6 3 10 2 10 -4 0 -5 -8 -15 -17
-20 -10 -6 -13 -11 -7 -11 6 0 21 11 34 25 23 25 60 34 60 15 0 -9 -14 -14
-32 -11 -5 0 -8 -4 -8 -10 0 -7 9 -9 23 -5 14 3 36 -2 56 -15 17 -10 36 -17
42 -14 5 4 9 1 9 -4 0 -6 -7 -11 -15 -11 -21 0 -19 -38 3 -43 12 -3 11 -5 -6
-6 -12 0 -33 -8 -46 -16 -22 -15 -79 -18 -70 -3 3 4 20 10 39 14 19 3 35 11
35 16 0 9 -27 6 -62 -7 -9 -4 -15 0 -15 10 0 8 8 15 17 15 27 0 41 21 24 37
-7 8 -19 11 -25 7 -8 -5 -8 -9 1 -14 9 -5 9 -9 1 -14 -6 -4 -11 -4 -11 1 -1
24 -18 35 -39 24 -25 -14 -29 -44 -4 -34 11 4 14 3 9 -6 -4 -6 -13 -11 -19
-10 -7 1 -19 1 -27 0 -12 -1 -12 -4 3 -12 9 -5 20 -8 25 -6 4 3 12 0 18 -7 8
-9 -5 -12 -55 -13 -83 -2 -111 3 -111 22 0 14 11 19 38 16 6 -1 12 3 12 8 0 5
-22 10 -50 9 -27 0 -50 -4 -50 -10 0 -5 9 -7 19 -3 14 4 19 1 17 -9 -4 -25
-14 -29 -31 -12 -11 11 -22 13 -33 7 -9 -4 -38 -9 -64 -10 -42 -1 -46 1 -41
20 4 15 12 20 29 16 13 -2 21 0 18 4 -3 5 6 9 20 9 14 0 26 5 26 11 0 7 -14
10 -36 7 -32 -4 -34 -3 -18 9 10 7 26 10 37 7 26 -8 89 5 81 17 -4 6 -11 6
-20 -2 -12 -10 -18 -9 -32 4 -15 16 -15 17 8 17 22 1 23 2 7 11 -9 5 -22 7
-27 4 -6 -3 -10 1 -10 10 0 12 4 14 20 5 10 -6 40 -8 65 -6z m2020 6 c-3 -5
-12 -10 -18 -10 -7 0 -6 4 3 10 19 12 23 12 15 0z m1640 -6 c-15 -11 -17 -17
-7 -23 9 -6 8 -12 -7 -25 -12 -11 -21 -14 -26 -7 -3 6 1 14 9 17 9 3 13 10 10
15 -7 12 14 39 30 39 6 0 2 -7 -9 -16z m-540 -4 c-3 -5 -10 -10 -16 -10 -5 0
-9 5 -9 10 0 6 7 10 16 10 8 0 12 -4 9 -10z m-4378 -15 c0 -8 -4 -15 -9 -15
-4 0 -8 4 -8 10 0 5 -7 7 -15 4 -8 -4 -15 -1 -15 5 0 6 11 11 23 11 14 0 24
-6 24 -15z m178 5 c-3 -5 -18 -10 -33 -9 l-27 1 25 8 c35 11 42 11 35 0z
m1625 0 c10 -6 -1 -8 -34 -5 -27 3 -52 7 -54 10 -10 9 73 5 88 -5z m45 0 c-3
-5 -11 -10 -16 -10 -6 0 -7 5 -4 10 3 6 11 10 16 10 6 0 7 -4 4 -10z m2800 -9
c-3 -6 -11 -11 -16 -11 -5 0 -4 6 3 14 14 16 24 13 13 -3z m218 -8 c-7 -3 -13
-13 -13 -23 0 -21 -32 -31 -110 -34 -30 -1 -64 -6 -75 -10 -18 -7 -18 -7 -2 4
17 11 17 13 -3 30 -20 17 -15 31 13 36 4 1 9 3 12 4 13 6 63 4 58 -2 -2 -5 1
-8 6 -8 6 0 11 -4 11 -10 0 -5 -7 -10 -16 -10 -8 0 -12 5 -9 10 8 13 -8 13
-22 -1 -8 -8 -17 -8 -32 0 -23 13 -28 6 -8 -13 19 -20 133 -15 154 7 10 9 12
17 6 17 -7 0 -15 -5 -18 -11 -4 -6 -13 -8 -21 -5 -8 3 -14 1 -14 -4 0 -6 -4
-10 -10 -10 -5 0 -7 7 -3 16 3 8 12 13 19 10 7 -3 16 -1 20 5 10 17 48 28 59
17 7 -7 6 -12 -2 -15z m-4080 10 c-7 -2 -19 -2 -25 0 -7 3 -2 5 12 5 14 0 19
-2 13 -5z m377 -8 c0 -8 -6 -15 -14 -15 -8 0 -23 -3 -33 -6 -13 -4 -11 0 7 15
30 25 40 26 40 6z m800 3 c0 -4 -13 -6 -29 -5 -16 1 -27 5 -25 8 5 9 54 6 54
-3z m89 1 c-18 -11 -66 -12 -73 0 -4 5 15 9 41 9 31 0 42 -3 32 -9z m2168 5
c-3 -3 -12 -4 -19 -1 -8 3 -5 6 6 6 11 1 17 -2 13 -5z m-4454 -11 c-7 -2 -19
-2 -25 0 -7 3 -2 5 12 5 14 0 19 -2 13 -5z m1327 -9 c0 -8 -5 -12 -10 -9 -6 4
-8 11 -5 16 9 14 15 11 15 -7z m460 6 c0 -5 -7 -10 -16 -10 -8 0 -12 5 -9 10
3 6 10 10 16 10 5 0 9 -4 9 -10z m69 -15 c6 3 11 1 11 -4 0 -6 -6 -11 -14 -11
-8 0 -21 -2 -29 -5 -8 -4 -14 0 -14 10 0 8 4 15 9 15 5 0 6 6 3 13 -4 6 0 4 9
-7 8 -10 19 -15 25 -11z m2798 19 c-3 -3 -12 -4 -19 -1 -8 3 -5 6 6 6 11 1 17
-2 13 -5z m1393 2 c0 -3 -4 -8 -10 -11 -5 -3 -10 -1 -10 4 0 6 5 11 10 11 6 0
10 -2 10 -4z m45 -6 c3 -5 1 -10 -4 -10 -6 0 -11 5 -11 10 0 6 2 10 4 10 3 0
8 -4 11 -10z m-5605 -4 c0 -9 -30 -14 -35 -6 -4 6 3 10 14 10 12 0 21 -2 21
-4z m1648 -29 c12 -3 22 -1 22 4 0 5 8 9 18 9 26 0 23 -30 -2 -31 -21 0 -21
-1 -1 -9 19 -8 18 -9 -4 -9 -13 -1 -30 7 -37 17 -12 15 -13 15 -8 0 4 -13 0
-16 -20 -14 -14 2 -26 -1 -26 -7 0 -6 -3 -7 -7 -3 -4 4 3 16 16 25 l24 19 -23
7 c-17 5 -19 9 -9 15 7 5 17 3 23 -4 6 -8 21 -16 34 -19z m3034 3 c-11 -12
-28 -20 -39 -18 -15 3 -12 8 17 26 40 25 50 22 22 -8z m264 15 c-8 -8 -20 -15
-27 -15 -9 0 -8 4 1 15 7 8 19 15 27 15 12 0 12 -2 -1 -15z m-5334 -17 c-6 -6
-15 -8 -19 -4 -4 4 -1 11 7 16 19 12 27 3 12 -12z m1942 5 c3 -8 11 -11 18 -7
10 5 10 4 2 -5 -10 -10 -17 -10 -35 0 -13 7 -46 12 -74 11 -36 -1 -43 1 -25 7
43 12 109 9 114 -6z m2806 7 c0 -5 -7 -10 -16 -10 -8 0 -12 5 -9 10 3 6 10 10
16 10 5 0 9 -4 9 -10z m-3750 -19 c0 -7 -43 -31 -55 -31 -2 0 6 11 18 24 20
23 37 26 37 7z m-917 2 c-7 -2 -19 -2 -25 0 -7 3 -2 5 12 5 14 0 19 -2 13 -5z
m207 3 c0 -2 -7 -6 -15 -10 -8 -3 -15 -1 -15 4 0 6 7 10 15 10 8 0 15 -2 15
-4z m1886 -11 c13 -12 12 -15 -5 -25 -29 -15 -38 -12 -15 5 23 17 19 18 -23 6
-25 -7 -31 -6 -27 4 3 8 15 16 27 18 12 2 23 5 25 6 2 0 10 -6 18 -14z m3814
5 c0 -5 -2 -10 -4 -10 -3 0 -8 5 -11 10 -3 6 -1 10 4 10 6 0 11 -4 11 -10z
m-4200 -8 c0 -14 -11 -21 -26 -15 -21 8 -17 23 6 23 11 0 20 -4 20 -8z m455
-4 c3 -3 -3 -8 -14 -11 -11 -3 -22 1 -25 9 -4 9 1 13 14 11 11 -2 22 -6 25 -9z
m3976 -3 c16 -1 41 -3 57 -4 l27 -3 -25 -7 c-14 -4 -28 -3 -32 3 -4 6 -12 5
-23 -4 -14 -11 -18 -11 -25 -1 -4 8 -13 10 -19 7 -6 -4 -11 0 -11 9 0 10 5 13
11 9 7 -4 25 -8 40 -9z m869 5 c0 -5 -5 -10 -11 -10 -5 0 -7 5 -4 10 3 6 8 10
11 10 2 0 4 -4 4 -10z m-6758 -7 c-6 -3 -9 -10 -5 -16 4 -7 -1 -6 -10 2 -21
17 -21 17 6 18 12 0 16 -1 9 -4z m1263 -3 c3 -6 -1 -7 -9 -4 -18 7 -21 14 -7
14 6 0 13 -4 16 -10z m235 -19 c-6 -12 -8 -25 -6 -30 3 -5 0 -11 -8 -14 -8 -3
-17 0 -20 8 -3 8 -13 11 -25 8 -14 -4 -21 -1 -21 10 0 9 14 17 40 21 22 3 40
11 40 18 0 6 3 9 6 6 3 -4 1 -16 -6 -27z m2883 9 c-3 -11 -9 -17 -15 -14 -5 3
-4 12 3 20 16 19 18 18 12 -6z m1642 -2 c6 -4 -3 -8 -18 -8 -23 0 -26 2 -15
14 7 8 15 11 18 8 3 -4 10 -10 15 -14z m-5975 8 c0 -2 -7 -7 -16 -10 -8 -3
-12 -2 -9 4 6 10 25 14 25 6z m1568 -7 c-2 -6 -7 -10 -11 -10 -4 1 -15 1 -24
2 -15 0 -15 2 2 9 28 12 37 12 33 -1z m2820 -1 c-2 -8 8 -13 24 -13 14 1 24
-3 22 -7 -3 -4 -20 -7 -39 -5 -28 2 -32 5 -24 20 11 20 20 23 17 5z m142 2 c0
-5 -7 -6 -17 -3 -10 4 -14 2 -10 -4 4 -6 0 -14 -9 -17 -26 -10 -28 -7 -9 14
19 21 45 27 45 10z m101 1 c-8 -5 -20 -7 -28 -4 -21 8 -15 13 15 13 20 0 23
-3 13 -9z m1624 -21 c8 0 15 -4 15 -10 0 -16 -37 -11 -44 6 -10 25 -6 41 5 22
5 -10 17 -18 24 -18z m105 15 c0 -8 5 -15 11 -15 5 0 7 5 4 10 -3 6 -2 10 4
10 5 0 8 -12 7 -27 -2 -16 -7 -26 -12 -23 -5 3 -8 8 -6 13 1 4 -5 7 -13 7 -8
0 -15 5 -15 10 0 6 -3 9 -7 9 -5 -1 -17 0 -28 1 -17 2 -17 3 5 10 39 12 50 11
50 -5z m120 5 c0 -5 -5 -10 -11 -10 -5 0 -7 5 -4 10 3 6 8 10 11 10 2 0 4 -4
4 -10z m-2185 -9 c3 -5 2 -12 -3 -15 -5 -3 -9 1 -9 9 0 17 3 19 12 6z m1842 3
c-3 -3 -12 -4 -19 -1 -8 3 -5 6 6 6 11 1 17 -2 13 -5z m72 -20 c3 -16 1 -16
-12 -5 -9 7 -26 10 -39 6 -22 -6 -22 -5 -5 9 24 19 51 14 56 -10z m338 6 c13
0 12 -2 -1 -15 -8 -9 -14 -21 -13 -28 2 -7 -1 -2 -7 11 -6 12 -16 20 -23 18
-7 -3 -15 0 -19 6 -4 6 -3 8 4 4 6 -3 17 0 24 8 7 8 15 10 16 5 2 -5 10 -9 19
-9z m166 0 c9 -11 13 -20 7 -20 -5 0 -14 9 -20 20 -6 11 -9 20 -8 20 2 0 11
-9 21 -20z m-6200 3 c-7 -2 -19 -2 -25 0 -7 3 -2 5 12 5 14 0 19 -2 13 -5z
m962 -3 c-3 -5 -1 -10 6 -10 7 0 10 -3 6 -6 -9 -9 -28 6 -22 17 4 5 8 9 11 9
3 0 2 -4 -1 -10z m3205 6 c0 -2 -7 -7 -16 -10 -8 -3 -12 -2 -9 4 6 10 25 14
25 6z m1226 -5 c-4 -5 -1 -12 4 -14 6 -3 5 -4 -2 -3 -15 3 -23 26 -8 26 6 0 9
-4 6 -9z m554 -1 c8 -5 11 -10 5 -10 -5 0 -17 5 -25 10 -8 5 -10 10 -5 10 6 0
17 -5 25 -10z m-6420 -4 c0 -2 -7 -7 -16 -10 -8 -3 -12 -2 -9 4 6 10 25 14 25
6z m790 -6 c0 -5 -5 -10 -11 -10 -5 0 -7 5 -4 10 3 6 8 10 11 10 2 0 4 -4 4
-10z m1470 -2 c0 -5 -21 -8 -46 -8 -25 0 -43 3 -40 8 2 4 23 7 45 7 23 0 41
-3 41 -7z m85 2 c3 -5 2 -10 -4 -10 -5 0 -13 5 -16 10 -3 6 -2 10 4 10 5 0 13
-4 16 -10z m3450 0 c3 -6 -1 -7 -9 -4 -18 7 -21 14 -7 14 6 0 13 -4 16 -10z
m-6330 -10 c-3 -5 -12 -10 -18 -10 -7 0 -6 4 3 10 19 12 23 12 15 0z m6963 -9
c2 -5 11 -7 20 -4 14 5 13 3 -2 -9 -25 -20 -67 -12 -58 11 5 13 3 14 -9 4 -13
-10 -16 -10 -16 2 0 12 8 14 31 11 17 -3 32 -9 34 -15z m152 9 c8 -5 12 -11
10 -14 -3 -2 -14 2 -24 10 -22 15 -10 19 14 4z m-5035 -10 c-3 -5 -12 -10 -18
-10 -7 0 -6 4 3 10 19 12 23 12 15 0z m4203 -2 c-3 -12 41 -16 59 -5 6 4 13 1
16 -7 7 -18 -17 -28 -32 -13 -8 8 -16 6 -31 -8 -11 -10 -21 -16 -21 -14 -7 24
-6 59 2 59 5 0 8 -5 7 -12z m899 6 c-3 -3 -12 -4 -19 -1 -8 3 -5 6 6 6 11 1
17 -2 13 -5z m-5342 -14 c-3 -5 -14 -10 -23 -10 -15 0 -15 2 -2 10 20 13 33
13 25 0z m352 -10 c18 0 33 -4 33 -10 0 -11 -2 -12 -49 -16 -20 -1 -29 1 -22
6 8 4 9 10 3 14 -5 3 -15 -1 -21 -8 -10 -11 -8 -17 6 -24 27 -15 13 -22 -27
-12 -19 4 -31 8 -26 9 6 1 1 7 -9 15 -10 7 -27 11 -37 8 -10 -2 -18 1 -18 7 0
14 47 15 55 1 5 -8 11 -7 21 1 8 6 14 8 14 3 0 -5 5 -1 11 9 8 14 14 16 22 8
6 -6 26 -11 44 -11z m133 10 c-8 -5 -19 -10 -25 -10 -5 0 -3 5 5 10 8 5 20 10
25 10 6 0 3 -5 -5 -10z m4061 -3 c-1 -4 -1 -14 -1 -22 0 -8 -4 -15 -9 -15 -5
0 -8 11 -8 25 0 14 4 24 9 23 5 -2 9 -7 9 -11z m-4004 -3 c-3 -3 -12 -4 -19
-1 -8 3 -5 6 6 6 11 1 17 -2 13 -5z m4778 -4 c3 -5 -1 -10 -9 -10 -9 0 -16 5
-16 10 0 6 4 10 9 10 6 0 13 -4 16 -10z m-4688 -6 c-3 -3 -12 -4 -19 -1 -8 3
-5 6 6 6 11 1 17 -2 13 -5z m3693 -4 c0 -5 -7 -10 -15 -10 -8 0 -15 -4 -15
-10 0 -5 -15 -10 -32 -10 -30 0 -31 1 -13 14 17 12 42 21 68 25 4 0 7 -3 7 -9z
m90 0 c0 -5 -6 -7 -14 -4 -7 3 -16 -2 -19 -10 -5 -11 -18 -16 -44 -14 -37 1
-37 1 -5 5 17 2 32 9 32 14 0 6 -4 7 -10 4 -5 -3 -10 -1 -10 4 0 6 16 11 35
11 19 0 35 -4 35 -10z m621 -4 c-9 -11 -9 -15 1 -20 7 -3 4 -4 -7 -3 -12 1
-19 -3 -17 -10 1 -7 -5 -13 -15 -13 -15 0 -15 1 0 18 10 10 14 22 10 27 -5 4
-3 5 4 1 6 -3 14 -2 18 4 3 5 9 10 12 10 3 0 0 -6 -6 -14z m142 -7 c4 -3 -1
-15 -12 -28 -11 -12 -22 -18 -25 -12 -4 5 -1 13 5 16 5 4 8 13 5 20 -5 15 4
29 13 18 3 -4 9 -10 14 -14z m-5013 1 c0 -5 -5 -10 -11 -10 -5 0 -7 5 -4 10 3
6 8 10 11 10 2 0 4 -4 4 -10z m257 4 c-3 -3 -12 -4 -19 -1 -8 3 -5 6 6 6 11 1
17 -2 13 -5z m4063 2 c0 -3 -4 -8 -10 -11 -5 -3 -10 -1 -10 4 0 6 5 11 10 11
6 0 10 -2 10 -4z m310 -10 c0 -8 -4 -17 -8 -20 -4 -2 -8 4 -8 15 0 10 4 19 8
19 4 0 8 -6 8 -14z m462 -3 c-10 -4 -10 -8 -1 -19 9 -11 8 -14 -4 -14 -9 0
-15 -6 -13 -12 1 -7 1 -10 -1 -5 -11 18 -23 5 -17 -18 4 -15 2 -25 -5 -25 -6
0 -8 7 -5 15 4 10 0 15 -12 15 -18 1 -18 1 -1 11 9 6 15 15 11 21 -4 6 -10 5
-15 -3 -6 -10 -9 -10 -9 -2 0 19 20 26 35 13 8 -7 16 -10 16 -6 1 3 2 9 3 14
3 16 18 33 25 26 3 -4 0 -9 -7 -11z m-4202 -3 c0 -5 -12 -10 -27 -9 -25 0 -26
1 -8 9 27 12 35 12 35 0z m1590 0 c0 -5 -4 -10 -10 -10 -5 0 -10 5 -10 10 0 6
5 10 10 10 6 0 10 -4 10 -10z m1465 0 c3 -5 1 -10 -4 -10 -6 0 -11 5 -11 10 0
6 2 10 4 10 3 0 8 -4 11 -10z m70 0 c3 -5 -1 -10 -10 -10 -9 0 -13 5 -10 10 3
6 8 10 10 10 2 0 7 -4 10 -10z m665 0 c0 -5 -7 -10 -16 -10 -8 0 -12 5 -9 10
3 6 10 10 16 10 5 0 9 -4 9 -10z m-3993 -6 c-3 -3 -12 -4 -19 -1 -8 3 -5 6 6
6 11 1 17 -2 13 -5z m143 -4 c0 -5 -10 -10 -22 -10 -19 0 -20 2 -8 10 19 13
30 13 30 0z m3427 4 c-3 -3 -12 -4 -19 -1 -8 3 -5 6 6 6 11 1 17 -2 13 -5z
m148 -4 c-3 -5 -12 -10 -18 -10 -7 0 -6 4 3 10 19 12 23 12 15 0z m-4182 -15
c-1 -5 -7 -11 -14 -14 -6 -2 -9 1 -5 7 3 6 -2 13 -11 16 -11 3 -8 4 7 3 14 -1
24 -6 23 -12z m227 11 c0 -3 -4 -8 -10 -11 -5 -3 -10 -1 -10 4 0 6 5 11 10 11
6 0 10 -2 10 -4z m1640 0 c0 -3 -4 -8 -10 -11 -5 -3 -10 -1 -10 4 0 6 5 11 10
11 6 0 10 -2 10 -4z m2713 -39 c-7 -5 -11 -12 -9 -16 3 -4 -10 -7 -27 -8 -21
0 -24 1 -9 4 17 3 21 9 17 24 -10 30 4 43 25 22 14 -15 15 -19 3 -26z m357 22
c0 -6 -4 -7 -10 -4 -5 3 -10 11 -10 16 0 6 5 7 10 4 6 -3 10 -11 10 -16z
m-4440 1 c0 -5 -5 -10 -11 -10 -5 0 -7 5 -4 10 3 6 8 10 11 10 2 0 4 -4 4 -10z
m3955 0 c-3 -5 -10 -10 -16 -10 -5 0 -9 5 -9 10 0 6 7 10 16 10 8 0 12 -4 9
-10z m61 -6 c-9 -8 -21 -12 -28 -8 -8 5 -6 10 8 15 31 12 37 10 20 -7z m178
-24 c-3 -2 -9 1 -13 8 -4 7 -15 10 -24 6 -9 -3 -17 -1 -17 4 0 17 34 19 47 2
6 -8 9 -17 7 -20z m-5416 20 c41 -1 44 -2 27 -12 -24 -15 -38 -18 -90 -23
-125 -13 -154 -16 -190 -21 -22 -3 -76 -7 -120 -9 -44 -1 -96 -4 -115 -5 -79
-5 -151 0 -145 10 8 13 1 13 -46 -1 -20 -7 -46 -8 -56 -4 -30 13 -55 16 -48 5
3 -5 -2 -10 -12 -11 -10 0 -33 -2 -52 -4 l-35 -3 25 19 c27 21 98 25 131 8 11
-6 18 -7 15 -2 -8 13 48 30 103 32 25 1 59 4 75 7 17 2 125 7 240 10 116 4
212 8 214 10 3 3 11 2 19 -1 7 -3 35 -5 60 -5z m779 4 c-3 -3 -12 -4 -19 -1
-8 3 -5 6 6 6 11 1 17 -2 13 -5z m3616 -3 c9 -1 17 -6 17 -12 0 -8 -13 -9 -37
-4 -36 6 -37 5 -18 -9 20 -15 20 -15 -2 -9 -13 3 -23 9 -23 14 0 5 -4 9 -10 9
-5 0 -9 -3 -9 -7 3 -19 -2 -33 -11 -33 -5 0 -7 6 -4 14 4 11 -1 14 -20 12 -14
-2 -23 1 -20 5 3 5 16 9 30 9 13 0 24 4 24 10 0 5 15 8 33 6 17 -3 40 -5 50
-5z m467 -1 c0 -5 -4 -10 -10 -10 -5 0 -10 5 -10 10 0 6 5 10 10 10 6 0 10 -4
10 -10z m595 -9 c-3 -6 -11 -11 -17 -11 -6 0 -6 6 2 15 14 17 26 13 15 -4z
m-6576 0 c9 -6 6 -8 -13 -8 -14 0 -23 3 -20 8 7 11 15 11 33 0z m6261 0 c0 -6
9 -8 20 -6 11 2 20 0 20 -5 0 -5 -10 -10 -22 -12 -13 -2 -23 -10 -23 -18 0
-16 -7 -20 -27 -20 -9 0 -8 4 2 10 9 6 10 10 3 10 -6 0 -15 -5 -18 -11 -4 -6
-13 -8 -21 -5 -8 3 -11 0 -8 -9 3 -7 -3 -16 -14 -19 -17 -6 -39 -46 -25 -46 8
0 35 30 26 30 -13 1 30 24 50 27 10 2 16 -1 12 -6 -3 -5 0 -13 6 -16 6 -4 13
2 16 14 3 12 10 21 15 21 5 0 6 -6 2 -12 -5 -8 -1 -8 10 1 14 12 19 12 26 1 4
-7 15 -10 25 -6 11 4 15 2 12 -6 -2 -8 -19 -12 -44 -11 -33 1 -42 -2 -46 -18
-4 -15 -1 -19 11 -15 9 3 34 8 55 12 30 5 41 13 48 33 6 17 18 27 31 28 11 1
31 12 44 24 l23 21 -6 -21 c-5 -20 3 -26 35 -22 15 2 16 -15 1 -25 -6 -3 -15
-1 -19 6 -6 9 -9 9 -15 1 -5 -9 -10 -9 -20 -1 -8 7 -20 7 -36 1 -13 -5 -19
-11 -14 -12 20 -4 70 -9 98 -9 17 0 26 -4 22 -10 -4 -6 5 -7 25 -4 18 4 30 2
30 -4 0 -15 -31 -44 -38 -37 -4 3 0 10 8 15 8 6 13 10 10 11 -17 3 -51 8 -88
13 -36 4 -41 2 -32 -9 7 -9 8 -15 0 -20 -5 -3 -10 -1 -10 5 0 6 -4 8 -10 5 -5
-3 -7 0 -4 8 3 8 -2 17 -10 20 -13 5 -16 -1 -16 -26 -1 -30 -1 -31 -15 -13
-12 16 -19 18 -37 9 -30 -15 -78 -22 -78 -13 0 4 -9 10 -20 13 -11 3 -20 2
-20 -2 0 -4 -26 -7 -57 -7 -41 1 -57 5 -55 14 4 20 -20 13 -25 -8 -3 -11 -9
-20 -14 -20 -5 0 -5 8 -2 17 5 12 2 15 -9 10 -9 -3 -19 0 -21 7 -4 9 -15 12
-33 8 -37 -7 -27 20 13 33 19 7 28 15 25 25 -3 10 -1 12 6 5 5 -5 12 -19 15
-30 3 -11 4 -5 4 13 -1 19 -5 36 -10 39 -5 3 -3 9 4 14 22 13 33 10 20 -5 -7
-9 -8 -17 -2 -20 5 -3 12 0 14 6 3 8 6 6 6 -4 1 -10 -5 -18 -11 -19 -10 0 -10
-2 0 -6 6 -2 10 -9 7 -14 -4 -5 1 -6 9 -3 9 3 16 10 16 15 0 6 8 18 18 27 9 9
16 15 15 13 -1 -2 4 -9 10 -16 10 -10 17 -9 40 7 15 11 27 15 27 9 0 -6 5 -11
10 -11 6 0 10 9 10 20 0 11 5 20 10 20 6 0 10 -4 10 -9z m530 -11 c0 -5 -4
-10 -10 -10 -5 0 -10 5 -10 10 0 6 5 10 10 10 6 0 10 -4 10 -10z m-1180 -10
c0 -5 -4 -10 -10 -10 -5 0 -10 5 -10 10 0 6 5 10 10 10 6 0 10 -4 10 -10z
m100 6 c0 -3 -4 -8 -10 -11 -5 -3 -10 -1 -10 4 0 6 5 11 10 11 6 0 10 -2 10
-4z m626 -11 c-8 -8 -21 -15 -28 -15 -8 1 -6 6 6 15 26 20 42 19 22 0z m179 5
c3 -5 4 -10 1 -10 -2 0 -12 -3 -20 -6 -12 -5 -15 -2 -10 10 7 18 20 21 29 6z
m55 -10 c0 -5 13 -8 30 -6 18 2 27 -1 23 -7 -4 -6 0 -8 10 -4 10 3 17 3 17 -2
0 -5 9 -11 20 -14 21 -5 28 -27 9 -27 -5 0 -8 4 -5 9 6 9 -68 35 -96 34 -34
-1 -37 -3 -33 -23 2 -11 0 -20 -4 -20 -17 0 -19 50 -2 60 21 12 31 12 31 0z
m165 0 c-3 -5 -14 -10 -23 -10 -15 0 -15 2 -2 10 20 13 33 13 25 0z m-1260
-10 c3 -5 1 -10 -4 -10 -6 0 -11 5 -11 10 0 6 2 10 4 10 3 0 8 -4 11 -10z
m1309 -2 c-3 -4 0 -8 7 -8 8 0 8 -4 -1 -15 -7 -8 -17 -15 -22 -15 -6 0 -5 7 2
15 10 12 10 15 -4 15 -9 0 -16 -7 -16 -17 0 -9 -3 -14 -6 -10 -12 12 7 46 26
44 10 -1 16 -5 14 -9z m-420 -13 c-5 -12 -44 -18 -44 -6 0 13 11 20 30 18 10
0 16 -6 14 -12z m-3217 -11 c-3 -3 -12 -4 -19 -1 -8 3 -5 6 6 6 11 1 17 -2 13
-5z m236 -1 c-13 -2 -35 -2 -50 0 -16 2 -5 4 22 4 28 0 40 -2 28 -4z m250 0
c-7 -2 -19 -2 -25 0 -7 3 -2 5 12 5 14 0 19 -2 13 -5z m2961 -7 c-3 -8 -12
-12 -20 -9 -21 8 -17 23 6 23 13 0 18 -5 14 -14z m-3376 -3 c-10 -2 -26 -2
-35 0 -10 3 -2 5 17 5 19 0 27 -2 18 -5z m3398 -28 c-15 -16 -26 -23 -26 -16
0 13 40 55 46 48 3 -3 -6 -17 -20 -32z m104 20 c-7 -9 -15 -13 -17 -11 -7 7 7
26 19 26 6 0 6 -6 -2 -15z m-3063 -11 c-3 -3 -12 -4 -19 -1 -8 3 -5 6 6 6 11
1 17 -2 13 -5z m3103 -3 c0 -5 -7 -12 -16 -15 -14 -5 -15 -4 -4 9 14 17 20 19
20 6z m35 -12 c10 -30 2 -32 -12 -3 -6 13 -7 24 -3 24 5 0 12 -9 15 -21z
m-109 -11 c-10 -6 -20 -7 -24 -3 -9 8 20 25 31 18 5 -3 2 -10 -7 -15z m-46 2
c0 -5 -2 -10 -4 -10 -3 0 -8 5 -11 10 -3 6 -1 10 4 10 6 0 11 -4 11 -10z
m-690 -10 c-8 -5 -26 -9 -40 -9 -23 0 -23 1 -5 9 11 5 29 9 40 9 17 1 17 -1 5
-9z m547 -12 c2 -18 0 -20 -7 -8 -12 18 -13 30 -2 30 4 0 9 -10 9 -22z m-492
2 c-3 -5 -13 -10 -21 -10 -8 0 -14 5 -14 10 0 6 9 10 21 10 11 0 17 -4 14 -10z
m462 -6 c-3 -3 -12 -4 -19 -1 -8 3 -5 6 6 6 11 1 17 -2 13 -5z m133 2 c0 -3
-4 -8 -10 -11 -5 -3 -10 -1 -10 4 0 6 5 11 10 11 6 0 10 -2 10 -4z m-643 -12
c-3 -3 -12 -4 -19 -1 -8 3 -5 6 6 6 11 1 17 -2 13 -5z m-5897 -20 c0 -2 -9 -4
-21 -4 -11 0 -18 4 -14 10 5 8 35 3 35 -6z m-63 -9 c0 -17 -13 -20 -21 -6 -4
5 0 12 6 14 7 3 13 6 14 6 0 1 1 -6 1 -14z m-163 -11 c10 -4 21 -2 25 4 4 7
12 6 23 -2 16 -12 14 -13 -15 -16 -17 -1 -47 -2 -64 -2 -18 0 -33 -4 -33 -9 0
-5 -8 -9 -17 -9 -15 0 -16 2 -3 10 11 7 11 10 2 10 -10 0 -10 3 0 14 12 13 38
13 82 0z m121 6 c-3 -5 -16 -10 -28 -9 -21 0 -21 1 -2 9 28 12 37 12 30 0z
m-190 -70 c-3 -5 -11 -10 -16 -10 -6 0 -7 5 -4 10 3 6 11 10 16 10 6 0 7 -4 4
-10z m3695 0 c0 -5 -7 -10 -15 -10 -8 0 -15 5 -15 10 0 6 7 10 15 10 8 0 15
-4 15 -10z m-3873 -40 c-1 -11 -7 -20 -14 -20 -11 0 -11 5 -3 20 6 11 13 20
15 20 2 0 3 -9 2 -20z m3883 -10 c0 -5 -4 -10 -10 -10 -5 0 -10 5 -10 10 0 6
5 10 10 10 6 0 10 -4 10 -10z m-3796 -32 c20 1 36 -3 36 -8 0 -6 -7 -10 -15
-10 -8 0 -15 -4 -15 -10 0 -5 -8 -10 -17 -10 -10 0 -25 -5 -33 -11 -12 -8 -10
-9 8 -4 13 4 22 2 22 -5 0 -6 -15 -10 -34 -8 -19 1 -33 5 -30 9 2 4 -4 10 -13
12 -10 3 -1 5 20 6 20 0 37 6 37 11 0 9 -34 14 -72 11 -10 -1 -18 3 -18 9 0 7
6 10 12 8 7 -3 24 1 37 8 19 10 27 10 32 2 4 -6 23 -11 43 -10z m83 -4 c-3 -3
-12 -4 -19 -1 -8 3 -5 6 6 6 11 1 17 -2 13 -5z m6783 -14 c0 -5 -8 -10 -17
-10 -15 0 -16 2 -3 10 19 12 20 12 20 0z m-6810 -10 c-8 -5 -19 -10 -25 -10
-5 0 -3 5 5 10 8 5 20 10 25 10 6 0 3 -5 -5 -10z m6110 0 c0 -5 -5 -10 -11
-10 -5 0 -7 5 -4 10 3 6 8 10 11 10 2 0 4 -4 4 -10z m45 0 c3 -5 1 -10 -4 -10
-6 0 -11 5 -11 10 0 6 2 10 4 10 3 0 8 -4 11 -10z m255 0 c0 -5 -8 -10 -17
-10 -15 0 -16 2 -3 10 19 12 20 12 20 0z m-6346 -15 c6 -16 -3 -19 -28 -9 -9
3 -13 10 -10 15 8 14 31 11 38 -6z m6226 5 c0 -5 10 -10 23 -11 21 -1 21 -1
-3 -9 l-25 -8 26 -1 c15 -1 29 5 33 14 3 8 10 15 16 15 6 0 9 -4 6 -9 -4 -5
-1 -11 6 -13 10 -4 10 -10 1 -31 -7 -15 -17 -27 -23 -27 -14 0 -12 27 3 34 13
6 -40 -3 -63 -11 -20 -6 26 -32 60 -33 l25 -1 -23 -10 c-13 -5 -27 -7 -32 -4
-4 3 -11 -2 -14 -11 -4 -10 -14 -14 -25 -11 -10 2 -26 0 -35 -5 -19 -11 -20
-5 -5 20 8 13 20 17 38 15 26 -4 26 -4 4 9 -12 7 -22 18 -23 23 -1 6 -9 9 -17
7 -19 -4 -63 17 -63 30 0 4 8 8 18 8 15 0 15 2 2 11 -11 8 -9 9 10 3 14 -4 34
-7 45 -6 11 1 15 -2 8 -6 -8 -5 -7 -11 3 -20 12 -11 14 -9 9 17 -3 18 -1 31 5
31 5 0 10 -4 10 -10z m678 -1 c-10 -5 -18 -17 -18 -24 0 -8 -4 -15 -10 -15
-13 0 -13 6 2 30 7 11 20 20 28 20 12 -1 11 -3 -2 -11z m-148 -9 c0 -5 -8 -10
-17 -10 -15 0 -16 2 -3 10 19 12 20 12 20 0z m-6533 -6 c-3 -3 -12 -4 -19 -1
-8 3 -5 6 6 6 11 1 17 -2 13 -5z m6601 -44 c-24 -20 -54 -27 -43 -10 3 6 14
10 23 10 15 0 15 2 2 10 -12 8 -11 10 8 10 14 0 22 6 23 18 1 16 2 16 6 -1 3
-10 -5 -25 -19 -37z m161 18 c-12 -18 -23 -34 -25 -36 -1 -2 -4 4 -8 13 -3 9
-2 13 4 10 6 -3 10 -2 10 4 0 10 27 41 36 41 3 0 -5 -15 -17 -32z m-460 11 c5
8 11 9 15 3 7 -11 -10 -27 -45 -42 -21 -9 -19 -9 11 -4 19 4 40 14 47 23 7 9
13 11 13 6 0 -14 47 -18 55 -5 3 6 11 10 17 10 6 0 4 -8 -5 -18 -19 -21 -22
-37 -5 -26 7 4 8 3 4 -4 -5 -9 -13 -8 -29 3 -13 8 -35 12 -52 9 -37 -7 -45
-12 -45 -30 0 -13 -2 -13 -16 1 -10 9 -20 12 -23 7 -3 -5 -18 -12 -33 -16 -26
-6 -27 -5 -18 19 7 18 5 28 -6 40 -9 8 -13 15 -11 15 3 0 12 3 21 6 11 4 16 1
16 -10 0 -9 6 -16 13 -16 8 0 7 -4 -3 -10 -13 -9 -13 -10 0 -10 16 1 59 29 47
31 -4 1 -11 3 -17 4 -5 1 -15 3 -21 4 -5 0 -8 5 -5 10 4 5 19 4 36 -2 25 -9
33 -9 39 2z m77 1 c8 0 14 -4 14 -10 0 -15 -22 -12 -45 7 -18 14 -18 15 -2 9
10 -3 25 -6 33 -6z m89 0 c4 -6 -1 -7 -12 -3 -16 6 -16 5 -4 -10 10 -13 10
-17 1 -17 -9 0 -9 -4 1 -17 13 -15 12 -15 -9 -2 -12 8 -18 15 -13 17 5 2 7 12
4 22 -6 21 20 29 32 10z m246 -6 c-18 -13 -20 -18 -10 -26 10 -7 3 -8 -21 -4
-22 4 -30 3 -21 -3 14 -9 7 -31 -10 -31 -6 0 -7 5 -4 10 3 6 -1 10 -9 10 -10
0 -13 6 -9 16 3 8 15 14 27 12 11 -2 29 5 39 15 9 9 23 17 29 17 7 0 2 -7 -11
-16z m-7011 2 c0 -3 -4 -8 -10 -11 -5 -3 -10 -1 -10 4 0 6 5 11 10 11 6 0 10
-2 10 -4z m6843 -10 c8 -21 -2 -26 -30 -13 -23 10 -23 12 -6 18 27 11 30 10
36 -5z m-6993 -6 c0 -5 -8 -10 -17 -10 -15 0 -16 2 -3 10 19 12 20 12 20 0z
m6595 0 c-3 -5 1 -10 9 -10 10 0 16 -9 16 -22 0 -30 -10 -45 -35 -51 -12 -3
-4 -5 18 -6 24 -1 37 -6 37 -15 0 -17 -28 -41 -37 -32 -3 3 -1 6 5 6 7 0 12 7
12 15 0 8 -4 15 -9 15 -13 0 -21 -25 -15 -53 3 -21 0 -25 -20 -23 -21 1 -23 3
-12 16 18 21 17 50 -2 42 -10 -3 -13 -1 -8 6 5 8 2 10 -9 6 -14 -6 -14 -8 2
-26 16 -17 16 -18 0 -12 -9 3 -17 10 -17 14 0 10 -106 8 -116 -3 -4 -4 -2 -7
4 -7 19 0 14 -20 -5 -21 -15 0 -15 -2 2 -9 19 -7 19 -8 2 -15 -40 -17 -95 -7
-82 15 2 4 -7 13 -21 20 -26 14 -28 35 -3 35 8 0 13 -8 11 -17 -2 -11 3 -18
12 -18 9 0 13 7 11 18 -3 15 3 18 31 15 21 -1 32 2 28 8 -4 6 17 8 60 4 58 -5
65 -4 65 12 -1 36 8 72 21 87 14 17 55 22 45 6z m-6446 -31 c-19 -12 -39 -11
-39 1 0 6 9 10 20 10 11 0 20 6 21 13 0 8 2 8 6 -2 3 -7 -1 -17 -8 -22z m66
11 c-3 -5 -14 -10 -23 -9 -14 0 -13 2 3 9 27 11 27 11 20 0z m42 -6 c-3 -3
-12 -4 -19 -1 -8 3 -5 6 6 6 11 1 17 -2 13 -5z m3306 -1 c-7 -2 -19 -2 -25 0
-7 3 -2 5 12 5 14 0 19 -2 13 -5z m3393 -8 c-23 -17 -36 -19 -36 -6 0 5 8 12
18 14 32 9 37 6 18 -8z m-157 -24 c-8 -22 -15 -28 -30 -24 -10 3 -19 13 -19
22 0 14 2 14 10 1 9 -14 24 -8 26 11 3 17 4 19 13 19 6 0 6 -11 0 -29z m361
19 c0 -5 -5 -10 -11 -10 -5 0 -7 5 -4 10 3 6 8 10 11 10 2 0 4 -4 4 -10z
m-170 -9 c0 -9 -53 -31 -74 -31 -15 0 45 38 62 39 6 1 12 -3 12 -8z m50 5 c0
-3 -4 -8 -10 -11 -5 -3 -10 -1 -10 4 0 6 5 11 10 11 6 0 10 -2 10 -4z m-6946
-15 c4 -5 -3 -7 -14 -4 -23 6 -26 13 -6 13 8 0 17 -4 20 -9z m7146 -1 c13 -9
13 -11 0 -20 -10 -6 -16 -6 -19 3 -2 7 -9 15 -15 19 -7 5 -6 8 4 8 8 0 22 -5
30 -10z m-7084 -9 c-3 -5 3 -11 14 -14 11 -3 18 -2 15 2 -5 9 50 6 82 -4 31
-10 17 -35 -21 -36 -26 0 -28 -2 -11 -9 17 -7 14 -9 -13 -9 -22 -1 -31 3 -26
10 4 8 -1 9 -17 4 -19 -5 -21 -4 -9 4 13 9 12 11 -3 11 -10 0 -15 5 -12 10 8
13 -26 13 -62 0 -26 -9 -27 -9 -9 5 11 8 26 15 33 15 7 0 13 5 13 10 0 6 7 10
16 10 8 0 13 -4 10 -9z m-89 -7 c-3 -3 -12 -4 -19 -1 -8 3 -5 6 6 6 11 1 17
-2 13 -5z m6418 -4 c3 -5 1 -10 -4 -10 -6 0 -11 5 -11 10 0 6 2 10 4 10 3 0 8
-4 11 -10z m405 0 c0 -5 -7 -10 -15 -10 -8 0 -15 5 -15 10 0 6 7 10 15 10 8 0
15 -4 15 -10z m300 6 c0 -11 -19 -15 -25 -6 -3 5 1 10 9 10 9 0 16 -2 16 -4z
m-6756 -28 c-5 -8 -72 -3 -82 6 -3 4 14 6 40 4 25 -2 44 -6 42 -10z m3493 -12
c-2 -6 -9 -11 -15 -10 -7 1 -23 2 -37 3 -29 1 -34 18 -7 23 28 6 63 -4 59 -16z
m2913 12 c0 -11 -12 -10 -30 2 -12 7 -10 9 8 7 12 0 22 -5 22 -9z m77 1 c-9
-6 -15 -14 -12 -20 7 -10 -15 -12 -39 -3 -26 10 -18 22 17 27 17 2 37 4 42 5
6 1 2 -3 -8 -9z m-187 -7 c0 -4 -9 -8 -20 -8 -11 0 -20 4 -20 8 0 4 9 8 20 8
11 0 20 -4 20 -8z m525 -20 c-7 -8 -35 7 -35 18 0 6 7 6 20 -2 10 -7 17 -14
15 -16z m-6930 8 c3 -6 -1 -7 -9 -4 -18 7 -21 14 -7 14 6 0 13 -4 16 -10z
m6349 -6 c3 -8 2 -12 -4 -9 -6 3 -10 1 -10 -4 0 -6 -5 -11 -10 -11 -7 0 -7 6
0 20 13 24 16 25 24 4z m283 0 c-3 -3 -12 -4 -19 -1 -8 3 -5 6 6 6 11 1 17 -2
13 -5z m169 -9 c-23 -17 -42 -19 -51 -6 -3 5 9 12 27 14 18 2 35 4 38 5 3 1
-4 -5 -14 -13z m-6615 -9 c-14 -8 -32 -11 -40 -8 -11 5 -7 8 14 13 47 10 52 9
26 -5z m6223 -7 c-10 -4 -13 -8 -6 -8 7 -1 10 -5 7 -11 -10 -16 -22 -12 -22 8
0 20 17 33 31 25 5 -4 1 -10 -10 -14z m-4074 1 c0 -5 -8 -10 -17 -10 -15 0
-16 2 -3 10 19 12 20 12 20 0z m4410 -10 c0 -5 -7 -7 -15 -4 -8 4 -12 10 -9
15 6 11 24 2 24 -11z m-6867 -7 c-20 -7 -15 -23 5 -17 14 5 15 4 2 -5 -8 -6
-47 -9 -88 -7 -77 4 -113 16 -47 16 29 0 35 3 27 13 -8 9 3 11 51 8 34 -2 56
-6 50 -8z m425 0 c6 -19 -25 -16 -32 3 -4 11 -1 14 11 12 9 -2 18 -9 21 -15z
m1169 11 c-3 -3 -12 -4 -19 -1 -8 3 -5 6 6 6 11 1 17 -2 13 -5z m1328 -14
c-10 -11 -23 -20 -29 -20 -6 1 0 10 13 20 30 26 39 26 16 0z m3505 10 c0 -5
-2 -10 -4 -10 -3 0 -8 5 -11 10 -3 6 -1 10 4 10 6 0 11 -4 11 -10z m525 -4
c-53 -13 -69 -11 -45 4 8 6 33 9 55 9 l40 -1 -50 -12z m-6865 -6 c-14 -4 -34
-8 -45 -8 -16 0 -15 2 5 8 14 4 34 8 45 8 16 0 15 -2 -5 -8z m3630 0 c0 -5 -9
-10 -21 -10 -11 0 -17 5 -14 10 3 6 13 10 21 10 8 0 14 -4 14 -10z m2367 -10
c-1 -23 -8 -25 -25 -8 -8 8 -15 8 -27 -2 -8 -7 -15 -8 -15 -3 0 10 37 31 57
32 6 1 11 -8 10 -19z m-6290 4 c-3 -3 -12 -4 -19 -1 -8 3 -5 6 6 6 11 1 17 -2
13 -5z m340 -9 c0 -10 -10 -15 -26 -15 l-26 0 25 14 c14 8 25 14 26 15 0 1 1
-6 1 -14z m6463 5 c0 -5 -4 -10 -10 -10 -5 0 -10 5 -10 10 0 6 5 10 10 10 6 0
10 -4 10 -10z m-6373 -6 c-3 -3 -12 -4 -19 -1 -8 3 -5 6 6 6 11 1 17 -2 13 -5z
m160 0 c-3 -3 -12 -4 -19 -1 -8 3 -5 6 6 6 11 1 17 -2 13 -5z"/>
<path d="M2490 7299 c0 -5 -4 -8 -9 -4 -6 3 -15 -4 -21 -15 -15 -28 2 -25 30
5 13 14 18 25 12 25 -7 0 -12 -5 -12 -11z"/>
<path d="M2554 7288 c-3 -5 -9 -6 -14 -3 -11 7 -23 -11 -24 -36 -1 -11 -5 -19
-11 -18 -5 0 -9 8 -8 17 2 11 -1 9 -9 -5 -6 -13 -19 -25 -29 -28 -25 -8 -35
-29 -43 -87 -5 -32 -4 -48 3 -48 6 0 12 8 13 18 1 9 2 24 3 32 1 8 9 29 19 45
l17 30 -6 -30 c-6 -29 -5 -28 40 20 69 74 88 102 69 102 -8 0 -17 -4 -20 -9z"/>
<path d="M3010 7260 c0 -5 5 -10 10 -10 6 0 10 5 10 10 0 6 -4 10 -10 10 -5 0
-10 -4 -10 -10z"/>
<path d="M2795 7250 c-4 -6 3 -10 14 -10 25 0 27 6 6 13 -8 4 -17 2 -20 -3z"/>
<path d="M3044 7243 c4 -7 2 -14 -3 -14 -26 -3 -30 -4 -37 -11 -11 -11 28 -9
46 2 13 8 13 11 1 22 -10 10 -12 10 -7 1z"/>
<path d="M2574 7175 c-10 -8 -14 -15 -8 -15 6 0 17 7 24 15 16 19 9 19 -16 0z"/>
<path d="M2529 7143 c-13 -16 -12 -17 4 -4 16 13 21 21 13 21 -2 0 -10 -8 -17
-17z"/>
<path d="M3125 7150 c-3 -6 1 -7 9 -4 18 7 21 14 7 14 -6 0 -13 -4 -16 -10z"/>
<path d="M3060 7115 c-7 -9 -11 -17 -9 -20 3 -2 10 5 17 15 14 24 10 26 -8 5z"/>
<path d="M2973 6855 c-3 -9 -3 -18 -1 -21 3 -3 8 4 11 16 6 23 -1 27 -10 5z"/>
<path d="M3004 6854 c-12 -10 -14 -14 -4 -11 8 2 23 0 33 -5 16 -8 17 -7 7 11
-13 25 -11 25 -36 5z"/>
<path d="M3103 6790 c-5 -20 -7 -20 -24 -4 -23 20 -24 13 -5 -25 28 -54 41
-54 42 0 0 52 -4 62 -13 29z"/>
<path d="M3480 6795 c33 -19 49 -19 24 0 -10 8 -26 14 -34 14 -9 0 -4 -6 10
-14z"/>
<path d="M3225 6750 c-3 -6 1 -7 9 -4 18 7 21 14 7 14 -6 0 -13 -4 -16 -10z"/>
<path d="M3004 6665 c-9 -22 1 -29 15 -11 8 10 9 16 1 21 -5 3 -13 -1 -16 -10z"/>
<path d="M3425 5840 c-3 -5 -1 -10 4 -10 6 0 11 5 11 10 0 6 -2 10 -4 10 -3 0
-8 -4 -11 -10z"/>
<path d="M3438 5773 c-14 -2 -34 -15 -42 -29 -16 -23 -15 -24 3 -24 31 0 51
11 51 29 0 12 2 13 9 3 7 -11 10 -10 15 3 8 21 8 25 -1 24 -5 -1 -20 -4 -35
-6z"/>
<path d="M3470 5642 c0 -17 4 -34 10 -37 6 -4 7 6 3 27 -8 44 -13 48 -13 10z"/>
<path d="M3495 5471 c3 -40 10 -81 15 -90 13 -22 12 -5 -6 89 l-14 75 5 -74z"/>
<path d="M3442 4847 c-11 -29 -26 -69 -32 -90 -6 -21 -22 -50 -34 -65 -13 -15
-27 -38 -31 -52 -7 -23 -7 -23 9 -7 19 19 31 23 21 7 -3 -5 -2 -10 4 -10 6 0
15 9 21 21 7 11 24 25 39 30 20 7 33 24 49 62 28 67 28 92 -2 128 l-24 28 -20
-52z"/>
<path d="M3925 4784 c8 -16 15 -37 15 -46 0 -10 4 -18 9 -18 5 0 12 -10 15
-22 l7 -23 11 23 c8 16 8 29 1 45 -6 12 -14 30 -17 40 -3 10 -11 15 -16 12 -6
-4 -17 -1 -26 5 -12 11 -12 9 1 -16z"/>
<path d="M3420 4655 c-8 -9 -8 -15 -2 -15 12 0 26 19 19 26 -2 2 -10 -2 -17
-11z"/>
<path d="M3660 3039 c0 -5 5 -7 10 -4 6 3 10 8 10 11 0 2 -4 4 -10 4 -5 0 -10
-5 -10 -11z"/>
<path d="M3730 2995 c0 -8 5 -15 10 -15 6 0 10 7 10 15 0 8 -4 15 -10 15 -5 0
-10 -7 -10 -15z"/>
<path d="M3630 2976 c0 -9 5 -16 10 -16 6 0 10 4 10 9 0 6 -4 13 -10 16 -5 3
-10 -1 -10 -9z"/>
<path d="M795 999 c-3 -4 -1 -10 4 -13 5 -4 12 -3 15 2 3 5 20 7 38 4 18 -2
30 -1 25 4 -10 10 -76 13 -82 3z"/>
<path d="M1618 1013 c7 -3 16 -2 19 1 4 3 -2 6 -13 5 -11 0 -14 -3 -6 -6z"/>
<path d="M1510 975 c-7 -8 -9 -15 -4 -16 5 -1 -2 -5 -16 -10 -20 -7 -17 -8 14
-4 22 2 43 8 48 13 6 6 -2 8 -19 5 l-28 -4 25 15 c18 11 20 15 9 16 -9 0 -22
-7 -29 -15z"/>
<path d="M4190 960 c-11 -11 -20 -26 -19 -32 0 -7 5 -3 11 10 8 16 17 21 32
17 12 -3 15 -2 8 1 -6 3 -10 10 -6 15 9 16 -5 10 -26 -11z"/>
<path d="M4060 940 c0 -5 5 -10 11 -10 5 0 7 -5 4 -10 -4 -6 -11 -8 -16 -5 -5
3 -6 -1 -3 -10 4 -9 7 -15 8 -13 1 2 10 14 21 27 11 14 14 21 8 17 -7 -4 -13
-2 -13 3 0 6 -4 11 -10 11 -5 0 -10 -4 -10 -10z"/>
<path d="M4135 940 c3 -5 8 -10 11 -10 2 0 4 5 4 10 0 6 -5 10 -11 10 -5 0 -7
-4 -4 -10z"/>
<path d="M2880 960 c0 -5 0 -13 1 -16 0 -4 -5 -11 -13 -15 -10 -7 -8 -9 6 -9
12 0 16 5 12 15 -3 9 0 15 9 15 8 0 15 5 15 10 0 6 -7 10 -15 10 -8 0 -15 -4
-15 -10z"/>
<path d="M2840 950 c0 -5 5 -10 10 -10 6 0 10 5 10 10 0 6 -4 10 -10 10 -5 0
-10 -4 -10 -10z"/>
<path d="M2318 933 c6 -2 18 -2 25 0 6 3 1 5 -13 5 -14 0 -19 -2 -12 -5z"/>
<path d="M2098 923 c7 -3 16 -2 19 1 4 3 -2 6 -13 5 -11 0 -14 -3 -6 -6z"/>
<path d="M2483 889 c-13 -4 -10 -7 12 -12 33 -6 85 1 85 12 0 8 -73 8 -97 0z"/>
<path d="M3610 929 c0 -5 5 -7 10 -4 6 3 10 8 10 11 0 2 -4 4 -10 4 -5 0 -10
-5 -10 -11z"/>
<path d="M3526 901 c-4 -7 -5 -15 -2 -18 9 -9 19 4 14 18 -4 11 -6 11 -12 0z"/>
<path d="M3550 879 c0 -5 5 -7 10 -4 6 3 10 8 10 11 0 2 -4 4 -10 4 -5 0 -10
-5 -10 -11z"/>
<path d="M5640 917 c0 -19 16 -31 24 -18 3 5 -1 14 -9 21 -12 10 -15 10 -15
-3z"/>
<path d="M5360 840 c0 -5 5 -10 11 -10 5 0 7 5 4 10 -3 6 -8 10 -11 10 -2 0
-4 -4 -4 -10z"/>
<path d="M1290 855 c0 -9 5 -15 11 -13 6 2 11 8 11 13 0 5 -5 11 -11 13 -6 2
-11 -4 -11 -13z"/>
<path d="M1242 851 c-11 -7 -10 -10 3 -15 26 -10 35 -7 29 9 -7 17 -13 18 -32
6z"/>
<path d="M1605 880 c-3 -5 1 -10 9 -10 9 0 16 5 16 10 0 6 -4 10 -9 10 -6 0
-13 -4 -16 -10z"/>
<path d="M1608 818 c7 -7 28 -13 47 -13 30 0 32 2 20 15 -12 11 -17 11 -27 2
-14 -14 -32 -16 -23 -2 3 6 -2 10 -11 10 -14 0 -15 -3 -6 -12z"/>
<path d="M1702 787 c-30 -43 -9 -49 29 -8 34 38 35 41 12 41 -10 0 -28 -15
-41 -33z"/>
<path d="M1522 783 c-6 -2 -10 -8 -7 -13 6 -10 45 -1 45 11 0 10 -17 11 -38 2z"/>
<path d="M5050 860 c0 -5 5 -10 10 -10 6 0 10 5 10 10 0 6 -4 10 -10 10 -5 0
-10 -4 -10 -10z"/>
<path d="M6936 587 c3 -10 9 -15 12 -12 3 3 0 11 -7 18 -10 9 -11 8 -5 -6z"/>
<path d="M6615 580 c-3 -6 1 -13 10 -16 19 -8 30 0 20 15 -8 14 -22 14 -30 1z"/>
<path d="M6555 540 c-3 -6 1 -7 9 -4 18 7 21 14 7 14 -6 0 -13 -4 -16 -10z"/>
<path d="M6440 230 c0 -5 5 -10 11 -10 5 0 7 5 4 10 -3 6 -8 10 -11 10 -2 0
-4 -4 -4 -10z"/>
<path d="M6629 210 c0 -3 -2 -15 -5 -27 -4 -26 13 -40 29 -24 9 9 7 10 -8 5
-18 -7 -19 -6 -6 10 11 13 11 20 3 28 -7 7 -12 10 -13 8z"/>
<path d="M6420 65 c0 -8 5 -15 11 -15 5 0 8 4 5 9 -4 5 0 12 6 14 8 3 6 6 -4
6 -10 1 -18 -6 -18 -14z"/>
<path d="M260 110 c-18 -12 -2 -12 25 0 13 6 15 9 5 9 -8 0 -22 -4 -30 -9z"/>
<path d="M208 33 c6 -2 18 -2 25 0 6 3 1 5 -13 5 -14 0 -19 -2 -12 -5z"/>
<path d="M903 876 l-23 -13 25 -11 c31 -14 46 -15 25 -2 -12 8 -10 10 10 10
35 0 57 15 35 24 -23 9 -46 6 -72 -8z"/>
<path d="M5568 813 c7 -3 16 -2 19 1 4 3 -2 6 -13 5 -11 0 -14 -3 -6 -6z"/>
<path d="M705 800 c-3 -5 -2 -10 4 -10 5 0 13 5 16 10 3 6 2 10 -4 10 -5 0
-13 -4 -16 -10z"/>
<path d="M5956 798 c4 -6 0 -14 -7 -19 -12 -7 -11 -9 1 -9 15 1 50 23 50 32 0
3 -11 6 -25 6 -14 0 -22 -5 -19 -10z"/>
<path d="M680 775 c0 -7 39 -12 49 -5 7 4 -1 7 -18 8 -17 0 -31 -1 -31 -3z"/>
<path d="M5896 764 c-6 -16 2 -18 22 -5 11 7 11 9 -1 14 -9 3 -18 -1 -21 -9z"/>
<path d="M538 733 c6 -2 18 -2 25 0 6 3 1 5 -13 5 -14 0 -19 -2 -12 -5z"/>
<path d="M4977 713 c-3 -5 1 -14 9 -21 12 -10 14 -10 14 2 0 17 -16 30 -23 19z"/>
<path d="M6630 711 c0 -6 7 -11 16 -11 8 0 12 -4 9 -10 -3 -5 -2 -10 4 -10 6
0 8 -7 5 -15 -4 -8 -1 -15 5 -15 10 0 15 14 12 33 0 4 4 7 9 7 15 0 12 16 -2
18 -7 0 -23 4 -35 7 -15 5 -23 3 -23 -4z"/>
<path d="M182 700 c10 -6 25 -7 40 -1 20 9 18 10 -17 10 -31 0 -36 -2 -23 -9z"/>
<path d="M69 698 c-6 -21 -5 -38 1 -38 5 0 8 9 7 20 -1 17 -5 26 -8 18z"/>
<path d="M315 690 c3 -5 10 -10 16 -10 5 0 9 5 9 10 0 6 -7 10 -16 10 -8 0
-12 -4 -9 -10z"/>
<path d="M5233 679 c-18 -5 -33 -12 -33 -15 0 -9 53 5 65 17 10 10 11 10 -32
-2z"/>
<path d="M132 665 c-7 -8 -9 -15 -4 -15 5 0 15 7 22 15 16 19 -1 19 -18 0z"/>
<path d="M4878 673 c6 -2 12 -11 12 -19 0 -9 5 -12 10 -9 13 8 -6 35 -24 34
-7 0 -6 -2 2 -6z"/>
<path d="M5335 670 c-3 -5 -16 -11 -28 -11 -16 -1 -17 -3 -5 -6 9 -2 29 3 45
11 19 10 22 15 11 16 -9 0 -20 -4 -23 -10z"/>
<path d="M8 663 c7 -3 16 -2 19 1 4 3 -2 6 -13 5 -11 0 -14 -3 -6 -6z"/>
<path d="M161 646 c-7 -8 -18 -13 -26 -10 -7 3 -15 1 -19 -4 -3 -5 3 -8 12 -7
23 2 58 22 51 29 -3 4 -12 0 -18 -8z"/>
<path d="M4950 651 c0 -5 6 -12 13 -14 7 -3 4 -6 -6 -6 -21 -1 -13 -21 8 -21
7 0 12 8 10 18 -2 9 -4 20 -4 25 -1 10 -21 9 -21 -2z"/>
<path d="M5243 650 c-31 -13 -29 -15 11 -15 26 0 32 3 24 13 -6 6 -11 12 -12
11 0 0 -11 -4 -23 -9z"/>
<path d="M0 641 c0 -5 9 -7 20 -4 11 3 20 0 20 -6 0 -6 -9 -11 -20 -11 -15 0
-20 -7 -20 -26 0 -14 4 -23 9 -20 5 3 11 -4 14 -15 4 -15 11 -20 21 -16 9 4
16 2 16 -2 0 -5 15 -4 33 1 17 6 39 13 47 16 11 3 12 6 2 9 -16 6 3 33 24 33
8 0 14 5 14 11 0 7 -10 5 -25 -5 -15 -10 -44 -16 -77 -15 l-53 0 33 16 c17 9
32 21 32 25 0 5 -4 7 -9 3 -5 -3 -12 -2 -15 3 -7 11 -66 14 -66 3z m110 -71
c0 -5 -15 -9 -32 -9 l-33 1 30 8 c17 4 31 8 33 9 1 0 2 -3 2 -9z"/>
<path d="M4215 630 c-3 -5 -1 -10 4 -10 6 0 11 5 11 10 0 6 -2 10 -4 10 -3 0
-8 -4 -11 -10z"/>
<path d="M4425 630 c-3 -6 1 -7 9 -4 18 7 21 14 7 14 -6 0 -13 -4 -16 -10z"/>
<path d="M4710 630 c0 -5 5 -10 10 -10 6 0 10 5 10 10 0 6 -4 10 -10 10 -5 0
-10 -4 -10 -10z"/>
<path d="M4476 615 c4 -8 11 -15 16 -15 6 0 5 6 -2 15 -7 8 -14 15 -16 15 -2
0 -1 -7 2 -15z"/>
<path d="M5017 618 c6 -11 43 -10 43 1 0 5 -11 8 -24 7 -13 0 -22 -4 -19 -8z"/>
<path d="M5098 623 c7 -3 16 -2 19 1 4 3 -2 6 -13 5 -11 0 -14 -3 -6 -6z"/>
<path d="M5696 621 c-4 -5 3 -7 14 -4 23 6 26 13 6 13 -8 0 -17 -4 -20 -9z"/>
<path d="M206 611 c-4 -5 3 -7 14 -4 23 6 26 13 6 13 -8 0 -17 -4 -20 -9z"/>
<path d="M246 605 c-11 -8 -30 -15 -43 -15 -15 0 -23 -6 -23 -17 0 -13 3 -14
12 -5 7 7 19 12 28 12 9 0 25 9 35 20 21 23 18 25 -9 5z"/>
<path d="M5297 609 c7 -7 15 -10 18 -7 3 3 -2 9 -12 12 -14 6 -15 5 -6 -5z"/>
<path d="M5432 604 c-15 -10 -20 -20 -14 -27 5 -7 8 -20 7 -29 -2 -12 3 -18
16 -18 16 0 17 3 7 24 -14 32 -5 53 24 59 20 4 20 4 3 6 -11 0 -31 -6 -43 -15z"/>
<path d="M5580 611 c0 -7 -9 -9 -24 -5 -21 5 -24 3 -19 -15 5 -19 7 -20 40 -6
45 19 57 19 49 -1 -3 -8 -2 -12 4 -9 15 9 12 35 -4 35 -8 0 -21 3 -30 6 -9 3
-16 1 -16 -5z"/>
<path d="M4446 594 c-5 -14 -4 -15 9 -4 17 14 19 20 6 20 -5 0 -12 -7 -15 -16z"/>
<path d="M420 589 c0 -5 5 -7 10 -4 6 3 10 8 10 11 0 2 -4 4 -10 4 -5 0 -10
-5 -10 -11z"/>
<path d="M5370 585 c-19 -22 -8 -25 13 -3 9 10 13 18 8 18 -5 0 -14 -7 -21
-15z"/>
<path d="M5661 586 c-15 -18 -22 -56 -11 -56 5 0 12 5 15 10 3 6 0 10 -7 10
-9 0 -9 3 -2 8 10 7 27 42 20 42 -2 0 -9 -6 -15 -14z"/>
<path d="M4950 575 c0 -16 -35 -29 -51 -19 -7 4 -9 3 -6 -3 4 -6 0 -14 -9 -17
-8 -3 -12 -2 -9 3 3 5 0 13 -6 17 -7 4 -9 3 -6 -3 8 -12 -62 -9 -118 6 -48 13
-138 14 -131 2 3 -4 18 -8 33 -7 36 1 63 -21 42 -36 -10 -6 -7 -7 11 -2 14 4
48 8 76 9 28 1 57 5 63 10 8 4 14 -1 18 -14 3 -12 10 -21 15 -21 5 0 7 4 4 9
-3 4 6 6 19 3 14 -2 28 -8 31 -13 8 -13 36 -10 58 6 17 13 16 14 -17 8 -19 -3
-43 0 -53 6 -18 10 -18 10 -1 11 10 0 29 11 43 24 22 19 23 24 10 29 -10 4
-16 1 -16 -8z m-185 -35 c3 -5 2 -10 -4 -10 -5 0 -13 5 -16 10 -3 6 -2 10 4
10 5 0 13 -4 16 -10z"/>
<path d="M5470 581 c0 -6 5 -13 10 -16 6 -3 10 1 10 9 0 9 -4 16 -10 16 -5 0
-10 -4 -10 -9z"/>
<path d="M4568 573 c7 -3 16 -2 19 1 4 3 -2 6 -13 5 -11 0 -14 -3 -6 -6z"/>
<path d="M6200 571 c0 -18 18 -21 30 -6 10 13 9 15 -9 15 -11 0 -21 -4 -21 -9z"/>
<path d="M4795 560 c-3 -5 -1 -10 4 -10 6 0 11 5 11 10 0 6 -2 10 -4 10 -3 0
-8 -4 -11 -10z"/>
<path d="M5510 560 c-9 -6 -10 -10 -3 -10 6 0 15 5 18 10 8 12 4 12 -15 0z"/>
<path d="M6004 554 c-18 -14 -18 -15 4 -4 12 6 22 13 22 15 0 8 -5 6 -26 -11z"/>
<path d="M223 553 c9 -2 25 -2 35 0 9 3 1 5 -18 5 -19 0 -27 -2 -17 -5z"/>
<path d="M4260 552 c0 -12 19 -26 26 -19 2 2 -2 10 -11 17 -9 8 -15 8 -15 2z"/>
<path d="M5755 549 c-4 -6 -20 -7 -38 -4 -31 7 -32 6 -10 -9 23 -17 48 -13 57
10 6 16 0 19 -9 3z"/>
<path d="M6303 553 c4 -3 1 -13 -6 -21 -10 -13 -9 -14 3 -10 19 6 26 38 9 38
-7 0 -9 -3 -6 -7z"/>
<path d="M4550 539 c0 -5 5 -7 10 -4 6 3 10 8 10 11 0 2 -4 4 -10 4 -5 0 -10
-5 -10 -11z"/>
<path d="M5330 536 c-6 -8 -19 -17 -28 -19 -9 -2 -7 -3 5 -2 13 1 31 -4 40
-11 28 -21 39 -16 15 7 -12 11 -20 24 -17 30 9 14 -1 11 -15 -5z"/>
<path d="M4628 533 c7 -3 16 -2 19 1 4 3 -2 6 -13 5 -11 0 -14 -3 -6 -6z"/>
<path d="M4960 530 c0 -5 4 -10 9 -10 6 0 13 5 16 10 3 6 -1 10 -9 10 -9 0
-16 -4 -16 -10z"/>
<path d="M6115 530 c3 -5 11 -10 16 -10 6 0 7 5 4 10 -3 6 -11 10 -16 10 -6 0
-7 -4 -4 -10z"/>
<path d="M0 507 c0 -16 4 -26 10 -22 5 3 10 -1 10 -9 0 -9 7 -16 15 -16 8 0
12 6 9 14 -3 9 3 17 17 21 17 6 19 9 8 16 -8 5 -22 6 -33 3 -10 -4 -22 0 -27
7 -6 10 -9 5 -9 -14z"/>
<path d="M110 510 c0 -5 5 -10 11 -10 5 0 7 5 4 10 -3 6 -8 10 -11 10 -2 0 -4
-4 -4 -10z"/>
<path d="M4814 505 c-18 -15 -18 -15 0 -8 16 5 18 3 14 -15 -4 -12 -3 -24 1
-26 4 -3 8 11 9 30 3 39 3 39 -24 19z"/>
<path d="M5508 513 c6 -2 18 -2 25 0 6 3 1 5 -13 5 -14 0 -19 -2 -12 -5z"/>
<path d="M4540 492 c-13 -14 -12 -15 3 -9 9 3 17 2 17 -3 0 -6 -5 -10 -11 -10
-5 0 -7 -4 -4 -10 10 -16 56 -11 100 10 22 11 33 19 25 20 -9 0 -21 -5 -28
-12 -7 -7 -12 -8 -12 -2 0 6 -14 11 -31 11 -17 0 -34 4 -37 10 -5 7 -12 5 -22
-5z"/>
<path d="M5738 493 c6 -2 18 -2 25 0 6 3 1 5 -13 5 -14 0 -19 -2 -12 -5z"/>
<path d="M5830 491 c0 -6 -6 -11 -14 -11 -8 0 -17 -4 -20 -8 -2 -4 4 -8 15 -8
10 0 19 4 19 9 0 5 10 5 21 2 15 -5 20 -3 17 6 -6 17 -38 25 -38 10z"/>
<path d="M6045 490 c-11 -5 -14 -9 -6 -9 11 -1 10 -6 -3 -26 -18 -27 -7 -35
14 -10 7 8 9 15 6 15 -4 0 -2 9 4 20 6 11 9 20 8 19 -2 0 -12 -4 -23 -9z"/>
<path d="M6123 480 c-1 -11 3 -20 9 -20 6 0 8 3 5 7 -4 3 1 12 11 19 16 12 16
13 -3 14 -14 0 -21 -7 -22 -20z"/>
<path d="M4425 453 c-18 -28 -18 -28 2 -10 11 9 30 17 44 18 22 0 23 1 4 9
-30 13 -31 12 -50 -17z"/>
<path d="M5744 464 c-18 -14 -18 -14 6 -3 31 14 36 19 24 19 -6 0 -19 -7 -30
-16z"/>
<path d="M5987 460 c-16 -19 -16 -20 4 -20 12 0 17 4 13 11 -3 6 0 15 7 20 8
5 9 9 4 9 -6 0 -18 -9 -28 -20z"/>
<path d="M4245 460 c-3 -5 -1 -10 4 -10 6 0 11 5 11 10 0 6 -2 10 -4 10 -3 0
-8 -4 -11 -10z"/>
<path d="M4865 459 c-11 -17 1 -21 15 -4 8 9 8 15 2 15 -6 0 -14 -5 -17 -11z"/>
<path d="M5036 461 c-3 -5 1 -11 9 -15 8 -3 15 -1 15 4 0 13 -18 22 -24 11z"/>
<path d="M4 427 c1 -34 3 -37 23 -32 12 3 25 0 28 -5 4 -6 11 -8 16 -5 18 12
8 23 -28 30 l-38 8 30 14 30 14 -27 -4 c-15 -2 -29 1 -31 7 -2 6 -4 -6 -3 -27z"/>
<path d="M5893 443 c-16 -6 -17 -33 -1 -33 6 0 8 3 5 7 -4 3 -2 12 4 20 12 14
11 14 -8 6z"/>
<path d="M6073 440 c-24 -10 -30 -25 -13 -35 5 -3 7 0 4 8 -3 9 3 16 15 20 25
6 38 -8 15 -17 -15 -6 -11 -26 5 -26 5 0 25 14 46 30 21 17 32 30 25 30 -7 0
-21 -10 -31 -22 l-19 -21 0 21 c0 23 -11 26 -47 12z"/>
<path d="M4463 422 c-53 -22 -66 -34 -22 -22 19 6 50 8 69 5 29 -4 31 -3 10 4
-14 5 -19 9 -12 10 6 1 12 6 12 11 0 13 -7 12 -57 -8z"/>
<path d="M5490 430 c0 -5 5 -10 10 -10 6 0 10 5 10 10 0 6 -4 10 -10 10 -5 0
-10 -4 -10 -10z"/>
<path d="M186 414 c-11 -8 -16 -14 -10 -14 13 0 39 18 34 24 -3 2 -14 -2 -24
-10z"/>
<path d="M4300 420 c0 -5 5 -10 10 -10 6 0 10 5 10 10 0 6 -4 10 -10 10 -5 0
-10 -4 -10 -10z"/>
<path d="M4870 420 c0 -13 18 -22 24 -11 3 5 -1 11 -9 15 -8 3 -15 1 -15 -4z"/>
<path d="M5045 420 c-3 -6 1 -7 9 -4 18 7 21 14 7 14 -6 0 -13 -4 -16 -10z"/>
<path d="M4825 410 c3 -5 8 -10 11 -10 2 0 4 5 4 10 0 6 -5 10 -11 10 -5 0 -7
-4 -4 -10z"/>
<path d="M3990 395 c0 -8 2 -15 4 -15 2 0 6 7 10 15 3 8 1 15 -4 15 -6 0 -10
-7 -10 -15z"/>
<path d="M4156 395 c-5 -13 -2 -14 17 -4 32 17 33 19 10 19 -12 0 -23 -7 -27
-15z"/>
<path d="M4335 400 c-3 -5 -3 -10 2 -10 4 0 1 -5 -7 -10 -9 -6 -10 -10 -3 -10
7 0 17 9 23 20 11 20 -3 30 -15 10z"/>
<path d="M4755 400 c-4 -7 3 -9 20 -6 37 7 44 16 12 16 -14 0 -29 -5 -32 -10z"/>
<path d="M4975 400 c-3 -6 1 -7 9 -4 18 7 21 14 7 14 -6 0 -13 -4 -16 -10z"/>
<path d="M5830 395 c-7 -8 -9 -15 -6 -15 4 0 14 7 22 15 9 8 11 15 6 15 -5 0
-15 -7 -22 -15z"/>
<path d="M5927 389 c5 -20 18 -25 27 -11 2 4 -4 13 -14 19 -15 10 -17 9 -13
-8z"/>
<path d="M4050 390 c0 -5 5 -10 11 -10 5 0 7 5 4 10 -3 6 -8 10 -11 10 -2 0
-4 -4 -4 -10z"/>
<path d="M4575 390 c-3 -5 -1 -10 4 -10 6 0 11 5 11 10 0 6 -2 10 -4 10 -3 0
-8 -4 -11 -10z"/>
<path d="M4699 390 c-6 -4 1 -7 15 -7 14 0 26 3 26 7 0 3 -7 7 -15 7 -8 0 -19
-4 -26 -7z"/>
<path d="M5863 393 c-15 -5 -17 -23 -4 -23 5 0 11 7 15 15 3 8 4 15 3 14 -1 0
-8 -3 -14 -6z"/>
<path d="M4508 383 c7 -3 16 -2 19 1 4 3 -2 6 -13 5 -11 0 -14 -3 -6 -6z"/>
<path d="M4360 365 c-7 -8 -9 -15 -5 -15 5 0 0 -9 -10 -20 -9 -10 -25 -19 -34
-18 -31 2 -51 -2 -51 -11 0 -5 16 -8 35 -5 24 3 35 0 35 -8 0 -7 11 0 25 15
14 15 35 27 45 27 11 0 34 9 52 20 29 17 30 20 11 20 -12 0 -25 -5 -28 -10 -7
-12 -46 -3 -56 12 -3 5 -12 2 -19 -7z m30 -19 c0 -3 -4 -8 -10 -11 -5 -3 -10
-1 -10 4 0 6 5 11 10 11 6 0 10 -2 10 -4z"/>
<path d="M5005 370 c-3 -5 -1 -10 4 -10 6 0 11 5 11 10 0 6 -2 10 -4 10 -3 0
-8 -4 -11 -10z"/>
<path d="M5203 373 c9 -2 23 -2 30 0 6 3 -1 5 -18 5 -16 0 -22 -2 -12 -5z"/>
<path d="M4646 349 c3 -5 21 -9 41 -9 45 0 40 8 -10 13 -20 2 -34 0 -31 -4z"/>
<path d="M4830 329 c0 -5 5 -7 10 -4 6 3 10 8 10 11 0 2 -4 4 -10 4 -5 0 -10
-5 -10 -11z"/>
<path d="M5160 321 c0 -6 4 -12 8 -15 5 -3 9 1 9 9 0 8 -4 15 -9 15 -4 0 -8
-4 -8 -9z"/>
<path d="M5743 295 c0 -8 4 -12 9 -9 5 3 6 10 3 15 -9 13 -12 11 -12 -6z"/>
<path d="M4360 282 c0 -14 95 -39 157 -41 25 -1 31 -5 27 -16 -5 -12 -10 -13
-20 -4 -9 7 -14 7 -14 1 0 -5 -13 -12 -30 -14 -16 -3 -30 -1 -30 4 0 4 -5 8
-11 8 -6 0 -8 -7 -5 -15 3 -9 1 -15 -7 -14 -6 1 -21 1 -32 -1 -20 -1 -20 -1 0
-9 11 -4 35 -4 55 1 19 4 57 13 85 18 27 6 54 15 60 21 7 7 1 8 -19 3 -17 -4
-27 -3 -23 3 13 20 -12 33 -71 37 -34 3 -70 10 -81 15 -23 13 -41 14 -41 3z"/>
<path d="M5440 280 c0 -5 5 -10 10 -10 6 0 10 5 10 10 0 6 -4 10 -10 10 -5 0
-10 -4 -10 -10z"/>
<path d="M5478 283 c6 -2 18 -2 25 0 6 3 1 5 -13 5 -14 0 -19 -2 -12 -5z"/>
<path d="M5065 260 c-3 -5 1 -10 9 -10 9 0 16 5 16 10 0 6 -4 10 -9 10 -6 0
-13 -4 -16 -10z"/>
<path d="M5775 260 c-3 -5 1 -10 10 -10 9 0 13 5 10 10 -3 6 -8 10 -10 10 -2
0 -7 -4 -10 -10z"/>
<path d="M5348 253 c7 -3 16 -2 19 1 4 3 -2 6 -13 5 -11 0 -14 -3 -6 -6z"/>
<path d="M5708 253 c7 -3 16 -2 19 1 4 3 -2 6 -13 5 -11 0 -14 -3 -6 -6z"/>
<path d="M5950 249 c0 -5 5 -7 10 -4 6 3 10 8 10 11 0 2 -4 4 -10 4 -5 0 -10
-5 -10 -11z"/>
<path d="M4880 239 c0 -5 5 -7 10 -4 6 3 10 8 10 11 0 2 -4 4 -10 4 -5 0 -10
-5 -10 -11z"/>
<path d="M5110 240 c-11 -7 -11 -10 -2 -10 7 0 10 -4 7 -10 -3 -5 0 -10 7 -10
11 0 10 -2 0 -9 -11 -6 -10 -10 4 -15 25 -9 84 4 84 19 0 7 6 16 13 18 7 4 8
6 1 6 -6 1 -17 -6 -24 -14 -16 -19 -37 -19 -56 0 -14 13 -13 16 8 24 l23 10
-25 0 c-14 0 -32 -4 -40 -9z"/>
<path d="M5238 243 c7 -3 16 -2 19 1 4 3 -2 6 -13 5 -11 0 -14 -3 -6 -6z"/>
<path d="M5905 241 c-3 -5 -1 -12 4 -15 5 -3 11 1 15 9 6 16 -9 21 -19 6z"/>
<path d="M4300 234 c0 -3 5 -14 10 -25 9 -15 13 -17 24 -7 18 17 9 38 -15 38
-10 0 -19 -3 -19 -6z"/>
<path d="M4620 229 c0 -5 9 -9 20 -9 11 0 20 4 20 8 0 4 -9 8 -20 9 -11 1 -20
-2 -20 -8z"/>
<path d="M4753 223 c-13 -8 -23 -19 -23 -24 0 -14 50 -6 63 10 10 12 9 13 -2
6 -11 -6 -13 -4 -8 8 8 21 -1 21 -30 0z"/>
<path d="M4837 232 c-9 -2 -15 -8 -11 -13 3 -6 0 -18 -7 -27 -7 -9 0 -4 15 11
30 31 31 35 3 29z"/>
<path d="M5070 230 c0 -5 5 -10 11 -10 5 0 7 5 4 10 -3 6 -8 10 -11 10 -2 0
-4 -4 -4 -10z"/>
<path d="M6291 217 c17 -32 19 -33 19 -10 0 12 -7 23 -15 27 -13 5 -14 2 -4
-17z"/>
<path d="M4676 214 c-5 -14 -4 -15 9 -4 17 14 19 20 6 20 -5 0 -12 -7 -15 -16z"/>
<path d="M5997 223 c-4 -3 -7 -11 -7 -17 0 -6 5 -5 12 2 6 6 9 14 7 17 -3 3
-9 2 -12 -2z"/>
<path d="M6125 221 l-30 -7 33 -5 c22 -4 32 -2 32 8 0 7 -1 12 -2 12 -2 -1
-16 -4 -33 -8z"/>
<path d="M4905 210 c-3 -5 -2 -10 4 -10 5 0 13 5 16 10 3 6 2 10 -4 10 -5 0
-13 -4 -16 -10z"/>
<path d="M4945 210 c3 -5 8 -10 11 -10 2 0 4 5 4 10 0 6 -5 10 -11 10 -5 0 -7
-4 -4 -10z"/>
<path d="M6185 200 c-3 -5 -1 -10 4 -10 6 0 11 5 11 10 0 6 -2 10 -4 10 -3 0
-8 -4 -11 -10z"/>
<path d="M6226 198 c3 -5 12 -7 20 -4 8 3 14 1 14 -5 0 -6 5 -7 11 -4 14 9 5
17 -26 20 -14 2 -23 -1 -19 -7z"/>
<path d="M4255 189 c-11 -16 -1 -19 13 -3 7 8 8 14 3 14 -5 0 -13 -5 -16 -11z"/>
<path d="M5380 175 c-7 -9 -8 -15 -2 -15 5 0 12 7 16 15 3 8 4 15 2 15 -2 0
-9 -7 -16 -15z"/>
<path d="M5858 183 c6 -2 18 -2 25 0 6 3 1 5 -13 5 -14 0 -19 -2 -12 -5z"/>
<path d="M5915 180 c3 -5 8 -10 11 -10 2 0 4 5 4 10 0 6 -5 10 -11 10 -5 0 -7
-4 -4 -10z"/>
<path d="M6010 179 c0 -5 5 -7 10 -4 6 3 10 8 10 11 0 2 -4 4 -10 4 -5 0 -10
-5 -10 -11z"/>
<path d="M6210 180 c0 -5 5 -10 11 -10 5 0 7 5 4 10 -3 6 -8 10 -11 10 -2 0
-4 -4 -4 -10z"/>
<path d="M4310 158 c-12 -22 -12 -22 6 -6 10 10 15 20 12 24 -4 3 -12 -5 -18
-18z"/>
<path d="M6076 163 c-6 -14 -5 -15 5 -6 7 7 10 15 7 18 -3 3 -9 -2 -12 -12z"/>
<path d="M4365 161 c-3 -5 -1 -12 4 -15 5 -3 11 1 15 9 6 16 -9 21 -19 6z"/>
<path d="M6100 159 c0 -5 5 -7 10 -4 6 3 10 8 10 11 0 2 -4 4 -10 4 -5 0 -10
-5 -10 -11z"/>
<path d="M5388 153 c-10 -2 -15 -10 -11 -19 8 -21 29 -17 29 6 0 11 0 19 -1
19 0 -1 -8 -3 -17 -6z"/>
<path d="M6150 149 c0 -5 5 -7 10 -4 6 3 10 8 10 11 0 2 -4 4 -10 4 -5 0 -10
-5 -10 -11z"/>
<path d="M6195 128 c-8 -18 -14 -29 -15 -24 0 5 -7 3 -15 -4 -8 -7 -15 -9 -15
-5 0 4 -6 2 -14 -4 -8 -6 -18 -11 -22 -10 -20 3 -44 -2 -44 -9 0 -10 73 1 113
16 15 7 27 19 27 28 0 9 8 23 18 30 16 13 16 13 -1 14 -11 0 -24 -13 -32 -32z"/>
<path d="M4248 143 c6 -2 18 -2 25 0 6 3 1 5 -13 5 -14 0 -19 -2 -12 -5z"/>
<path d="M5005 140 c-4 -6 1 -7 11 -3 25 9 12 -19 -14 -33 -34 -17 -35 -22 -6
-16 22 4 26 2 21 -12 -4 -9 -2 -16 2 -16 5 0 11 7 15 15 3 8 1 15 -4 15 -18 0
13 49 34 53 12 2 5 5 -16 6 -20 0 -40 -3 -43 -9z"/>
<path d="M5660 139 c0 -5 5 -7 10 -4 6 3 10 8 10 11 0 2 -4 4 -10 4 -5 0 -10
-5 -10 -11z"/>
<path d="M5898 143 c7 -3 16 -2 19 1 4 3 -2 6 -13 5 -11 0 -14 -3 -6 -6z"/>
<path d="M4130 126 c0 -10 8 -16 22 -16 12 0 19 1 17 3 -2 1 -12 9 -21 16 -15
12 -18 11 -18 -3z"/>
<path d="M5707 133 c-4 -3 -7 -11 -7 -17 0 -6 5 -5 12 2 6 6 9 14 7 17 -3 3
-9 2 -12 -2z"/>
<path d="M5410 113 l-25 -14 25 3 c14 1 30 -1 35 -4 6 -4 17 -3 25 3 12 7 10
9 -7 9 -12 0 -23 4 -25 8 -1 4 -14 2 -28 -5z"/>
<path d="M6041 121 c-7 -5 -9 -11 -5 -14 5 -3 15 1 22 9 14 16 5 18 -17 5z"/>
<path d="M4430 109 c0 -5 5 -7 10 -4 6 3 10 8 10 11 0 2 -4 4 -10 4 -5 0 -10
-5 -10 -11z"/>
<path d="M5100 110 c0 -5 5 -10 10 -10 6 0 10 5 10 10 0 6 -4 10 -10 10 -5 0
-10 -4 -10 -10z"/>
<path d="M5505 110 c3 -5 8 -10 11 -10 2 0 4 5 4 10 0 6 -5 10 -11 10 -5 0 -7
-4 -4 -10z"/>
<path d="M6095 110 c-3 -5 -12 -7 -20 -3 -8 3 -15 1 -15 -5 0 -13 27 -9 42 6
7 7 9 12 6 12 -4 0 -9 -4 -13 -10z"/>
<path d="M5285 90 c-9 -14 3 -30 23 -30 13 0 14 -2 4 -9 -10 -6 -8 -10 8 -14
16 -4 20 -1 18 11 -2 9 -13 18 -25 20 -14 2 -20 8 -16 18 6 16 -3 19 -12 4z"/>
<path d="M5758 93 c6 -2 18 -2 25 0 6 3 1 5 -13 5 -14 0 -19 -2 -12 -5z"/>
<path d="M5896 87 c-16 -12 -16 -13 2 -13 10 0 19 6 19 13 0 7 -1 13 -2 13 -1
0 -9 -6 -19 -13z"/>
<path d="M5328 83 c7 -3 16 -2 19 1 4 3 -2 6 -13 5 -11 0 -14 -3 -6 -6z"/>
<path d="M5436 76 c3 -8 12 -12 21 -9 12 5 12 7 1 14 -20 13 -28 11 -22 -5z"/>
<path d="M6039 81 c-2 -5 -29 -13 -59 -16 -55 -6 -80 -15 -44 -15 11 0 25 -5
31 -11 8 -8 13 -8 17 0 4 6 18 11 32 11 23 0 43 24 31 36 -3 3 -7 1 -8 -5z"/>
<path d="M4460 65 c-7 -9 -20 -13 -29 -10 -11 3 -10 0 3 -10 17 -13 21 -13 34
6 17 24 10 36 -8 14z"/>
<path d="M5512 55 c-12 -14 -26 -25 -31 -25 -5 0 -11 -7 -15 -15 -4 -12 -2
-13 16 -2 16 9 22 9 25 0 6 -16 103 -18 103 -3 0 10 -14 14 -37 11 -8 -1 -10
5 -6 15 5 13 1 12 -16 -5 -12 -12 -26 -19 -31 -16 -17 10 -11 25 8 19 14 -5
15 -4 2 5 -13 9 -12 12 5 25 11 9 15 16 9 16 -6 0 -20 -11 -32 -25z"/>
<path d="M5620 71 c-34 -7 -35 -7 -8 -12 18 -4 32 -1 39 7 6 8 10 13 8 13 -2
-1 -20 -5 -39 -8z"/>
<path d="M5690 64 c-17 -9 -19 -14 -9 -14 9 0 23 -7 30 -16 12 -15 11 -16 -9
-10 -23 8 -62 0 -62 -12 0 -4 37 -8 83 -10 61 -2 78 1 67 9 -11 8 -8 9 15 3
52 -12 119 -14 132 -2 8 6 13 6 13 1 0 -6 14 -10 30 -11 17 0 28 3 25 8 -3 5
9 5 27 -1 43 -12 188 -12 188 0 0 6 -10 9 -22 9 -79 -5 -127 3 -131 19 -4 16
-5 16 -6 2 -1 -14 -11 -16 -63 -13 -35 2 -74 7 -88 11 -14 3 -50 5 -80 4 -43
-1 -51 1 -37 9 9 6 22 8 29 4 7 -5 8 -3 3 5 -8 14 -56 6 -66 -10 -3 -6 -18 -7
-35 -3 -24 6 -25 8 -9 14 10 4 14 9 9 12 -5 2 -20 -1 -34 -8z"/>
<path d="M6180 70 c0 -5 -5 -10 -11 -10 -6 0 -18 -8 -27 -17 -16 -16 -16 -16
0 -10 10 3 20 2 23 -4 4 -5 11 -6 18 -2 7 4 4 9 -9 14 -15 6 -15 8 -3 8 9 1
22 8 29 16 10 12 10 15 -4 15 -9 0 -16 -4 -16 -10z"/>
<path d="M4920 66 c0 -2 7 -6 15 -10 8 -3 15 -1 15 4 0 6 -7 10 -15 10 -8 0
-15 -2 -15 -4z"/>
<path d="M5480 55 c-11 -13 -10 -14 4 -9 9 3 16 10 16 15 0 13 -6 11 -20 -6z"/>
<path d="M4505 50 c-16 -4 -22 -8 -12 -9 9 0 17 -5 17 -10 0 -5 11 -8 24 -7
16 1 21 5 15 12 -5 6 -6 14 -2 17 7 8 -1 7 -42 -3z"/>
<path d="M4788 53 c6 -2 9 -10 5 -16 -4 -7 0 -8 11 -4 13 5 17 3 13 -7 -4 -10
-1 -13 8 -10 7 3 13 14 12 25 -1 14 -9 19 -32 18 -16 0 -24 -3 -17 -6z"/>
<path d="M5407 43 c4 -16 13 -23 29 -23 13 0 24 5 24 11 0 6 -7 8 -16 5 -10
-4 -22 1 -30 11 -12 17 -13 16 -7 -4z"/>
<path d="M6108 53 c-10 -2 -18 -9 -18 -14 0 -6 8 -5 20 1 11 6 20 13 20 15 0
3 -1 4 -2 4 -2 -1 -11 -3 -20 -6z"/>
<path d="M5025 40 l-20 -9 20 0 c11 0 27 4 35 9 13 9 13 10 0 9 -8 0 -24 -4
-35 -9z"/>
<path d="M5590 40 c0 -5 5 -10 10 -10 6 0 10 5 10 10 0 6 -4 10 -10 10 -5 0
-10 -4 -10 -10z"/>
<path d="M910 28 c0 -5 7 -8 16 -8 8 0 12 -4 9 -10 -8 -14 5 -12 34 4 24 13
24 14 -17 18 -23 2 -42 0 -42 -4z"/>
<path d="M1023 27 c0 -7 11 -13 24 -13 13 -1 23 3 23 9 0 6 -3 7 -6 4 -4 -3
-14 -2 -24 3 -11 6 -17 5 -17 -3z"/>
<path d="M1143 24 c0 -8 6 -14 14 -14 7 0 13 4 13 9 0 5 -6 11 -13 14 -8 3
-14 -1 -14 -9z"/>
<path d="M4931 23 c-7 -8 -10 -17 -7 -20 9 -9 29 13 25 25 -2 6 -10 3 -18 -5z"/>
<path d="M5378 33 c7 -3 16 -2 19 1 4 3 -2 6 -13 5 -11 0 -14 -3 -6 -6z"/>
<path d="M842 15 c-11 -12 -10 -15 3 -15 8 0 15 4 15 9 0 5 8 12 18 14 14 4
14 5 -3 5 -11 1 -26 -5 -33 -13z"/>
<path d="M4855 19 c-10 -15 3 -25 16 -12 7 7 7 13 1 17 -6 3 -14 1 -17 -5z"/>
<path d="M5120 20 c-24 -15 -8 -17 30 -4 30 11 32 13 10 13 -14 1 -32 -3 -40
-9z"/>
<path d="M5280 10 c0 -5 7 -7 15 -4 8 4 15 8 15 10 0 2 -7 4 -15 4 -8 0 -15
-4 -15 -10z"/>
</g>
</svg>
