<?xml version="1.0" standalone="no"?>
<!DOCTYPE svg PUBLIC "-//W3C//DTD SVG 20010904//EN"
 "http://www.w3.org/TR/2001/REC-SVG-20010904/DTD/svg10.dtd">
<svg version="1.0" xmlns="http://www.w3.org/2000/svg"
 width="736.000000pt" height="1104.000000pt" viewBox="0 0 736.000000 1104.000000"
 preserveAspectRatio="xMidYMid meet">

<g transform="translate(0.000000,1104.000000) scale(0.100000,-0.100000)"
fill="#000000" stroke="none">
<path d="M0 5520 l0 -5520 3680 0 3680 0 0 5520 0 5520 -3680 0 -3680 0 0
-5520z m3188 43 c15 -9 32 -23 39 -31 11 -13 32 -12 169 7 86 11 160 18 165
15 6 -3 16 0 24 6 11 9 22 9 49 -1 29 -11 36 -10 51 4 9 10 31 17 48 17 27 -1
29 -2 14 -11 -10 -6 -25 -8 -33 -5 -11 4 -13 0 -8 -21 10 -37 -15 -52 -66 -43
-21 4 -43 4 -47 -1 -4 -4 -19 -9 -33 -11 -18 -2 -28 -12 -35 -35 l-11 -32 -13
30 c-7 16 -19 29 -26 29 -12 0 -12 -6 1 -35 16 -40 17 -48 5 -41 -5 4 -12 0
-14 -6 -4 -10 -8 -9 -16 2 -14 19 -14 43 -1 35 11 -7 12 -3 4 19 -10 27 -31
-5 -27 -41 2 -18 -1 -33 -7 -33 -5 0 -10 5 -10 12 0 25 -30 -17 -33 -47 -3
-17 -2 -21 1 -10 l4 20 9 -20 c8 -17 9 -15 6 8 -5 32 10 36 21 6 12 -32 2 -78
-19 -90 -16 -8 -21 -5 -29 16 -6 15 -14 24 -20 20 -6 -4 -6 -15 0 -31 7 -19 6
-31 -6 -49 -17 -27 -12 -101 7 -90 5 4 9 1 9 -5 0 -6 5 -8 11 -4 8 5 10 -3 7
-25 -2 -17 -2 -29 0 -26 3 3 12 -4 19 -15 8 -11 19 -18 24 -15 5 4 9 -1 9 -9
0 -9 -4 -16 -10 -16 -13 0 -25 -50 -14 -59 5 -3 17 -19 26 -36 9 -16 23 -30
30 -30 7 0 14 -4 16 -8 3 -9 -42 -35 -155 -91 -40 -19 -73 -39 -73 -44 0 -5
-22 -34 -50 -63 -27 -30 -54 -66 -61 -81 -6 -15 -16 -25 -22 -21 -6 4 -8 0 -4
-10 4 -11 2 -14 -8 -11 -10 4 -12 -1 -9 -18 4 -21 4 -21 -5 -3 -6 14 -4 25 5
36 16 18 18 39 4 39 -5 0 -10 -4 -10 -10 0 -18 -15 -11 -25 13 -11 24 -57 38
-53 15 2 -7 -3 -13 -9 -12 -38 3 -43 5 -43 18 0 8 -15 19 -32 26 -30 10 -31
12 -15 24 9 7 17 18 17 25 0 12 -23 15 -33 4 -15 -14 -61 -11 -74 5 -11 12
-16 14 -19 5 -6 -14 -25 -18 -23 -5 3 18 -2 33 -20 49 -10 10 -21 28 -24 41
-4 19 1 27 29 44 19 11 34 26 34 34 0 16 31 34 59 34 12 0 21 5 21 10 0 6 -7
10 -15 10 -28 0 -15 17 23 29 20 6 60 10 87 7 58 -5 99 10 72 26 -21 11 -22
38 -2 38 8 0 12 6 9 13 -3 8 -15 13 -27 13 -15 -1 -21 4 -19 16 1 10 -6 23
-18 30 -11 7 -20 18 -20 25 0 7 -3 12 -7 12 -36 -6 -53 3 -53 26 0 17 -6 25
-17 26 -17 1 -17 2 0 6 17 4 42 48 39 66 -1 4 6 7 15 7 15 0 14 2 -3 14 -18
14 -18 15 -1 21 31 12 19 33 -19 33 -49 0 -56 12 -8 13 21 1 42 1 46 0 4 0 5
6 2 14 -4 8 -10 15 -15 15 -5 0 -9 4 -9 9 0 11 40 9 59 -3 15 -10 28 1 33 29
2 13 12 21 31 23 35 4 37 32 2 32 -31 0 -33 16 -4 25 17 6 19 9 8 16 -14 9
-12 10 26 13 13 0 21 9 23 24 4 27 31 29 70 5z m1132 -25 c-4 -44 0 -69 10
-63 6 3 10 19 10 36 0 30 9 36 27 18 6 -6 21 -8 33 -4 17 5 19 10 9 21 -9 11
-7 14 10 14 12 0 24 -6 27 -14 3 -8 21 -17 40 -20 27 -6 34 -11 34 -31 0 -13
4 -26 8 -29 5 -3 8 -28 7 -55 -1 -28 3 -51 7 -51 4 0 8 8 8 18 0 9 4 23 8 30
5 7 8 -4 8 -27 -1 -22 -4 -43 -8 -47 -5 -4 -8 -2 -8 4 0 20 -27 14 -54 -12
-34 -31 -35 -54 -1 -32 23 15 115 23 115 10 0 -16 -47 -54 -67 -54 -24 0 -32
15 -11 22 7 3 8 7 3 10 -18 10 -75 -21 -75 -40 0 -10 -5 -23 -12 -30 -9 -9 -9
-12 0 -12 7 0 12 -5 12 -11 0 -6 -9 -9 -19 -6 -12 3 -22 -1 -25 -9 -3 -8 -19
-14 -37 -14 -24 0 -30 -4 -25 -15 3 -9 0 -15 -10 -15 -8 0 -13 -4 -9 -9 3 -5
1 -12 -5 -16 -5 -3 -9 -21 -9 -38 2 -30 2 -31 6 -4 2 15 9 27 14 27 5 0 9 8 9
18 1 15 2 15 15 -2 10 -13 12 -23 5 -30 -24 -24 -11 -34 28 -23 20 6 43 15 51
21 7 6 20 11 28 12 12 2 12 0 -1 -15 -20 -22 -12 -47 16 -54 14 -4 18 -11 14
-25 -8 -25 20 -55 45 -49 20 5 27 -17 10 -27 -5 -3 -7 -15 -4 -26 4 -14 0 -20
-11 -20 -9 0 -16 -4 -16 -10 0 -5 5 -10 11 -10 6 0 17 -6 25 -14 10 -11 31
-13 75 -10 33 2 65 1 72 -3 6 -4 28 -6 49 -4 22 1 38 -2 38 -8 0 -6 6 -11 14
-11 8 0 16 -7 20 -15 3 -8 12 -15 20 -15 16 0 46 -26 46 -41 0 -5 -7 -9 -15
-9 -8 0 -20 -10 -26 -22 -7 -13 -19 -28 -27 -34 -23 -17 -7 -47 22 -42 17 3
32 -5 55 -29 20 -21 39 -32 47 -29 8 3 12 2 9 -3 -3 -5 -1 -12 5 -16 5 -3 10
-16 10 -28 1 -20 2 -21 14 -4 16 21 26 22 26 1 0 -18 17 -37 43 -47 24 -9 22
-37 -3 -37 -14 0 -20 -7 -20 -23 0 -19 -10 -27 -51 -41 -28 -10 -53 -25 -56
-32 -3 -8 -15 -14 -27 -14 -12 0 -32 -7 -44 -16 -13 -9 -32 -14 -43 -11 -15 4
-19 1 -17 -10 3 -16 9 -20 58 -42 24 -11 24 -11 -7 -7 -41 7 -52 -18 -18 -40
19 -12 23 -22 19 -39 -3 -13 -1 -26 5 -29 15 -10 14 -47 -1 -45 -34 4 -42 -1
-22 -16 18 -14 18 -14 -8 -15 -18 0 -28 -5 -28 -15 0 -12 8 -14 40 -9 29 5 40
3 40 -6 0 -9 12 -10 43 -6 33 5 47 3 57 -9 7 -8 9 -15 4 -15 -20 0 23 -20 44
-20 27 0 32 -40 5 -41 -11 0 -13 -3 -5 -6 7 -3 19 -18 27 -34 9 -16 22 -29 30
-29 12 0 14 -7 9 -27 -7 -25 -6 -27 9 -14 14 11 17 11 17 0 0 -8 11 -1 23 15
16 20 26 25 31 18 11 -19 24 -14 29 11 4 22 6 19 21 -25 3 -10 14 -18 25 -18
21 0 34 -33 19 -48 -6 -6 -6 -23 1 -48 6 -21 8 -40 6 -43 -3 -2 -5 1 -5 7 0
15 -36 16 -45 2 -3 -5 2 -10 12 -11 10 0 13 -3 6 -5 -7 -3 -20 -1 -29 4 -33
18 -54 3 -54 -39 0 -38 9 -46 43 -40 4 0 7 -6 7 -14 0 -8 11 -25 25 -39 l25
-25 11 21 c10 19 12 20 21 5 5 -10 6 -22 3 -27 -7 -12 31 -64 48 -66 7 -1 18
-2 25 -3 8 -1 11 -8 7 -20 -4 -15 1 -21 25 -30 28 -9 30 -13 20 -31 -10 -18
-8 -22 9 -27 12 -3 21 -11 21 -19 0 -7 9 -18 20 -24 11 -6 17 -16 14 -25 -4
-8 -1 -15 6 -15 6 0 8 5 5 10 -3 6 1 10 9 10 9 0 16 -8 17 -17 0 -16 1 -16 8
1 5 14 10 16 15 8 4 -7 4 -17 1 -22 -3 -6 2 -13 11 -17 10 -4 19 -2 22 5 3 11
52 18 52 8 0 -2 3 -12 6 -20 5 -14 2 -15 -21 -6 -22 9 -26 8 -22 -4 3 -8 2
-16 -2 -18 -5 -2 -5 -14 0 -27 8 -19 12 -21 24 -11 22 18 18 -4 -4 -24 -11
-10 -17 -24 -15 -31 4 -10 -1 -12 -15 -8 -23 6 -27 -6 -8 -26 10 -10 8 -11 -8
-5 -11 4 -26 12 -33 17 -9 7 -11 5 -6 -9 4 -10 4 -16 -1 -12 -4 4 -14 0 -21
-10 -12 -15 -14 -13 -15 18 -1 19 -2 41 -2 48 1 6 -10 12 -23 12 -27 0 -30
-16 -9 -44 17 -23 20 -46 5 -46 -6 0 -13 14 -17 31 -5 29 -8 30 -47 27 -32 -2
-43 -8 -52 -28 -9 -20 -9 -27 4 -37 9 -7 11 -13 6 -13 -6 0 -15 5 -22 12 -9 9
-15 9 -24 0 -17 -17 -28 -15 -21 4 5 13 2 15 -15 9 -16 -5 -22 -2 -22 9 0 9
-7 16 -15 16 -8 0 -15 -7 -15 -15 0 -8 6 -15 13 -15 6 0 19 -5 27 -10 13 -9
13 -11 0 -20 -13 -9 -13 -11 0 -20 13 -9 13 -11 0 -20 -8 -6 -25 -9 -36 -7
-16 3 -20 0 -16 -15 5 -21 -1 -23 -27 -7 -25 16 -73 3 -70 -19 3 -30 -1 -40
-15 -45 -10 -4 -13 -1 -9 9 6 17 -13 19 -20 2 -4 -10 -8 -9 -16 2 -9 13 -11
13 -11 -2 0 -11 -7 -15 -22 -12 -13 2 -17 2 -10 -2 6 -3 12 -12 12 -20 0 -8 5
-14 10 -14 6 0 10 -5 10 -12 0 -9 -3 -9 -12 0 -15 15 -48 16 -48 2 0 -6 -9
-14 -21 -18 -19 -7 -19 -9 -5 -21 11 -9 16 -10 16 -2 0 6 5 11 10 11 6 0 9 -3
8 -7 -4 -19 18 -46 46 -59 19 -8 24 -13 14 -14 -10 0 -18 -5 -18 -11 0 -5 5
-7 10 -4 6 3 10 1 10 -4 0 -13 -3 -13 -24 -5 -8 3 -13 11 -10 19 3 7 -2 15
-12 19 -11 4 -15 2 -11 -8 4 -10 1 -13 -8 -10 -15 6 -28 34 -20 42 3 3 5 0 5
-6 0 -7 5 -12 10 -12 18 0 10 22 -10 27 -11 3 -20 10 -20 15 0 5 -5 6 -10 3
-6 -4 -9 -1 -8 6 2 6 -12 16 -29 21 -30 8 -46 28 -23 28 6 0 10 -4 10 -10 0
-5 15 -10 33 -9 l32 1 -32 9 c-18 5 -33 14 -33 20 0 6 -4 8 -9 5 -5 -3 -14 1
-21 10 -7 8 -19 13 -27 10 -7 -3 -13 -2 -13 2 0 5 -20 23 -45 42 -25 19 -45
39 -45 45 0 7 -9 20 -19 29 -11 10 -22 28 -25 41 -8 30 -52 62 -91 67 -38 4
-43 28 -15 66 12 16 24 47 27 70 5 36 2 44 -26 71 -17 17 -37 32 -44 32 -51 6
-87 5 -87 -4 0 -5 -7 -15 -16 -21 -28 -21 -30 -91 -3 -142 23 -45 23 -46 4
-60 -10 -8 -27 -14 -38 -14 -10 0 -48 -29 -83 -65 -36 -36 -70 -63 -75 -59 -5
3 -8 0 -7 -8 2 -7 -11 -19 -28 -26 -16 -8 -39 -27 -50 -43 -10 -16 -25 -29
-31 -29 -7 0 -13 -6 -13 -14 0 -8 -6 -16 -14 -19 -9 -4 -12 -14 -9 -25 3 -15
-2 -22 -19 -27 -12 -4 -26 -13 -30 -19 -4 -6 -10 -7 -15 -3 -4 5 -1 12 7 17
13 8 12 10 -2 10 -23 0 -32 -18 -18 -35 9 -11 17 -12 34 -4 21 10 21 10 1 -6
-11 -10 -32 -21 -47 -27 -30 -11 -38 -28 -13 -28 8 0 15 -5 15 -11 0 -5 4 -7
10 -4 5 3 20 1 32 -5 20 -10 21 -9 6 3 -15 12 -12 18 35 64 51 50 151 123 168
123 4 0 12 7 17 16 7 13 13 14 29 6 15 -8 20 -8 20 3 0 7 -7 11 -15 8 -11 -5
-12 -3 -2 13 17 26 70 68 77 61 9 -10 16 -174 8 -194 -14 -32 -12 -96 7 -216
13 -81 17 -141 12 -190 -4 -50 -1 -92 10 -139 15 -66 13 -104 -6 -92 -5 3 -63
6 -129 7 -113 0 -120 1 -124 21 -6 29 -11 116 -7 116 2 0 17 -9 33 -21 52 -36
54 -14 3 26 -32 26 -48 46 -46 58 2 12 -3 17 -18 17 -15 0 -20 -5 -18 -17 2
-9 -16 -37 -39 -62 -23 -25 -38 -48 -32 -49 5 -2 20 9 32 24 l22 29 7 -45 c3
-25 7 -57 7 -71 l1 -26 -192 -1 c-106 -1 -215 2 -242 5 l-48 6 5 40 c4 25 -2
61 -15 101 -16 48 -22 105 -29 271 -5 116 -12 237 -15 270 -6 53 -5 58 10 46
9 -7 25 -11 36 -8 11 3 20 0 20 -6 0 -6 2 -8 5 -5 3 3 2 15 -3 28 -7 20 -10
21 -15 7 -4 -10 -11 -17 -17 -17 -6 0 -4 7 4 16 9 8 16 20 16 25 0 15 -18 10
-30 -8 -10 -17 -10 -16 -8 2 2 11 11 21 21 23 13 3 25 -14 49 -65 18 -37 31
-77 30 -88 -2 -15 0 -17 7 -6 7 12 14 10 36 -8 32 -24 87 -27 125 -7 16 9 32
11 47 5 17 -6 21 -5 16 6 -7 19 17 19 31 0 7 -10 16 -12 26 -5 22 14 5 23 -42
24 l-43 1 17 50 c10 28 18 59 18 70 l1 20 9 -20 c12 -28 12 -37 0 -30 -6 4
-10 -5 -10 -20 0 -20 4 -26 15 -21 9 3 24 1 34 -6 13 -8 23 -8 37 1 13 8 14
11 4 10 -8 -1 -22 0 -30 4 -8 3 -22 8 -30 10 -8 3 -2 6 13 6 27 1 28 3 22 34
-7 30 -6 31 8 12 24 -32 32 -10 8 23 -12 17 -21 36 -21 44 -1 9 -5 8 -14 -5
-7 -9 -11 -29 -8 -45 4 -22 2 -25 -8 -15 -8 7 -13 27 -12 45 1 18 5 120 9 226
7 173 10 195 27 207 12 9 17 21 13 35 -3 11 2 46 10 77 15 59 12 102 -12 157
-4 10 -3 60 4 111 11 88 11 95 -9 138 -15 32 -20 55 -15 76 3 16 2 32 -4 35
-12 8 -5 68 14 116 7 19 16 82 19 140 9 167 7 165 86 82 36 -39 88 -99 115
-134 50 -65 164 -171 246 -230 26 -18 81 -62 122 -98 l77 -65 0 -56 c0 -41 8
-75 30 -123 17 -37 35 -64 40 -61 6 4 10 -7 10 -23 0 -31 22 -58 39 -48 5 3
11 0 14 -6 2 -7 2 11 -1 40 -5 61 2 66 22 17 10 -23 22 -35 34 -35 23 0 35 23
21 37 -5 5 -11 18 -13 29 -2 10 -7 31 -11 47 -4 15 -4 27 -1 27 4 0 26 -18 51
-41 41 -38 74 -48 82 -24 2 6 -6 21 -18 34 -20 21 -20 23 -4 35 16 11 12 17
-31 55 -27 24 -72 60 -101 80 -29 20 -55 46 -58 59 -3 12 -10 22 -15 22 -6 0
-10 10 -10 23 0 21 -27 58 -84 117 -13 14 -35 43 -49 66 -14 22 -38 52 -54 65
-31 27 -50 54 -59 82 -4 9 -13 17 -20 17 -8 0 -14 5 -14 10 0 6 -9 10 -20 10
-13 0 -17 5 -14 14 6 16 -29 31 -46 21 -6 -4 -10 -3 -9 2 4 21 -2 32 -15 27
-9 -3 -21 5 -31 20 -10 14 -21 23 -26 20 -5 -3 -9 2 -9 10 0 9 -5 16 -11 16
-5 0 -15 14 -21 30 -8 25 -13 28 -24 19 -14 -12 -16 -9 -18 26 -1 11 -7 19
-13 18 -17 -4 -53 28 -53 46 0 9 -17 33 -39 56 -24 25 -43 58 -51 88 -13 47
-13 47 -46 41 -23 -4 -34 -2 -34 5 0 7 -4 9 -10 6 -5 -3 -10 -2 -10 3 0 5 -16
17 -35 28 -58 31 -51 43 48 83 28 11 30 35 2 24 -31 -11 -14 26 20 46 31 18
35 25 36 63 1 24 3 35 6 26 2 -10 9 -18 14 -18 11 0 12 33 0 46 -10 11 15 74
30 74 5 0 7 -4 4 -10 -3 -5 -1 -18 4 -27 8 -15 10 -11 11 19 0 20 -5 40 -10
43 -6 3 -17 20 -26 37 -15 29 -15 30 5 23 30 -9 26 6 -15 53 -32 38 -34 43
-20 58 18 17 23 99 6 89 -5 -3 -10 -19 -10 -36 0 -16 -5 -29 -11 -29 -5 0 -8
4 -5 9 3 5 -1 14 -10 21 -8 7 -13 19 -10 25 2 7 -4 18 -15 26 -10 7 -19 19
-19 25 0 11 -55 42 -101 57 -9 3 -33 2 -53 -3 -29 -6 -36 -5 -36 7 0 10 7 14
20 10 13 -3 20 0 20 9 0 8 9 14 20 14 12 0 20 -7 20 -17 0 -14 2 -15 9 -4 6 9
19 12 42 7 19 -4 42 -7 51 -7 10 0 17 -5 15 -11 -1 -6 16 -12 41 -14 23 -1 40
2 36 7 -3 5 1 9 10 9 8 0 22 3 32 7 13 5 16 3 11 -10 -7 -18 8 -24 18 -7 10
16 35 12 35 -6 0 -10 6 -14 15 -10 17 6 22 -29 6 -38 -5 -4 -8 -17 -6 -31 2
-26 15 -48 15 -27 0 17 56 15 74 -3 8 -8 18 -15 22 -15 5 0 3 5 -4 12 -18 18
-16 78 3 78 9 0 15 9 15 21 0 12 8 23 20 26 11 3 20 14 20 24 0 11 3 19 6 19
3 0 5 -10 4 -22z m-160 -14 c0 -8 -5 -12 -10 -9 -6 4 -8 11 -5 16 9 14 15 11
15 -7z m50 -88 c0 -2 -11 -6 -25 -8 -14 -3 -25 -1 -25 3 0 5 11 9 25 9 14 0
25 -2 25 -4z m1138 -58 c-2 -7 2 -12 9 -11 7 2 10 -4 7 -12 -4 -8 -1 -15 5
-15 6 0 11 5 11 10 0 6 9 10 20 10 11 0 20 -4 20 -10 0 -18 16 -10 30 15 l13
25 21 -44 c18 -40 23 -44 48 -39 24 5 28 2 28 -18 0 -21 -7 -26 -47 -35 -27
-6 -61 -10 -78 -9 -16 1 -46 3 -65 4 -19 2 -29 5 -22 8 23 9 12 20 -15 16 -22
-4 -25 -2 -13 6 12 8 13 12 2 23 -11 11 -16 10 -26 -5 -12 -15 -15 -16 -26 -2
-18 21 1 55 43 77 40 21 37 20 35 6z m-338 -39 c-9 -31 -27 -59 -39 -59 -7 0
-31 72 -26 80 2 3 19 7 39 8 34 3 35 2 26 -29z m179 -18 c12 -8 12 -12 -2 -25
-21 -21 -22 -20 -22 9 0 27 3 29 24 16z m-68 -24 c-10 -9 -11 -8 -5 6 3 10 9
15 12 12 3 -3 0 -11 -7 -18z m136 -13 c2 -7 -8 -9 -27 -6 -16 2 -27 8 -24 14
8 12 46 6 51 -8z m-2910 -40 c-3 -3 -12 -4 -19 -1 -8 3 -5 6 6 6 11 1 17 -2
13 -5z m2803 -53 c0 -10 -105 -50 -108 -40 -6 14 25 39 41 34 7 -3 19 1 26 9
12 14 41 12 41 -3z m27 -27 c-3 -3 -12 -4 -19 -1 -8 3 -5 6 6 6 11 1 17 -2 13
-5z m-232 -112 c16 -11 15 -60 -1 -66 -19 -7 -18 -26 2 -26 9 0 14 -7 12 -17
-3 -13 -12 -17 -31 -15 -15 1 -27 -2 -27 -8 0 -6 -10 -14 -22 -19 -18 -6 -28
-2 -50 21 -33 35 -36 64 -9 73 11 3 22 14 25 23 10 30 76 52 101 34z m220 -2
c3 -5 -1 -10 -9 -10 -9 0 -16 5 -16 10 0 6 4 10 9 10 6 0 13 -4 16 -10z m-455
-14 c0 -3 -4 -8 -10 -11 -5 -3 -10 -1 -10 4 0 6 5 11 10 11 6 0 10 -2 10 -4z
m290 -6 c0 -5 -2 -10 -4 -10 -2 0 -12 -3 -20 -6 -12 -5 -15 -2 -10 10 7 17 34
22 34 6z m45 -73 c-4 -28 -15 -61 -25 -74 -18 -23 -33 -22 -24 2 3 7 -2 15
-10 18 -20 8 -21 37 -1 37 9 0 15 -9 15 -21 0 -24 23 -21 28 4 2 10 -3 17 -12
17 -9 0 -16 5 -16 10 0 6 -9 10 -20 10 -11 0 -20 4 -20 9 0 12 45 22 65 14 14
-5 16 -2 10 17 -5 16 -4 20 4 15 8 -5 10 -24 6 -58z m65 48 c-7 -8 -16 -15
-21 -15 -5 0 -9 7 -9 15 0 9 9 15 21 15 18 0 19 -2 9 -15z m36 -33 c-15 -15
-16 -15 -16 4 0 28 24 52 28 28 2 -9 -3 -24 -12 -32z m-171 -82 c3 -5 1 -10
-4 -10 -6 0 -11 5 -11 10 0 6 2 10 4 10 3 0 8 -4 11 -10z m15 -74 c0 -8 6 -17
13 -20 6 -3 3 -5 -8 -3 -20 2 -35 37 -16 37 6 0 11 -6 11 -14z m-33 -52 c-3
-3 -12 -4 -19 -1 -8 3 -5 6 6 6 11 1 17 -2 13 -5z m1203 -44 c0 -11 -4 -20
-10 -20 -5 0 -10 -7 -10 -15 0 -8 -4 -15 -10 -15 -14 0 -13 43 2 58 18 18 28
15 28 -8z m190 -20 c0 -5 -7 -10 -15 -10 -8 0 -15 5 -15 10 0 6 7 10 15 10 8
0 15 -4 15 -10z m-150 -30 c0 -5 -9 -10 -21 -10 -15 0 -19 -5 -15 -16 3 -8 2
-13 -3 -10 -11 7 -21 -17 -21 -50 0 -20 -4 -25 -22 -22 -18 2 -22 -2 -23 -22
0 -20 -4 -24 -22 -22 -24 3 -32 -15 -10 -23 6 -3 13 -22 15 -42 1 -20 3 -38 5
-39 1 -1 18 -5 37 -9 32 -6 37 -4 48 22 11 26 11 27 8 3 -10 -69 -52 -230 -59
-230 -5 0 -7 7 -3 15 3 8 1 15 -4 15 -5 0 -10 -8 -12 -17 -2 -10 -8 3 -12 29
-9 61 -33 76 -63 42 l-21 -24 24 0 c23 0 24 -3 19 -32 -8 -47 4 -60 44 -48 24
7 31 6 28 -3 -3 -7 -10 -11 -17 -9 -7 2 -16 -1 -19 -7 -3 -5 -19 -13 -34 -16
-24 -6 -28 -5 -25 11 2 13 -12 25 -52 46 -30 15 -49 28 -42 28 7 0 10 5 7 10
-4 6 -11 7 -17 4 -6 -4 -8 1 -3 15 4 13 2 21 -5 21 -18 0 -7 53 15 73 19 18
18 18 -61 14 -123 -7 -150 21 -68 72 26 16 42 30 36 32 -6 2 -8 9 -4 16 6 10
14 9 37 -3 15 -8 33 -13 39 -10 6 2 3 5 -7 5 -14 1 -16 5 -8 20 6 10 7 21 4
25 -8 7 44 56 60 56 7 0 22 6 33 14 15 11 31 12 57 6 21 -4 37 -4 37 1 0 5 6
9 13 10 6 0 26 16 42 34 29 32 65 46 65 25z m-3800 -79 c0 -5 -10 -12 -22 -16
-21 -7 -20 -8 12 -15 l35 -7 -40 -2 c-70 -2 -82 29 -15 42 14 2 26 5 28 6 1 0
2 -3 2 -8z m3863 -128 c-7 -2 -19 -2 -25 0 -7 3 -2 5 12 5 14 0 19 -2 13 -5z
m-2950 -87 c28 -53 30 -66 27 -140 -1 -44 -3 -112 -4 -151 -1 -38 -7 -80 -14
-92 -7 -12 -12 -29 -12 -38 0 -9 -5 -26 -12 -38 -9 -16 -12 -98 -10 -300 2
-287 16 -426 47 -474 8 -12 14 -42 14 -65 l-2 -43 -6 47 c-7 45 -21 77 -21 47
-1 -8 -7 -3 -15 11 -12 22 -14 23 -20 8 -10 -25 -31 -23 -38 3 -5 19 -2 21 28
17 33 -4 33 -3 28 32 -7 44 -24 65 -18 22 3 -31 3 -32 -37 -32 -32 0 -39 -3
-34 -15 4 -10 -1 -15 -14 -15 -11 0 -20 5 -20 10 0 6 4 10 9 10 5 0 9 21 8 48
0 26 -3 39 -5 30 -2 -10 -10 -18 -18 -18 -11 0 -13 6 -8 22 6 20 5 21 -10 9
-18 -15 -32 -9 -21 8 3 6 21 11 38 11 29 1 30 2 12 12 -11 6 -30 22 -42 35
-22 23 -23 23 -23 4 0 -13 7 -21 18 -21 16 -1 16 -1 0 -14 -10 -7 -18 -20 -18
-29 0 -8 -6 -17 -14 -20 -9 -4 -12 -14 -9 -26 6 -22 -3 -26 -24 -13 -10 6 -10
12 2 28 20 26 19 34 -5 34 -11 0 -20 -6 -20 -12 0 -7 -5 -5 -11 5 -6 10 -9 28
-7 40 1 12 -2 22 -7 22 -5 0 -8 -8 -7 -17 2 -10 -2 -18 -7 -18 -6 0 -11 12
-12 28 l-1 27 -9 -30 c-5 -16 -10 -42 -13 -56 -2 -14 -9 -36 -15 -48 -10 -17
-9 -21 4 -21 9 0 13 -4 10 -10 -3 -5 -1 -10 4 -10 6 0 11 -5 11 -12 0 -6 -11
-1 -24 11 -15 14 -22 29 -19 39 5 11 2 14 -10 9 -11 -4 -14 -2 -10 9 6 17 20
18 26 2 3 -7 6 -8 6 -3 0 6 -3 16 -8 24 -8 12 -12 12 -26 -2 -9 -10 -21 -15
-26 -11 -16 9 -49 81 -41 89 4 5 1 5 -6 1 -9 -5 -15 -1 -19 12 -3 14 -11 18
-25 14 -11 -2 -23 0 -27 5 -3 6 -28 20 -54 31 -47 21 -47 22 -29 40 11 11 33
28 51 38 19 11 35 31 40 51 11 41 -5 112 -30 135 -11 9 -19 20 -19 25 0 4 -16
8 -35 7 -19 -1 -37 1 -40 6 -6 10 -78 1 -86 -11 -3 -5 -13 -7 -22 -3 -12 4
-17 1 -17 -10 0 -9 -6 -16 -13 -16 -23 0 -37 -51 -26 -95 6 -22 13 -51 16 -64
3 -13 14 -26 24 -28 10 -3 20 -11 22 -17 9 -23 -9 -37 -52 -43 -22 -3 -41 -10
-41 -14 0 -5 -11 -9 -25 -9 -13 0 -39 -13 -57 -29 -18 -15 -40 -26 -48 -23
-12 4 -13 2 -3 -9 10 -12 7 -21 -12 -44 -13 -17 -24 -24 -25 -17 0 6 6 12 13
12 9 0 9 2 -1 9 -8 4 -12 12 -10 17 1 5 -6 10 -16 12 -15 3 -18 0 -14 -16 5
-18 3 -20 -18 -12 -14 6 -26 6 -29 0 -4 -6 3 -10 14 -10 17 0 21 -6 21 -30 0
-19 -5 -30 -14 -30 -8 0 -17 -7 -20 -16 -4 -9 -13 -14 -21 -10 -9 3 -15 0 -15
-9 0 -16 -12 -20 -23 -8 -4 3 0 15 10 25 15 17 15 18 0 18 -10 0 -17 5 -17 10
0 6 12 10 26 10 14 0 23 4 19 10 -3 6 -17 10 -31 10 -27 0 -34 20 -6 20 9 0
26 7 36 15 18 13 18 15 2 21 -10 4 -22 2 -28 -4 -15 -15 -80 17 -73 36 3 7 5
17 5 22 0 4 12 11 27 15 36 9 78 54 64 68 -18 18 -13 27 14 27 33 0 32 12 -2
27 -21 10 -28 10 -35 0 -6 -9 -10 -9 -18 3 -8 11 -9 9 -5 -11 6 -24 4 -26 -19
-22 -19 4 -26 11 -26 29 0 13 -6 33 -12 44 -11 17 -10 22 2 30 23 14 5 22 -25
10 -20 -7 -31 -8 -39 0 -7 7 -5 10 7 10 13 0 17 9 17 40 0 30 -4 40 -16 40
-23 0 -11 24 14 28 17 3 22 -2 22 -17 0 -18 6 -21 45 -21 47 0 60 15 24 28
-18 7 -19 10 -6 20 12 10 18 10 30 -3 15 -14 37 -21 37 -10 0 8 -36 42 -51 49
-8 3 2 3 21 -1 45 -8 81 -6 94 7 19 19 46 11 47 -12 1 -22 1 -22 8 2 4 14 12
25 18 25 6 0 15 3 19 8 4 4 16 7 26 7 17 0 17 -1 -2 -20 -12 -12 -25 -18 -30
-15 -8 5 -14 -15 -9 -27 1 -2 -11 -25 -25 -52 -14 -27 -26 -57 -26 -66 0 -20
47 -48 59 -34 13 13 50 76 57 96 3 9 18 20 34 23 15 3 37 16 48 28 11 12 34
35 52 51 17 17 33 39 36 51 3 12 34 41 70 66 120 82 183 124 225 149 49 29
138 114 229 217 34 40 67 70 71 67 5 -3 9 5 10 18 0 15 3 18 6 8 10 -24 26
-30 38 -13 9 12 14 13 20 3 4 -7 2 -16 -6 -22 -10 -6 -7 -8 10 -6 14 2 26 10
28 18 4 12 2 12 -5 2 -6 -9 -9 -3 -9 18 0 16 5 30 11 30 5 0 1 6 -9 14 -11 8
-26 11 -34 8 -10 -4 -8 2 5 15 10 12 23 20 28 19 5 -1 22 -28 39 -60z m-91 -8
c-7 -7 -12 -8 -12 -2 0 6 3 14 7 17 3 4 9 5 12 2 2 -3 -1 -11 -7 -17z m-762
-8 c0 -5 -5 -10 -11 -10 -5 0 -7 5 -4 10 3 6 8 10 11 10 2 0 4 -4 4 -10z m152
-29 c8 11 9 10 4 -5 -8 -24 10 -45 33 -39 13 3 20 -2 24 -17 7 -27 31 -22 35
7 2 14 9 19 21 16 9 -2 23 3 30 11 15 18 39 20 60 7 17 -11 -6 -54 -59 -111
-19 -20 -46 -53 -60 -72 -31 -42 -92 -96 -88 -77 2 8 10 19 18 26 13 10 13 12
0 17 -8 3 -24 4 -35 3 -12 -1 -19 3 -17 11 1 6 -3 12 -8 12 -5 0 -10 7 -10 15
0 8 6 12 14 9 24 -9 27 12 6 39 -11 14 -20 29 -20 34 0 4 5 1 10 -7 7 -11 12
-12 21 -3 9 9 6 15 -15 24 -24 12 -25 13 -10 30 12 13 15 28 10 50 -5 28 -4
30 10 18 13 -10 17 -10 26 2z m246 -12 c-2 -6 -8 -10 -13 -10 -5 0 -11 4 -13
10 -2 6 4 11 13 11 9 0 15 -5 13 -11z m2952 -9 c0 -5 -4 -10 -10 -10 -5 0 -10
5 -10 10 0 6 5 10 10 10 6 0 10 -4 10 -10z m-882 -28 c-5 -27 -28 -26 -28 2 0
19 4 24 15 19 9 -3 15 -12 13 -21z m947 -22 c3 -5 1 -10 -4 -10 -6 0 -11 5
-11 10 0 6 2 10 4 10 3 0 8 -4 11 -10z m25 -30 c0 -5 -4 -10 -10 -10 -5 0 -10
5 -10 10 0 6 5 10 10 10 6 0 10 -4 10 -10z m-53 -32 c-3 -8 -6 -5 -6 6 -1 11
2 17 5 13 3 -3 4 -12 1 -19z m-3310 -60 c-3 -8 -6 -5 -6 6 -1 11 2 17 5 13 3
-3 4 -12 1 -19z m2353 13 c0 -6 -4 -13 -10 -16 -5 -3 -10 1 -10 9 0 9 5 16 10
16 6 0 10 -4 10 -9z m30 -61 c0 -5 -7 -10 -16 -10 -8 0 -12 5 -9 10 3 6 10 10
16 10 5 0 9 -4 9 -10z m-2330 -66 c0 -8 -57 -64 -65 -64 -9 0 48 68 58 69 4 1
7 -2 7 -5z m-80 -93 c0 -5 -13 -19 -30 -31 -35 -25 -39 -17 -7 16 23 25 37 30
37 15z m-50 -71 c0 -5 -10 -10 -22 -10 -19 0 -20 -2 -8 -10 9 -6 10 -10 3 -10
-23 0 -24 20 -1 29 13 6 24 10 26 10 1 1 2 -3 2 -9z m-63 -52 c-3 -8 -6 -5 -6
6 -1 11 2 17 5 13 3 -3 4 -12 1 -19z m33 2 c0 -5 -5 -10 -11 -10 -5 0 -7 5 -4
10 3 6 8 10 11 10 2 0 4 -4 4 -10z m2995 -40 c18 0 18 -1 -4 -16 -18 -13 -25
-14 -31 -4 -5 9 -24 11 -59 8 -28 -3 -51 -1 -51 3 0 9 74 18 105 13 11 -2 29
-4 40 -4z m-3300 -10 c3 -5 2 -10 -4 -10 -5 0 -13 5 -16 10 -3 6 -2 10 4 10 5
0 13 -4 16 -10z m-5 -70 c0 -5 -4 -10 -10 -10 -5 0 -10 5 -10 10 0 6 5 10 10
10 6 0 10 -4 10 -10z m3160 -38 c0 -13 -40 -33 -53 -25 -7 4 -1 11 18 19 37
16 35 16 35 6z m-3281 -39 c0 -25 -1 -26 -9 -8 -12 27 -12 35 0 35 6 0 10 -12
9 -27z m3400 -52 c19 -12 3 -34 -20 -28 -15 4 -19 -1 -20 -21 -1 -22 -4 -18
-15 18 -13 41 -13 46 3 58 9 6 11 12 5 12 -9 0 -9 5 0 20 12 20 14 19 23 -15
6 -20 17 -40 24 -44z m-125 34 c-6 -16 -24 -21 -24 -7 0 11 11 22 21 22 5 0 6
-7 3 -15z m-3197 -117 c-3 -8 -6 -5 -6 6 -1 11 2 17 5 13 3 -3 4 -12 1 -19z
m3333 8 c0 -3 -4 -8 -10 -11 -5 -3 -10 -1 -10 4 0 6 5 11 10 11 6 0 10 -2 10
-4z m125 -36 c3 -6 -4 -10 -17 -10 -18 0 -20 2 -8 10 19 12 18 12 25 0z m-11
-35 c-7 -17 -20 -20 -29 -6 -3 5 3 12 12 14 10 3 19 5 20 6 1 0 0 -6 -3 -14z
m71 -143 c-3 -3 -11 0 -18 7 -9 10 -8 11 6 5 10 -3 15 -9 12 -12z m-3305 -11
c0 -6 -4 -13 -10 -16 -5 -3 -10 1 -10 9 0 9 5 16 10 16 6 0 10 -4 10 -9z m149
-23 c-1 -13 -5 -36 -9 -53 l-8 -30 -1 28 c0 16 -5 26 -10 22 -19 -11 -21 15
-4 34 24 26 33 26 32 -1z m696 -28 c3 -5 1 -10 -4 -10 -6 0 -11 5 -11 10 0 6
2 10 4 10 3 0 8 -4 11 -10z m-740 -21 c0 -8 -12 -14 -29 -16 -27 -2 -28 -1
-10 18 19 21 39 21 39 -2z m426 -5 c21 -22 21 -24 4 -18 -19 7 -19 6 -2 -12
15 -16 19 -17 27 -4 5 8 10 11 10 5 0 -5 -5 -17 -11 -25 -8 -11 -12 -12 -16
-2 -7 17 -23 15 -23 -3 0 -23 -16 -18 -17 5 -1 11 2 18 7 15 12 -7 9 36 -3 53
-17 21 -1 13 24 -14z m2797 -4 c-14 -22 -24 -19 -15 5 4 8 11 15 17 15 6 0 6
-7 -2 -20z m-2570 -12 c-2 -6 -14 -12 -26 -13 -11 -1 -19 2 -16 7 4 5 12 7 20
4 8 -3 14 -1 14 4 0 6 3 10 6 10 3 0 4 -5 2 -12z m-693 -19 c-4 -6 -14 -8 -22
-5 -8 3 -11 1 -8 -4 3 -6 -1 -10 -9 -10 -8 0 -18 -5 -22 -12 -5 -7 -2 -9 9 -5
11 4 14 2 10 -9 -3 -9 1 -14 12 -14 11 0 15 -5 11 -15 -3 -8 -1 -15 5 -15 5 0
14 10 19 23 7 18 9 19 9 4 1 -14 6 -17 22 -12 19 6 21 4 17 -19 -5 -25 -4 -26
12 -11 17 15 19 14 27 -11 7 -20 3 -37 -16 -76 -20 -40 -25 -69 -29 -154 -4
-88 -2 -104 10 -104 10 0 17 -14 21 -44 16 -112 40 -190 67 -218 32 -32 74
-37 89 -10 9 15 10 14 10 -8 0 -70 -18 -228 -28 -250 l-12 -25 -197 2 c-108 1
-221 2 -249 3 -49 0 -53 2 -53 24 0 12 -10 34 -22 47 -13 14 -31 37 -41 52
-20 31 -51 35 -66 10 -9 -16 -10 -16 -11 -2 0 27 26 41 60 34 51 -11 36 24
-37 85 -91 76 -93 78 -93 106 0 21 3 23 19 14 28 -15 41 -12 41 8 0 10 -43 51
-101 97 -121 95 -137 114 -137 160 0 30 3 35 23 35 37 0 54 -10 48 -27 -4 -11
-2 -14 8 -11 8 3 12 12 10 19 -2 8 -5 21 -8 29 -3 13 9 15 74 13 53 -2 81 2
88 10 6 7 36 26 69 42 37 19 66 42 78 62 12 19 56 55 111 90 51 31 106 70 122
85 29 27 73 40 60 17z m45 1 c0 -5 -5 -10 -11 -10 -5 0 -7 5 -4 10 3 6 8 10
11 10 2 0 4 -4 4 -10z m706 -20 c8 0 14 -7 14 -15 0 -8 -7 -15 -16 -15 -8 0
-12 5 -9 10 3 6 1 10 -4 10 -6 0 -11 8 -10 18 0 10 3 12 6 5 2 -7 11 -13 19
-13z m54 11 c0 -6 -4 -12 -8 -15 -5 -3 -9 1 -9 9 0 8 4 15 9 15 4 0 8 -4 8 -9z
m-260 -26 c13 -14 19 -25 14 -25 -8 1 -50 50 -41 50 2 0 14 -11 27 -25z m-490
-15 c0 -5 -7 -10 -16 -10 -8 0 -12 5 -9 10 3 6 10 10 16 10 5 0 9 -4 9 -10z
m26 -27 c-10 -10 -19 5 -10 18 6 11 8 11 12 0 2 -7 1 -15 -2 -18z m764 17 c0
-5 -4 -10 -10 -10 -5 0 -10 5 -10 10 0 6 5 10 10 10 6 0 10 -4 10 -10z m-419
-37 c-12 -20 -14 -14 -5 12 4 9 9 14 11 11 3 -2 0 -13 -6 -23z m164 6 c-4 -5
-12 -9 -18 -8 -9 0 -8 2 1 6 6 2 9 10 6 15 -4 7 -2 8 5 4 6 -4 9 -12 6 -17z
m195 6 c0 -2 -9 -3 -19 -2 -11 0 -18 5 -15 9 4 6 34 0 34 -7z m60 -26 c0 -5
-4 -8 -9 -4 -5 3 -12 -3 -14 -12 -4 -14 -5 -13 -6 5 -1 13 5 22 14 22 8 0 15
-5 15 -11z m2457 -13 c4 -5 3 -6 -3 -3 -6 4 -25 2 -43 -3 -28 -8 -40 -2 -26
12 9 9 63 4 72 -6z m-3627 -21 c-22 -23 -40 -25 -40 -4 0 6 4 8 9 5 5 -3 11 1
15 9 3 8 13 15 22 15 15 0 14 -4 -6 -25z m995 15 c3 -5 2 -10 -4 -10 -5 0 -13
5 -16 10 -3 6 -2 10 4 10 5 0 13 -4 16 -10z m302 -22 c-3 -7 -5 -2 -5 12 0 14
2 19 5 13 2 -7 2 -19 0 -25z m20 -15 c-3 -10 -5 -4 -5 12 0 17 2 24 5 18 2 -7
2 -21 0 -30z m-555 -19 c2 -16 8 -19 30 -16 16 3 28 0 28 -7 0 -6 5 -11 11
-11 5 0 8 4 5 8 -2 4 -1 14 5 22 7 12 9 11 9 -6 0 -17 5 -20 26 -16 16 3 23 9
20 18 -6 16 -4 16 18 8 8 -3 12 -13 9 -22 -3 -12 -2 -13 4 -4 10 13 91 14 99
0 3 -4 14 -8 25 -8 11 0 19 -7 19 -16 0 -11 6 -14 23 -8 39 13 58 6 104 -40
25 -25 52 -46 59 -46 18 0 18 3 -6 47 -11 21 -20 45 -20 53 1 8 7 2 15 -15 13
-30 13 -30 15 -5 1 16 4 20 7 10 10 -23 32 -42 43 -35 6 4 10 -20 10 -65 0
-79 12 -135 69 -315 38 -119 60 -270 46 -314 -9 -30 -48 -37 -210 -36 l-150 0
2 25 c1 14 5 50 8 80 2 30 5 77 5 104 0 27 3 53 6 58 3 5 21 -4 39 -19 71 -58
96 -75 103 -69 3 4 -19 33 -50 64 -32 31 -64 64 -72 74 -9 9 -21 18 -26 20 -8
2 -8 12 -2 28 13 35 5 50 -28 50 -33 0 -54 -22 -47 -50 3 -11 1 -20 -4 -20
-12 0 -149 -139 -149 -151 0 -16 12 -9 71 42 l59 51 1 -29 c1 -15 0 -44 -1
-63 0 -19 6 -62 14 -95 9 -32 16 -69 16 -82 l0 -23 -200 3 c-124 1 -200 6
-201 12 -3 22 4 54 27 135 15 49 29 136 35 205 6 69 19 146 30 180 31 90 39
187 25 285 -7 51 -7 54 9 39 9 -9 17 -25 17 -35z m288 25 c14 -11 19 -18 13
-14 -7 3 -23 1 -35 -5 -21 -10 -22 -10 -5 4 18 14 18 15 0 25 -10 6 -13 10 -8
10 6 1 21 -9 35 -20z m520 -19 c0 -5 -2 -10 -4 -10 -3 0 -8 5 -11 10 -3 6 -1
10 4 10 6 0 11 -4 11 -10z m-1635 -19 c-3 -6 -11 -11 -16 -11 -5 0 -4 6 3 14
14 16 24 13 13 -3z m1174 -5 c9 -10 8 -15 -2 -19 -8 -3 -13 3 -13 14 0 23 0
23 15 5z m432 -13 c-12 -20 -14 -14 -5 12 4 9 9 14 11 11 3 -2 0 -13 -6 -23z
m1251 -141 c70 -47 143 -121 104 -106 -8 3 -18 14 -21 25 -5 15 -10 17 -26 9
-11 -6 -52 -10 -92 -8 -61 3 -72 6 -75 22 -3 12 0 16 8 11 9 -5 8 -1 -1 16
-11 21 -14 21 -17 6 -2 -9 -8 -15 -13 -12 -5 4 -9 2 -9 -4 0 -5 5 -13 11 -17
6 -3 9 -17 6 -30 -2 -12 0 -29 4 -36 6 -9 9 -6 9 11 0 24 -3 24 98 9 6 -1 12
-5 12 -10 0 -4 12 -8 28 -8 16 0 22 3 15 8 -9 6 -7 11 7 20 11 7 20 8 20 3 0
-5 7 -17 16 -25 20 -20 8 -39 -19 -30 -22 6 -22 6 -2 -9 11 -8 22 -12 25 -7 3
4 15 10 27 14 15 5 20 12 17 24 -5 14 -4 15 5 2 6 -8 11 -11 11 -7 0 4 9 3 20
-3 21 -11 28 -40 10 -40 -5 0 -10 7 -10 15 0 17 -18 19 -40 5 -13 -9 -13 -12
3 -21 9 -5 26 -19 36 -30 18 -20 18 -20 35 5 19 30 20 48 4 64 -9 9 -9 12 0
12 7 0 12 -4 12 -10 0 -5 7 -10 16 -10 9 0 14 -6 11 -12 -2 -7 3 -18 12 -25
14 -11 12 -12 -11 -13 -16 0 -28 -5 -28 -10 0 -14 72 -1 82 14 4 6 3 15 -2 20
-13 13 -13 29 -1 21 5 -3 12 3 14 12 2 10 3 6 1 -9 -5 -44 48 -27 58 17 3 16
5 15 10 -7 3 -15 1 -25 -3 -22 -5 2 -14 -4 -21 -16 -7 -11 -18 -20 -25 -20 -7
0 -13 -4 -13 -10 0 -15 19 -12 38 6 15 15 17 15 26 -7 6 -13 16 -30 23 -37 10
-10 14 -8 19 13 3 14 4 37 0 53 -3 15 -3 21 1 13 5 -11 7 -11 14 0 10 16 3
-37 -16 -121 l-12 -55 -44 0 c-57 0 -65 -6 -73 -54 -3 -22 -8 -46 -12 -54 -3
-9 3 -16 15 -20 18 -4 21 -13 21 -54 0 -73 -8 -93 -38 -93 -14 0 -33 -7 -42
-15 -15 -14 -56 -18 -287 -27 -46 -2 -83 0 -83 3 0 3 -32 4 -70 2 -53 -2 -69
1 -63 10 4 7 10 46 13 88 4 53 12 84 27 105 19 28 25 59 39 204 4 36 11 71 17
78 5 6 7 30 3 52 -7 44 0 52 14 18 l9 -23 0 22 c1 12 -3 25 -9 28 -5 3 -10 16
-10 27 0 12 -7 29 -15 38 -13 14 -14 28 -7 76 6 32 7 65 4 74 -3 8 19 -10 49
-41 30 -31 88 -79 131 -107z m723 110 c-3 -3 -11 0 -18 7 -9 10 -8 11 6 5 10
-3 15 -9 12 -12z m54 -3 c-22 -14 -33 -10 -19 6 7 8 17 12 22 9 6 -4 5 -10 -3
-15z m-152 -95 c-3 -3 -12 -4 -19 -1 -8 3 -5 6 6 6 11 1 17 -2 13 -5z m98 -4
c-3 -5 -10 -10 -16 -10 -5 0 -9 5 -9 10 0 6 7 10 16 10 8 0 12 -4 9 -10z
m-495 -36 c0 -2 -7 -4 -15 -4 -8 0 -15 4 -15 10 0 5 7 7 15 4 8 -4 15 -8 15
-10z m260 12 c0 -3 -4 -8 -10 -11 -5 -3 -10 -1 -10 4 0 6 5 11 10 11 6 0 10
-2 10 -4z m213 -23 c-7 -2 -19 -2 -25 0 -7 3 -2 5 12 5 14 0 19 -2 13 -5z
m-243 -68 l-8 -40 -1 36 c0 20 2 39 6 42 11 11 11 4 3 -38z m-195 -15 c-3 -5
-10 -10 -16 -10 -5 0 -9 5 -9 10 0 6 7 10 16 10 8 0 12 -4 9 -10z m162 -12
c-3 -8 -6 -5 -6 6 -1 11 2 17 5 13 3 -3 4 -12 1 -19z m-7 -88 c0 -5 -2 -10 -4
-10 -3 0 -8 5 -11 10 -3 6 -1 10 4 10 6 0 11 -4 11 -10z m-736 -254 c-5 -137
-3 -155 12 -164 14 -8 14 -10 -5 -15 -15 -3 -24 0 -28 10 -11 28 10 323 23
323 1 0 1 -69 -2 -154z m300 -242 c3 -8 2 -12 -4 -9 -6 3 -10 10 -10 16 0 14
7 11 14 -7z m-124 -14 c6 -11 8 -20 6 -20 -3 0 -10 9 -16 20 -6 11 -8 20 -6
20 3 0 10 -9 16 -20z m-150 -5 c0 -12 -19 -12 -23 0 -4 9 -1 12 9 8 7 -3 14
-7 14 -8z m230 -5 c0 -5 -4 -10 -10 -10 -5 0 -10 5 -10 10 0 6 5 10 10 10 6 0
10 -4 10 -10z m-120 -15 c0 -8 -2 -15 -4 -15 -2 0 -6 7 -10 15 -3 8 -1 15 4
15 6 0 10 -7 10 -15z m87 -21 c-3 -3 -12 -4 -19 -1 -8 3 -5 6 6 6 11 1 17 -2
13 -5z m43 -35 c0 -5 -4 -9 -8 -9 -5 0 -9 7 -9 15 0 8 4 12 9 9 4 -3 8 -9 8
-15z m-700 1 c0 -5 -5 -10 -11 -10 -5 0 -7 5 -4 10 3 6 8 10 11 10 2 0 4 -4 4
-10z m310 -5 c0 -8 -2 -15 -4 -15 -2 0 -6 7 -10 15 -3 8 -1 15 4 15 6 0 10 -7
10 -15z m-125 -15 c-3 -5 -11 -10 -16 -10 -6 0 -7 5 -4 10 3 6 11 10 16 10 6
0 7 -4 4 -10z m-370 -10 c-3 -5 -14 -10 -23 -10 -15 0 -15 2 -2 10 20 13 33
13 25 0z m680 -8 c-3 -3 -11 0 -18 7 -9 10 -8 11 6 5 10 -3 15 -9 12 -12z
m-194 -55 c-10 -9 -11 -8 -5 6 3 10 9 15 12 12 3 -3 0 -11 -7 -18z"/>
<path d="M3040 5429 c0 -5 5 -7 10 -4 6 3 10 8 10 11 0 2 -4 4 -10 4 -5 0 -10
-5 -10 -11z"/>
<path d="M3375 5410 c3 -5 8 -10 11 -10 2 0 4 5 4 10 0 6 -5 10 -11 10 -5 0
-7 -4 -4 -10z"/>
<path d="M3185 5370 c-3 -5 -1 -10 4 -10 6 0 11 5 11 10 0 6 -2 10 -4 10 -3 0
-8 -4 -11 -10z"/>
<path d="M3347 5364 c-3 -11 -9 -30 -13 -44 -6 -21 -5 -22 8 -10 20 21 27 45
18 60 -6 9 -9 8 -13 -6z"/>
<path d="M3232 5347 c-9 -11 -10 -17 -2 -22 15 -9 23 -1 18 21 -3 15 -4 16
-16 1z"/>
<path d="M3265 5310 c3 -5 8 -10 11 -10 2 0 4 5 4 10 0 6 -5 10 -11 10 -5 0
-7 -4 -4 -10z"/>
<path d="M3360 5039 c0 -5 5 -7 10 -4 6 3 10 8 10 11 0 2 -4 4 -10 4 -5 0 -10
-5 -10 -11z"/>
<path d="M3106 4659 c-16 -16 -17 -19 -4 -19 9 0 19 7 22 16 9 24 4 24 -18 3z"/>
<path d="M4040 5440 c0 -5 7 -7 15 -4 8 4 15 8 15 10 0 2 -7 4 -15 4 -8 0 -15
-4 -15 -10z"/>
<path d="M4260 5430 c0 -5 7 -10 15 -10 8 0 15 5 15 10 0 6 -7 10 -15 10 -8 0
-15 -4 -15 -10z"/>
<path d="M4840 4719 c0 -5 5 -7 10 -4 6 3 10 8 10 11 0 2 -4 4 -10 4 -5 0 -10
-5 -10 -11z"/>
<path d="M4781 4254 c0 -11 3 -14 6 -6 3 7 2 16 -1 19 -3 4 -6 -2 -5 -13z"/>
<path d="M4763 4104 c-4 -10 -2 -19 5 -22 18 -6 4 -22 -19 -22 -11 0 -17 5
-14 10 3 6 2 10 -3 10 -12 0 -24 -29 -16 -41 8 -13 46 -10 67 5 13 10 16 21
11 40 -8 33 -22 42 -31 20z"/>
<path d="M4670 4040 c0 -5 5 -12 10 -15 6 -4 8 -11 5 -16 -7 -11 -3 -11 19 -3
23 9 20 19 -9 32 -14 6 -25 7 -25 2z"/>
<path d="M4827 4003 c-15 -15 -5 -25 18 -19 20 5 27 2 33 -15 8 -20 9 -20 25
-4 9 9 17 21 17 26 0 13 -18 11 -22 -3 -3 -9 -9 -8 -22 5 -18 18 -38 22 -49
10z"/>
<path d="M5101 3689 c-32 -13 -22 -20 14 -11 16 5 25 11 20 14 -6 3 -21 2 -34
-3z"/>
<path d="M5405 3310 c3 -5 13 -10 21 -10 8 0 14 5 14 10 0 6 -9 10 -21 10 -11
0 -17 -4 -14 -10z"/>
<path d="M5472 3218 c6 -18 65 -31 86 -18 14 9 14 10 -6 5 -14 -4 -28 -1 -38
9 -18 19 -47 21 -42 4z"/>
<path d="M5440 3159 c0 -5 5 -7 10 -4 6 3 10 8 10 11 0 2 -4 4 -10 4 -5 0 -10
-5 -10 -11z"/>
<path d="M5530 3140 c0 -5 5 -10 10 -10 6 0 10 5 10 10 0 6 -4 10 -10 10 -5 0
-10 -4 -10 -10z"/>
<path d="M4006 3092 c-3 -6 -1 -14 5 -17 15 -10 25 3 12 16 -7 7 -13 7 -17 1z"/>
<path d="M5300 3080 c0 -5 5 -10 10 -10 6 0 10 5 10 10 0 6 -4 10 -10 10 -5 0
-10 -4 -10 -10z"/>
<path d="M3964 3050 c3 -14 6 -31 6 -37 0 -7 7 -13 16 -13 11 0 15 -6 11 -20
-6 -22 17 -48 28 -30 3 5 -2 10 -12 10 -10 0 -14 4 -8 8 13 9 13 42 1 61 -8
12 -11 11 -17 -5 -7 -18 -8 -18 -8 1 -1 11 -6 27 -12 35 -8 12 -9 10 -5 -10z"/>
<path d="M5070 3037 c0 -17 21 -57 30 -57 17 0 11 26 -10 45 -11 10 -20 15
-20 12z"/>
<path d="M5160 3031 c0 -5 11 -16 25 -25 14 -9 25 -12 25 -7 0 5 -11 16 -25
25 -14 9 -25 12 -25 7z"/>
<path d="M4250 3020 c0 -5 5 -10 11 -10 5 0 7 5 4 10 -3 6 -8 10 -11 10 -2 0
-4 -4 -4 -10z"/>
<path d="M3951 3008 c0 -9 -4 -25 -7 -35 -5 -17 -5 -17 6 0 6 10 9 25 7 35 -4
15 -5 15 -6 0z"/>
<path d="M5120 2990 c0 -5 5 -10 10 -10 6 0 10 5 10 10 0 6 -4 10 -10 10 -5 0
-10 -4 -10 -10z"/>
<path d="M4083 2963 c4 -3 2 -12 -4 -20 -9 -10 -6 -12 20 -7 24 5 31 3 31 -10
0 -24 13 -19 27 9 6 14 7 27 2 31 -5 3 -9 -2 -9 -12 0 -13 -3 -14 -15 -4 -8 6
-20 8 -26 4 -8 -4 -9 -3 -5 4 4 7 0 12 -10 12 -10 0 -14 -3 -11 -7z"/>
<path d="M4088 2898 c3 -12 -3 -21 -19 -26 l-23 -9 24 -6 c13 -3 26 -4 29 -2
2 3 -2 5 -9 5 -9 0 -6 7 8 20 27 25 28 39 3 37 -12 -1 -17 -7 -13 -19z"/>
<path d="M4350 2914 c0 -3 7 -12 15 -20 16 -17 18 -14 9 10 -6 15 -24 23 -24
10z"/>
<path d="M4025 2890 c-4 -6 3 -10 14 -10 25 0 27 6 6 13 -8 4 -17 2 -20 -3z"/>
<path d="M4927 2879 c7 -7 15 -10 18 -7 3 3 -2 9 -12 12 -14 6 -15 5 -6 -5z"/>
<path d="M4345 2850 c-3 -6 1 -7 9 -4 18 7 21 14 7 14 -6 0 -13 -4 -16 -10z"/>
<path d="M4908 2853 c7 -3 16 -2 19 1 4 3 -2 6 -13 5 -11 0 -14 -3 -6 -6z"/>
<path d="M4945 2850 c3 -5 8 -10 11 -10 2 0 4 5 4 10 0 6 -5 10 -11 10 -5 0
-7 -4 -4 -10z"/>
<path d="M3910 2825 c0 -10 10 -15 33 -14 17 0 25 3 17 6 -8 3 -23 10 -32 15
-13 6 -18 5 -18 -7z"/>
<path d="M4214 2825 c-10 -8 -14 -15 -8 -15 6 0 17 7 24 15 16 19 9 19 -16 0z"/>
<path d="M4043 2815 c-3 -9 -3 -18 0 -21 9 -9 27 6 27 22 0 19 -19 18 -27 -1z"/>
<path d="M4346 2808 c-18 -25 -20 -44 -7 -52 5 -4 7 3 4 14 -3 11 0 20 6 20 6
0 11 -5 11 -12 0 -6 3 -8 6 -5 4 4 2 13 -5 21 -9 11 -9 15 1 19 7 2 10 7 7 11
-4 4 -14 -3 -23 -16z"/>
<path d="M3990 2799 c0 -5 5 -7 10 -4 6 3 10 8 10 11 0 2 -4 4 -10 4 -5 0 -10
-5 -10 -11z"/>
<path d="M4160 2794 c0 -17 32 -34 55 -28 20 5 25 2 26 -12 0 -11 3 -14 6 -6
2 6 16 12 29 12 13 0 24 4 24 8 0 4 -26 8 -57 9 -32 1 -59 6 -61 12 -4 11 -22
15 -22 5z"/>
<path d="M4135 2776 c-26 -27 -26 -34 0 -23 14 7 25 15 25 19 0 13 -15 16 -25
4z"/>
<path d="M3890 2736 c0 -2 7 -7 16 -10 8 -3 12 -2 9 4 -6 10 -25 14 -25 6z"/>
<path d="M3831 2414 c0 -11 3 -14 6 -6 3 7 2 16 -1 19 -3 4 -6 -2 -5 -13z"/>
<path d="M6036 4443 c-4 -8 -12 -13 -20 -10 -10 4 -12 0 -8 -15 3 -14 10 -18
26 -14 11 3 24 6 29 6 4 0 7 9 7 19 0 24 -26 35 -34 14z"/>
<path d="M5878 4393 c7 -3 16 -2 19 1 4 3 -2 6 -13 5 -11 0 -14 -3 -6 -6z"/>
<path d="M6100 4380 c-22 -6 -23 -8 -7 -15 21 -9 67 2 67 15 0 11 -24 11 -60
0z"/>
<path d="M6008 4343 c7 -3 16 -2 19 1 4 3 -2 6 -13 5 -11 0 -14 -3 -6 -6z"/>
<path d="M6106 4328 c-11 -36 -13 -57 -5 -52 5 3 9 14 9 25 0 10 4 19 8 19 5
0 7 -15 5 -32 -3 -31 -3 -31 7 -9 11 26 5 61 -11 61 -5 0 -11 -6 -13 -12z"/>
<path d="M3307 4335 c-4 -8 -2 -17 3 -20 6 -4 10 3 10 14 0 25 -6 27 -13 6z"/>
<path d="M3196 4308 c5 -7 2 -9 -8 -5 -18 7 -38 -11 -37 -32 0 -11 2 -12 6 -3
2 6 15 12 27 12 13 0 25 3 29 6 8 8 -3 34 -15 34 -5 0 -6 -5 -2 -12z"/>
<path d="M3240 4290 c-12 -8 -9 -10 13 -10 15 0 27 5 27 10 0 13 -20 13 -40 0z"/>
<path d="M3275 4250 c-3 -5 -1 -10 4 -10 6 0 11 5 11 10 0 6 -2 10 -4 10 -3 0
-8 -4 -11 -10z"/>
<path d="M2780 3941 c0 -6 4 -13 10 -16 6 -3 7 1 4 9 -7 18 -14 21 -14 7z"/>
<path d="M2591 3784 c0 -11 3 -14 6 -6 3 7 2 16 -1 19 -3 4 -6 -2 -5 -13z"/>
<path d="M2526 3731 c-3 -5 1 -11 9 -14 9 -4 12 -1 8 9 -6 16 -10 17 -17 5z"/>
<path d="M2240 3715 c0 -9 5 -15 11 -13 6 2 11 8 11 13 0 5 -5 11 -11 13 -6 2
-11 -4 -11 -13z"/>
<path d="M2274 3534 c5 -13 2 -15 -13 -11 -14 3 -18 1 -14 -9 6 -17 9 -17 33
-4 19 10 17 40 -2 40 -6 0 -7 -7 -4 -16z"/>
<path d="M2180 3365 c0 -8 8 -15 18 -14 10 0 12 3 4 6 -6 2 -10 9 -6 14 3 5 0
9 -5 9 -6 0 -11 -7 -11 -15z"/>
<path d="M3165 3360 c-3 -5 1 -10 10 -10 9 0 13 5 10 10 -3 6 -8 10 -10 10 -2
0 -7 -4 -10 -10z"/>
<path d="M2268 3353 c6 -2 18 -2 25 0 6 3 1 5 -13 5 -14 0 -19 -2 -12 -5z"/>
<path d="M2961 3344 c0 -11 3 -14 6 -6 3 7 2 16 -1 19 -3 4 -6 -2 -5 -13z"/>
<path d="M3262 3335 c0 -16 2 -22 5 -12 2 9 2 23 0 30 -3 6 -5 -1 -5 -18z"/>
<path d="M3229 3349 c-1 -2 -2 -15 -3 -29 -1 -14 -6 -42 -10 -63 -5 -30 -4
-39 9 -43 21 -8 40 10 29 28 -4 7 -10 33 -12 58 -3 39 -9 62 -13 49z"/>
<path d="M2225 3331 c-6 -11 9 -23 19 -14 9 9 7 23 -3 23 -6 0 -12 -4 -16 -9z"/>
<path d="M2920 3330 c0 -5 4 -10 9 -10 6 0 13 5 16 10 3 6 -1 10 -9 10 -9 0
-16 -4 -16 -10z"/>
<path d="M2903 3290 c1 -20 8 -25 20 -14 7 8 -3 34 -13 34 -5 0 -8 -9 -7 -20z"/>
<path d="M2961 3294 c0 -11 3 -14 6 -6 3 7 2 16 -1 19 -3 4 -6 -2 -5 -13z"/>
<path d="M2645 4150 c-3 -5 -1 -10 4 -10 6 0 11 5 11 10 0 6 -2 10 -4 10 -3 0
-8 -4 -11 -10z"/>
<path d="M2284 3083 c4 -9 2 -20 -5 -23 -6 -4 1 -7 15 -7 30 0 33 9 10 31 -20
21 -28 20 -20 -1z"/>
<path d="M1930 2850 c0 -5 7 -7 15 -4 8 4 15 8 15 10 0 2 -7 4 -15 4 -8 0 -15
-4 -15 -10z"/>
<path d="M3155 2890 c3 -5 8 -10 11 -10 2 0 4 5 4 10 0 6 -5 10 -11 10 -5 0
-7 -4 -4 -10z"/>
<path d="M3108 2883 c7 -3 16 -2 19 1 4 3 -2 6 -13 5 -11 0 -14 -3 -6 -6z"/>
<path d="M4675 2860 c3 -5 8 -10 11 -10 2 0 4 5 4 10 0 6 -5 10 -11 10 -5 0
-7 -4 -4 -10z"/>
<path d="M4647 2821 c-3 -11 1 -22 8 -24 8 -4 10 3 7 19 -5 29 -8 30 -15 5z"/>
<path d="M4681 2814 c0 -11 3 -14 6 -6 3 7 2 16 -1 19 -3 4 -6 -2 -5 -13z"/>
<path d="M4700 2810 c0 -5 5 -10 10 -10 6 0 10 5 10 10 0 6 -4 10 -10 10 -5 0
-10 -4 -10 -10z"/>
<path d="M4735 2800 c3 -5 8 -10 11 -10 2 0 4 5 4 10 0 6 -5 10 -11 10 -5 0
-7 -4 -4 -10z"/>
<path d="M4803 2767 c2 -7 11 -11 21 -9 9 2 16 -2 16 -8 0 -5 5 -10 11 -10 21
0 2 24 -25 31 -19 5 -26 4 -23 -4z"/>
<path d="M4760 2756 c0 -14 20 -26 53 -33 13 -2 10 4 -11 22 -34 29 -42 31
-42 11z"/>
<path d="M4860 2730 c-8 -5 -10 -10 -5 -10 6 0 17 5 25 10 8 5 11 10 5 10 -5
0 -17 -5 -25 -10z"/>
<path d="M4745 2670 c3 -5 13 -10 21 -10 8 0 14 -6 14 -12 0 -9 3 -8 9 2 13
20 4 30 -25 30 -14 0 -22 -4 -19 -10z"/>
<path d="M4680 2630 c0 -5 5 -10 10 -10 6 0 10 5 10 10 0 6 -4 10 -10 10 -5 0
-10 -4 -10 -10z"/>
<path d="M4893 2579 c-4 -15 -8 -17 -13 -8 -6 9 -12 8 -25 -4 -15 -16 -15 -17
4 -17 11 0 26 -8 33 -19 12 -16 13 -14 15 25 2 47 -5 58 -14 23z"/>
<path d="M5040 2550 c0 -11 2 -20 4 -20 2 0 11 -3 20 -6 9 -3 16 -1 16 5 0 6
-7 11 -15 11 -18 0 -20 16 -2 23 7 3 5 6 -5 6 -12 1 -18 -6 -18 -19z"/>
<path d="M5113 2563 c9 -2 17 -11 17 -19 0 -8 5 -14 10 -14 6 0 10 6 10 14 0
14 -22 27 -43 25 -7 -1 -4 -3 6 -6z"/>
<path d="M4768 2553 c6 -2 18 -2 25 0 6 3 1 5 -13 5 -14 0 -19 -2 -12 -5z"/>
<path d="M4930 2549 c0 -5 5 -7 10 -4 6 3 10 8 10 11 0 2 -4 4 -10 4 -5 0 -10
-5 -10 -11z"/>
<path d="M5105 2530 c-3 -5 -1 -10 4 -10 6 0 11 5 11 10 0 6 -2 10 -4 10 -3 0
-8 -4 -11 -10z"/>
</g>
</svg>
